<?xml version="1.0" encoding="utf-8" standalone="no"?>
<!DOCTYPE svg PUBLIC "-//W3C//DTD SVG 1.1//EN"
  "http://www.w3.org/Graphics/SVG/1.1/DTD/svg11.dtd">
<svg xmlns:xlink="http://www.w3.org/1999/xlink" width="432pt" height="288pt" viewBox="0 0 432 288" xmlns="http://www.w3.org/2000/svg" version="1.1">
 <metadata>
  <rdf:RDF xmlns:dc="http://purl.org/dc/elements/1.1/" xmlns:cc="http://creativecommons.org/ns#" xmlns:rdf="http://www.w3.org/1999/02/22-rdf-syntax-ns#">
   <cc:Work>
    <dc:type rdf:resource="http://purl.org/dc/dcmitype/StillImage"/>
    <dc:date>2025-10-27T20:16:42.505068</dc:date>
    <dc:format>image/svg+xml</dc:format>
    <dc:creator>
     <cc:Agent>
      <dc:title>Matplotlib v3.10.6, https://matplotlib.org/</dc:title>
     </cc:Agent>
    </dc:creator>
   </cc:Work>
  </rdf:RDF>
 </metadata>
 <defs>
  <style type="text/css">*{stroke-linejoin: round; stroke-linecap: butt}</style>
 </defs>
 <g id="figure_1">
  <g id="patch_1">
   <path d="M 0 288 
L 432 288 
L 432 0 
L 0 0 
z
" style="fill: #ffffff"/>
  </g>
  <g id="axes_1">
   <g id="patch_2">
    <path d="M 62.39 246.04 
L 211.066057 246.04 
L 211.066057 26.88 
L 62.39 26.88 
z
" style="fill: #ffffff"/>
   </g>
   <g id="matplotlib.axis_1">
    <g id="xtick_1">
     <g id="line2d_1">
      <defs>
       <path id="m839a8dc4fa" d="M 0 0 
L 0 3.5 
" style="stroke: #000000; stroke-width: 0.8"/>
      </defs>
      <g>
       <use xlink:href="#m839a8dc4fa" x="69.148003" y="246.04" style="stroke: #000000; stroke-width: 0.8"/>
      </g>
     </g>
     <g id="text_1">
      <!-- 0.00 -->
      <g transform="translate(58.01519 260.638438) scale(0.1 -0.1)">
       <defs>
        <path id="DejaVuSans-30" d="M 2034 4250 
Q 1547 4250 1301 3770 
Q 1056 3291 1056 2328 
Q 1056 1369 1301 889 
Q 1547 409 2034 409 
Q 2525 409 2770 889 
Q 3016 1369 3016 2328 
Q 3016 3291 2770 3770 
Q 2525 4250 2034 4250 
z
M 2034 4750 
Q 2819 4750 3233 4129 
Q 3647 3509 3647 2328 
Q 3647 1150 3233 529 
Q 2819 -91 2034 -91 
Q 1250 -91 836 529 
Q 422 1150 422 2328 
Q 422 3509 836 4129 
Q 1250 4750 2034 4750 
z
" transform="scale(0.015625)"/>
        <path id="DejaVuSans-2e" d="M 684 794 
L 1344 794 
L 1344 0 
L 684 0 
L 684 794 
z
" transform="scale(0.015625)"/>
       </defs>
       <use xlink:href="#DejaVuSans-30"/>
       <use xlink:href="#DejaVuSans-2e" transform="translate(63.623047 0)"/>
       <use xlink:href="#DejaVuSans-30" transform="translate(95.410156 0)"/>
       <use xlink:href="#DejaVuSans-30" transform="translate(159.033203 0)"/>
      </g>
     </g>
    </g>
    <g id="xtick_2">
     <g id="line2d_2">
      <g>
       <use xlink:href="#m839a8dc4fa" x="136.794092" y="246.04" style="stroke: #000000; stroke-width: 0.8"/>
      </g>
     </g>
     <g id="text_2">
      <!-- 0.05 -->
      <g transform="translate(125.661279 260.638438) scale(0.1 -0.1)">
       <defs>
        <path id="DejaVuSans-35" d="M 691 4666 
L 3169 4666 
L 3169 4134 
L 1269 4134 
L 1269 2991 
Q 1406 3038 1543 3061 
Q 1681 3084 1819 3084 
Q 2600 3084 3056 2656 
Q 3513 2228 3513 1497 
Q 3513 744 3044 326 
Q 2575 -91 1722 -91 
Q 1428 -91 1123 -41 
Q 819 9 494 109 
L 494 744 
Q 775 591 1075 516 
Q 1375 441 1709 441 
Q 2250 441 2565 725 
Q 2881 1009 2881 1497 
Q 2881 1984 2565 2268 
Q 2250 2553 1709 2553 
Q 1456 2553 1204 2497 
Q 953 2441 691 2322 
L 691 4666 
z
" transform="scale(0.015625)"/>
       </defs>
       <use xlink:href="#DejaVuSans-30"/>
       <use xlink:href="#DejaVuSans-2e" transform="translate(63.623047 0)"/>
       <use xlink:href="#DejaVuSans-30" transform="translate(95.410156 0)"/>
       <use xlink:href="#DejaVuSans-35" transform="translate(159.033203 0)"/>
      </g>
     </g>
    </g>
    <g id="xtick_3">
     <g id="line2d_3">
      <g>
       <use xlink:href="#m839a8dc4fa" x="204.440181" y="246.04" style="stroke: #000000; stroke-width: 0.8"/>
      </g>
     </g>
     <g id="text_3">
      <!-- 0.10 -->
      <g transform="translate(193.307368 260.638438) scale(0.1 -0.1)">
       <defs>
        <path id="DejaVuSans-31" d="M 794 531 
L 1825 531 
L 1825 4091 
L 703 3866 
L 703 4441 
L 1819 4666 
L 2450 4666 
L 2450 531 
L 3481 531 
L 3481 0 
L 794 0 
L 794 531 
z
" transform="scale(0.015625)"/>
       </defs>
       <use xlink:href="#DejaVuSans-30"/>
       <use xlink:href="#DejaVuSans-2e" transform="translate(63.623047 0)"/>
       <use xlink:href="#DejaVuSans-31" transform="translate(95.410156 0)"/>
       <use xlink:href="#DejaVuSans-30" transform="translate(159.033203 0)"/>
      </g>
     </g>
    </g>
    <g id="text_4">
     <!-- Time [ms] -->
     <g transform="translate(111.52881 274.316562) scale(0.1 -0.1)">
      <defs>
       <path id="DejaVuSans-54" d="M -19 4666 
L 3928 4666 
L 3928 4134 
L 2272 4134 
L 2272 0 
L 1638 0 
L 1638 4134 
L -19 4134 
L -19 4666 
z
" transform="scale(0.015625)"/>
       <path id="DejaVuSans-69" d="M 603 3500 
L 1178 3500 
L 1178 0 
L 603 0 
L 603 3500 
z
M 603 4863 
L 1178 4863 
L 1178 4134 
L 603 4134 
L 603 4863 
z
" transform="scale(0.015625)"/>
       <path id="DejaVuSans-6d" d="M 3328 2828 
Q 3544 3216 3844 3400 
Q 4144 3584 4550 3584 
Q 5097 3584 5394 3201 
Q 5691 2819 5691 2113 
L 5691 0 
L 5113 0 
L 5113 2094 
Q 5113 2597 4934 2840 
Q 4756 3084 4391 3084 
Q 3944 3084 3684 2787 
Q 3425 2491 3425 1978 
L 3425 0 
L 2847 0 
L 2847 2094 
Q 2847 2600 2669 2842 
Q 2491 3084 2119 3084 
Q 1678 3084 1418 2786 
Q 1159 2488 1159 1978 
L 1159 0 
L 581 0 
L 581 3500 
L 1159 3500 
L 1159 2956 
Q 1356 3278 1631 3431 
Q 1906 3584 2284 3584 
Q 2666 3584 2933 3390 
Q 3200 3197 3328 2828 
z
" transform="scale(0.015625)"/>
       <path id="DejaVuSans-65" d="M 3597 1894 
L 3597 1613 
L 953 1613 
Q 991 1019 1311 708 
Q 1631 397 2203 397 
Q 2534 397 2845 478 
Q 3156 559 3463 722 
L 3463 178 
Q 3153 47 2828 -22 
Q 2503 -91 2169 -91 
Q 1331 -91 842 396 
Q 353 884 353 1716 
Q 353 2575 817 3079 
Q 1281 3584 2069 3584 
Q 2775 3584 3186 3129 
Q 3597 2675 3597 1894 
z
M 3022 2063 
Q 3016 2534 2758 2815 
Q 2500 3097 2075 3097 
Q 1594 3097 1305 2825 
Q 1016 2553 972 2059 
L 3022 2063 
z
" transform="scale(0.015625)"/>
       <path id="DejaVuSans-20" transform="scale(0.015625)"/>
       <path id="DejaVuSans-5b" d="M 550 4863 
L 1875 4863 
L 1875 4416 
L 1125 4416 
L 1125 -397 
L 1875 -397 
L 1875 -844 
L 550 -844 
L 550 4863 
z
" transform="scale(0.015625)"/>
       <path id="DejaVuSans-73" d="M 2834 3397 
L 2834 2853 
Q 2591 2978 2328 3040 
Q 2066 3103 1784 3103 
Q 1356 3103 1142 2972 
Q 928 2841 928 2578 
Q 928 2378 1081 2264 
Q 1234 2150 1697 2047 
L 1894 2003 
Q 2506 1872 2764 1633 
Q 3022 1394 3022 966 
Q 3022 478 2636 193 
Q 2250 -91 1575 -91 
Q 1294 -91 989 -36 
Q 684 19 347 128 
L 347 722 
Q 666 556 975 473 
Q 1284 391 1588 391 
Q 1994 391 2212 530 
Q 2431 669 2431 922 
Q 2431 1156 2273 1281 
Q 2116 1406 1581 1522 
L 1381 1569 
Q 847 1681 609 1914 
Q 372 2147 372 2553 
Q 372 3047 722 3315 
Q 1072 3584 1716 3584 
Q 2034 3584 2315 3537 
Q 2597 3491 2834 3397 
z
" transform="scale(0.015625)"/>
       <path id="DejaVuSans-5d" d="M 1947 4863 
L 1947 -844 
L 622 -844 
L 622 -397 
L 1369 -397 
L 1369 4416 
L 622 4416 
L 622 4863 
L 1947 4863 
z
" transform="scale(0.015625)"/>
      </defs>
      <use xlink:href="#DejaVuSans-54"/>
      <use xlink:href="#DejaVuSans-69" transform="translate(57.958984 0)"/>
      <use xlink:href="#DejaVuSans-6d" transform="translate(85.742188 0)"/>
      <use xlink:href="#DejaVuSans-65" transform="translate(183.154297 0)"/>
      <use xlink:href="#DejaVuSans-20" transform="translate(244.677734 0)"/>
      <use xlink:href="#DejaVuSans-5b" transform="translate(276.464844 0)"/>
      <use xlink:href="#DejaVuSans-6d" transform="translate(315.478516 0)"/>
      <use xlink:href="#DejaVuSans-73" transform="translate(412.890625 0)"/>
      <use xlink:href="#DejaVuSans-5d" transform="translate(464.990234 0)"/>
     </g>
    </g>
   </g>
   <g id="matplotlib.axis_2">
    <g id="ytick_1">
     <g id="line2d_4">
      <defs>
       <path id="mcb8575c05d" d="M 0 0 
L -3.5 0 
" style="stroke: #000000; stroke-width: 0.8"/>
      </defs>
      <g>
       <use xlink:href="#mcb8575c05d" x="62.39" y="239.639633" style="stroke: #000000; stroke-width: 0.8"/>
      </g>
     </g>
     <g id="text_5">
      <!-- −1.00 -->
      <g transform="translate(24.744688 243.438852) scale(0.1 -0.1)">
       <defs>
        <path id="DejaVuSans-2212" d="M 678 2272 
L 4684 2272 
L 4684 1741 
L 678 1741 
L 678 2272 
z
" transform="scale(0.015625)"/>
       </defs>
       <use xlink:href="#DejaVuSans-2212"/>
       <use xlink:href="#DejaVuSans-31" transform="translate(83.789062 0)"/>
       <use xlink:href="#DejaVuSans-2e" transform="translate(147.412109 0)"/>
       <use xlink:href="#DejaVuSans-30" transform="translate(179.199219 0)"/>
       <use xlink:href="#DejaVuSans-30" transform="translate(242.822266 0)"/>
      </g>
     </g>
    </g>
    <g id="ytick_2">
     <g id="line2d_5">
      <g>
       <use xlink:href="#mcb8575c05d" x="62.39" y="213.844725" style="stroke: #000000; stroke-width: 0.8"/>
      </g>
     </g>
     <g id="text_6">
      <!-- −0.75 -->
      <g transform="translate(24.744688 217.643944) scale(0.1 -0.1)">
       <defs>
        <path id="DejaVuSans-37" d="M 525 4666 
L 3525 4666 
L 3525 4397 
L 1831 0 
L 1172 0 
L 2766 4134 
L 525 4134 
L 525 4666 
z
" transform="scale(0.015625)"/>
       </defs>
       <use xlink:href="#DejaVuSans-2212"/>
       <use xlink:href="#DejaVuSans-30" transform="translate(83.789062 0)"/>
       <use xlink:href="#DejaVuSans-2e" transform="translate(147.412109 0)"/>
       <use xlink:href="#DejaVuSans-37" transform="translate(179.199219 0)"/>
       <use xlink:href="#DejaVuSans-35" transform="translate(242.822266 0)"/>
      </g>
     </g>
    </g>
    <g id="ytick_3">
     <g id="line2d_6">
      <g>
       <use xlink:href="#mcb8575c05d" x="62.39" y="188.049817" style="stroke: #000000; stroke-width: 0.8"/>
      </g>
     </g>
     <g id="text_7">
      <!-- −0.50 -->
      <g transform="translate(24.744688 191.849035) scale(0.1 -0.1)">
       <use xlink:href="#DejaVuSans-2212"/>
       <use xlink:href="#DejaVuSans-30" transform="translate(83.789062 0)"/>
       <use xlink:href="#DejaVuSans-2e" transform="translate(147.412109 0)"/>
       <use xlink:href="#DejaVuSans-35" transform="translate(179.199219 0)"/>
       <use xlink:href="#DejaVuSans-30" transform="translate(242.822266 0)"/>
      </g>
     </g>
    </g>
    <g id="ytick_4">
     <g id="line2d_7">
      <g>
       <use xlink:href="#mcb8575c05d" x="62.39" y="162.254908" style="stroke: #000000; stroke-width: 0.8"/>
      </g>
     </g>
     <g id="text_8">
      <!-- −0.25 -->
      <g transform="translate(24.744688 166.054127) scale(0.1 -0.1)">
       <defs>
        <path id="DejaVuSans-32" d="M 1228 531 
L 3431 531 
L 3431 0 
L 469 0 
L 469 531 
Q 828 903 1448 1529 
Q 2069 2156 2228 2338 
Q 2531 2678 2651 2914 
Q 2772 3150 2772 3378 
Q 2772 3750 2511 3984 
Q 2250 4219 1831 4219 
Q 1534 4219 1204 4116 
Q 875 4013 500 3803 
L 500 4441 
Q 881 4594 1212 4672 
Q 1544 4750 1819 4750 
Q 2544 4750 2975 4387 
Q 3406 4025 3406 3419 
Q 3406 3131 3298 2873 
Q 3191 2616 2906 2266 
Q 2828 2175 2409 1742 
Q 1991 1309 1228 531 
z
" transform="scale(0.015625)"/>
       </defs>
       <use xlink:href="#DejaVuSans-2212"/>
       <use xlink:href="#DejaVuSans-30" transform="translate(83.789062 0)"/>
       <use xlink:href="#DejaVuSans-2e" transform="translate(147.412109 0)"/>
       <use xlink:href="#DejaVuSans-32" transform="translate(179.199219 0)"/>
       <use xlink:href="#DejaVuSans-35" transform="translate(242.822266 0)"/>
      </g>
     </g>
    </g>
    <g id="ytick_5">
     <g id="line2d_8">
      <g>
       <use xlink:href="#mcb8575c05d" x="62.39" y="136.46" style="stroke: #000000; stroke-width: 0.8"/>
      </g>
     </g>
     <g id="text_9">
      <!-- 0.00 -->
      <g transform="translate(33.124375 140.259219) scale(0.1 -0.1)">
       <use xlink:href="#DejaVuSans-30"/>
       <use xlink:href="#DejaVuSans-2e" transform="translate(63.623047 0)"/>
       <use xlink:href="#DejaVuSans-30" transform="translate(95.410156 0)"/>
       <use xlink:href="#DejaVuSans-30" transform="translate(159.033203 0)"/>
      </g>
     </g>
    </g>
    <g id="ytick_6">
     <g id="line2d_9">
      <g>
       <use xlink:href="#mcb8575c05d" x="62.39" y="110.665092" style="stroke: #000000; stroke-width: 0.8"/>
      </g>
     </g>
     <g id="text_10">
      <!-- 0.25 -->
      <g transform="translate(33.124375 114.46431) scale(0.1 -0.1)">
       <use xlink:href="#DejaVuSans-30"/>
       <use xlink:href="#DejaVuSans-2e" transform="translate(63.623047 0)"/>
       <use xlink:href="#DejaVuSans-32" transform="translate(95.410156 0)"/>
       <use xlink:href="#DejaVuSans-35" transform="translate(159.033203 0)"/>
      </g>
     </g>
    </g>
    <g id="ytick_7">
     <g id="line2d_10">
      <g>
       <use xlink:href="#mcb8575c05d" x="62.39" y="84.870183" style="stroke: #000000; stroke-width: 0.8"/>
      </g>
     </g>
     <g id="text_11">
      <!-- 0.50 -->
      <g transform="translate(33.124375 88.669402) scale(0.1 -0.1)">
       <use xlink:href="#DejaVuSans-30"/>
       <use xlink:href="#DejaVuSans-2e" transform="translate(63.623047 0)"/>
       <use xlink:href="#DejaVuSans-35" transform="translate(95.410156 0)"/>
       <use xlink:href="#DejaVuSans-30" transform="translate(159.033203 0)"/>
      </g>
     </g>
    </g>
    <g id="ytick_8">
     <g id="line2d_11">
      <g>
       <use xlink:href="#mcb8575c05d" x="62.39" y="59.075275" style="stroke: #000000; stroke-width: 0.8"/>
      </g>
     </g>
     <g id="text_12">
      <!-- 0.75 -->
      <g transform="translate(33.124375 62.874494) scale(0.1 -0.1)">
       <use xlink:href="#DejaVuSans-30"/>
       <use xlink:href="#DejaVuSans-2e" transform="translate(63.623047 0)"/>
       <use xlink:href="#DejaVuSans-37" transform="translate(95.410156 0)"/>
       <use xlink:href="#DejaVuSans-35" transform="translate(159.033203 0)"/>
      </g>
     </g>
    </g>
    <g id="ytick_9">
     <g id="line2d_12">
      <g>
       <use xlink:href="#mcb8575c05d" x="62.39" y="33.280367" style="stroke: #000000; stroke-width: 0.8"/>
      </g>
     </g>
     <g id="text_13">
      <!-- 1.00 -->
      <g transform="translate(33.124375 37.079586) scale(0.1 -0.1)">
       <use xlink:href="#DejaVuSans-31"/>
       <use xlink:href="#DejaVuSans-2e" transform="translate(63.623047 0)"/>
       <use xlink:href="#DejaVuSans-30" transform="translate(95.410156 0)"/>
       <use xlink:href="#DejaVuSans-30" transform="translate(159.033203 0)"/>
      </g>
     </g>
    </g>
    <g id="text_14">
     <!-- Volatege (V) -->
     <g transform="translate(18.665 167.20375) rotate(-90) scale(0.1 -0.1)">
      <defs>
       <path id="DejaVuSans-56" d="M 1831 0 
L 50 4666 
L 709 4666 
L 2188 738 
L 3669 4666 
L 4325 4666 
L 2547 0 
L 1831 0 
z
" transform="scale(0.015625)"/>
       <path id="DejaVuSans-6f" d="M 1959 3097 
Q 1497 3097 1228 2736 
Q 959 2375 959 1747 
Q 959 1119 1226 758 
Q 1494 397 1959 397 
Q 2419 397 2687 759 
Q 2956 1122 2956 1747 
Q 2956 2369 2687 2733 
Q 2419 3097 1959 3097 
z
M 1959 3584 
Q 2709 3584 3137 3096 
Q 3566 2609 3566 1747 
Q 3566 888 3137 398 
Q 2709 -91 1959 -91 
Q 1206 -91 779 398 
Q 353 888 353 1747 
Q 353 2609 779 3096 
Q 1206 3584 1959 3584 
z
" transform="scale(0.015625)"/>
       <path id="DejaVuSans-6c" d="M 603 4863 
L 1178 4863 
L 1178 0 
L 603 0 
L 603 4863 
z
" transform="scale(0.015625)"/>
       <path id="DejaVuSans-61" d="M 2194 1759 
Q 1497 1759 1228 1600 
Q 959 1441 959 1056 
Q 959 750 1161 570 
Q 1363 391 1709 391 
Q 2188 391 2477 730 
Q 2766 1069 2766 1631 
L 2766 1759 
L 2194 1759 
z
M 3341 1997 
L 3341 0 
L 2766 0 
L 2766 531 
Q 2569 213 2275 61 
Q 1981 -91 1556 -91 
Q 1019 -91 701 211 
Q 384 513 384 1019 
Q 384 1609 779 1909 
Q 1175 2209 1959 2209 
L 2766 2209 
L 2766 2266 
Q 2766 2663 2505 2880 
Q 2244 3097 1772 3097 
Q 1472 3097 1187 3025 
Q 903 2953 641 2809 
L 641 3341 
Q 956 3463 1253 3523 
Q 1550 3584 1831 3584 
Q 2591 3584 2966 3190 
Q 3341 2797 3341 1997 
z
" transform="scale(0.015625)"/>
       <path id="DejaVuSans-74" d="M 1172 4494 
L 1172 3500 
L 2356 3500 
L 2356 3053 
L 1172 3053 
L 1172 1153 
Q 1172 725 1289 603 
Q 1406 481 1766 481 
L 2356 481 
L 2356 0 
L 1766 0 
Q 1100 0 847 248 
Q 594 497 594 1153 
L 594 3053 
L 172 3053 
L 172 3500 
L 594 3500 
L 594 4494 
L 1172 4494 
z
" transform="scale(0.015625)"/>
       <path id="DejaVuSans-67" d="M 2906 1791 
Q 2906 2416 2648 2759 
Q 2391 3103 1925 3103 
Q 1463 3103 1205 2759 
Q 947 2416 947 1791 
Q 947 1169 1205 825 
Q 1463 481 1925 481 
Q 2391 481 2648 825 
Q 2906 1169 2906 1791 
z
M 3481 434 
Q 3481 -459 3084 -895 
Q 2688 -1331 1869 -1331 
Q 1566 -1331 1297 -1286 
Q 1028 -1241 775 -1147 
L 775 -588 
Q 1028 -725 1275 -790 
Q 1522 -856 1778 -856 
Q 2344 -856 2625 -561 
Q 2906 -266 2906 331 
L 2906 616 
Q 2728 306 2450 153 
Q 2172 0 1784 0 
Q 1141 0 747 490 
Q 353 981 353 1791 
Q 353 2603 747 3093 
Q 1141 3584 1784 3584 
Q 2172 3584 2450 3431 
Q 2728 3278 2906 2969 
L 2906 3500 
L 3481 3500 
L 3481 434 
z
" transform="scale(0.015625)"/>
       <path id="DejaVuSans-28" d="M 1984 4856 
Q 1566 4138 1362 3434 
Q 1159 2731 1159 2009 
Q 1159 1288 1364 580 
Q 1569 -128 1984 -844 
L 1484 -844 
Q 1016 -109 783 600 
Q 550 1309 550 2009 
Q 550 2706 781 3412 
Q 1013 4119 1484 4856 
L 1984 4856 
z
" transform="scale(0.015625)"/>
       <path id="DejaVuSans-29" d="M 513 4856 
L 1013 4856 
Q 1481 4119 1714 3412 
Q 1947 2706 1947 2009 
Q 1947 1309 1714 600 
Q 1481 -109 1013 -844 
L 513 -844 
Q 928 -128 1133 580 
Q 1338 1288 1338 2009 
Q 1338 2731 1133 3434 
Q 928 4138 513 4856 
z
" transform="scale(0.015625)"/>
      </defs>
      <use xlink:href="#DejaVuSans-56"/>
      <use xlink:href="#DejaVuSans-6f" transform="translate(60.658203 0)"/>
      <use xlink:href="#DejaVuSans-6c" transform="translate(121.839844 0)"/>
      <use xlink:href="#DejaVuSans-61" transform="translate(149.623047 0)"/>
      <use xlink:href="#DejaVuSans-74" transform="translate(210.902344 0)"/>
      <use xlink:href="#DejaVuSans-65" transform="translate(250.111328 0)"/>
      <use xlink:href="#DejaVuSans-67" transform="translate(311.634766 0)"/>
      <use xlink:href="#DejaVuSans-65" transform="translate(375.111328 0)"/>
      <use xlink:href="#DejaVuSans-20" transform="translate(436.634766 0)"/>
      <use xlink:href="#DejaVuSans-28" transform="translate(468.421875 0)"/>
      <use xlink:href="#DejaVuSans-56" transform="translate(507.435547 0)"/>
      <use xlink:href="#DejaVuSans-29" transform="translate(575.84375 0)"/>
     </g>
    </g>
   </g>
   <g id="line2d_13">
    <path d="M 69.148003 136.46 
L 74.432853 55.84081 
L 75.754067 36.841818 
L 75.886188 43.604614 
L 76.018308 235.833398 
L 76.150429 235.680847 
L 76.546794 230.399588 
L 77.868006 209.892491 
L 80.246189 173.571609 
L 84.474076 109.065147 
L 88.569831 46.564445 
L 89.230435 37.051531 
L 89.362562 37.643091 
L 89.494674 233.878155 
L 89.626801 236.007545 
L 89.89104 233.256198 
L 98.478927 101.829758 
L 102.574682 38.948726 
L 102.838921 36.875692 
L 103.103173 236.044308 
L 103.235286 235.456421 
L 103.631652 229.960187 
L 104.820748 211.567912 
L 107.859532 165.035672 
L 112.219539 98.523366 
L 116.183167 37.995779 
L 116.315293 36.912455 
L 116.44742 39.041845 
L 116.579533 235.276909 
L 116.711659 235.868469 
L 116.975898 232.878685 
L 126.356516 89.36636 
L 129.923779 37.086602 
L 130.055905 229.315386 
L 130.188032 236.078182 
L 130.452271 233.620783 
L 132.301972 204.859151 
L 143.400152 36.841818 
L 143.532278 43.604614 
L 143.664404 235.833398 
L 143.796517 235.680847 
L 144.192883 230.399588 
L 145.514092 209.892491 
L 147.892285 173.571609 
L 152.120165 109.065147 
L 156.21592 46.564445 
L 156.876524 37.051531 
L 157.008651 37.643091 
L 157.140763 233.878155 
L 157.27289 236.007545 
L 157.537129 233.256198 
L 166.125016 101.829758 
L 170.220771 38.948726 
L 170.48501 36.875692 
L 170.749262 236.044308 
L 170.881375 235.456421 
L 171.277741 229.960187 
L 172.466837 211.567912 
L 175.505621 165.035672 
L 179.865628 98.523366 
L 183.82927 37.995779 
L 183.961382 36.912455 
L 184.093509 39.041845 
L 184.225622 235.276909 
L 184.357748 235.868469 
L 184.621987 232.878685 
L 194.002605 89.36636 
L 197.569881 37.086602 
L 197.701994 229.315386 
L 197.834121 236.078182 
L 198.09836 233.620783 
L 199.948061 204.859151 
L 204.308054 138.517801 
L 204.308054 138.517801 
" clip-path="url(#pef6d1ea536)" style="fill: none; stroke: #1f77b4; stroke-width: 1.5; stroke-linecap: square"/>
   </g>
   <g id="patch_3">
    <path d="M 62.39 246.04 
L 62.39 26.88 
" style="fill: none; stroke: #000000; stroke-width: 0.8; stroke-linejoin: miter; stroke-linecap: square"/>
   </g>
   <g id="patch_4">
    <path d="M 211.066057 246.04 
L 211.066057 26.88 
" style="fill: none; stroke: #000000; stroke-width: 0.8; stroke-linejoin: miter; stroke-linecap: square"/>
   </g>
   <g id="patch_5">
    <path d="M 62.39 246.04 
L 211.066057 246.04 
" style="fill: none; stroke: #000000; stroke-width: 0.8; stroke-linejoin: miter; stroke-linecap: square"/>
   </g>
   <g id="patch_6">
    <path d="M 62.39 26.88 
L 211.066057 26.88 
" style="fill: none; stroke: #000000; stroke-width: 0.8; stroke-linejoin: miter; stroke-linecap: square"/>
   </g>
   <g id="text_15">
    <!-- Raw Signal -->
    <g transform="translate(103.772091 20.88) scale(0.12 -0.12)">
     <defs>
      <path id="DejaVuSans-52" d="M 2841 2188 
Q 3044 2119 3236 1894 
Q 3428 1669 3622 1275 
L 4263 0 
L 3584 0 
L 2988 1197 
Q 2756 1666 2539 1819 
Q 2322 1972 1947 1972 
L 1259 1972 
L 1259 0 
L 628 0 
L 628 4666 
L 2053 4666 
Q 2853 4666 3247 4331 
Q 3641 3997 3641 3322 
Q 3641 2881 3436 2590 
Q 3231 2300 2841 2188 
z
M 1259 4147 
L 1259 2491 
L 2053 2491 
Q 2509 2491 2742 2702 
Q 2975 2913 2975 3322 
Q 2975 3731 2742 3939 
Q 2509 4147 2053 4147 
L 1259 4147 
z
" transform="scale(0.015625)"/>
      <path id="DejaVuSans-77" d="M 269 3500 
L 844 3500 
L 1563 769 
L 2278 3500 
L 2956 3500 
L 3675 769 
L 4391 3500 
L 4966 3500 
L 4050 0 
L 3372 0 
L 2619 2869 
L 1863 0 
L 1184 0 
L 269 3500 
z
" transform="scale(0.015625)"/>
      <path id="DejaVuSans-53" d="M 3425 4513 
L 3425 3897 
Q 3066 4069 2747 4153 
Q 2428 4238 2131 4238 
Q 1616 4238 1336 4038 
Q 1056 3838 1056 3469 
Q 1056 3159 1242 3001 
Q 1428 2844 1947 2747 
L 2328 2669 
Q 3034 2534 3370 2195 
Q 3706 1856 3706 1288 
Q 3706 609 3251 259 
Q 2797 -91 1919 -91 
Q 1588 -91 1214 -16 
Q 841 59 441 206 
L 441 856 
Q 825 641 1194 531 
Q 1563 422 1919 422 
Q 2459 422 2753 634 
Q 3047 847 3047 1241 
Q 3047 1584 2836 1778 
Q 2625 1972 2144 2069 
L 1759 2144 
Q 1053 2284 737 2584 
Q 422 2884 422 3419 
Q 422 4038 858 4394 
Q 1294 4750 2059 4750 
Q 2388 4750 2728 4690 
Q 3069 4631 3425 4513 
z
" transform="scale(0.015625)"/>
      <path id="DejaVuSans-6e" d="M 3513 2113 
L 3513 0 
L 2938 0 
L 2938 2094 
Q 2938 2591 2744 2837 
Q 2550 3084 2163 3084 
Q 1697 3084 1428 2787 
Q 1159 2491 1159 1978 
L 1159 0 
L 581 0 
L 581 3500 
L 1159 3500 
L 1159 2956 
Q 1366 3272 1645 3428 
Q 1925 3584 2291 3584 
Q 2894 3584 3203 3211 
Q 3513 2838 3513 2113 
z
" transform="scale(0.015625)"/>
     </defs>
     <use xlink:href="#DejaVuSans-52"/>
     <use xlink:href="#DejaVuSans-61" transform="translate(67.232422 0)"/>
     <use xlink:href="#DejaVuSans-77" transform="translate(128.511719 0)"/>
     <use xlink:href="#DejaVuSans-20" transform="translate(210.298828 0)"/>
     <use xlink:href="#DejaVuSans-53" transform="translate(242.085938 0)"/>
     <use xlink:href="#DejaVuSans-69" transform="translate(305.5625 0)"/>
     <use xlink:href="#DejaVuSans-67" transform="translate(333.345703 0)"/>
     <use xlink:href="#DejaVuSans-6e" transform="translate(396.822266 0)"/>
     <use xlink:href="#DejaVuSans-61" transform="translate(460.201172 0)"/>
     <use xlink:href="#DejaVuSans-6c" transform="translate(521.480469 0)"/>
    </g>
   </g>
  </g>
  <g id="axes_2">
   <g id="patch_7">
    <path d="M 272.523943 246.04 
L 421.2 246.04 
L 421.2 26.88 
L 272.523943 26.88 
z
" style="fill: #ffffff"/>
   </g>
   <g id="matplotlib.axis_3">
    <g id="xtick_4">
     <g id="line2d_14">
      <g>
       <use xlink:href="#m839a8dc4fa" x="272.523943" y="246.04" style="stroke: #000000; stroke-width: 0.8"/>
      </g>
     </g>
     <g id="text_16">
      <!-- 0 -->
      <g transform="translate(269.342693 260.638438) scale(0.1 -0.1)">
       <use xlink:href="#DejaVuSans-30"/>
      </g>
     </g>
    </g>
    <g id="xtick_5">
     <g id="line2d_15">
      <g>
       <use xlink:href="#m839a8dc4fa" x="330.600528" y="246.04" style="stroke: #000000; stroke-width: 0.8"/>
      </g>
     </g>
     <g id="text_17">
      <!-- 2 -->
      <g transform="translate(327.419278 260.638438) scale(0.1 -0.1)">
       <use xlink:href="#DejaVuSans-32"/>
      </g>
     </g>
    </g>
    <g id="xtick_6">
     <g id="line2d_16">
      <g>
       <use xlink:href="#m839a8dc4fa" x="388.677113" y="246.04" style="stroke: #000000; stroke-width: 0.8"/>
      </g>
     </g>
     <g id="text_18">
      <!-- 4 -->
      <g transform="translate(385.495863 260.638438) scale(0.1 -0.1)">
       <defs>
        <path id="DejaVuSans-34" d="M 2419 4116 
L 825 1625 
L 2419 1625 
L 2419 4116 
z
M 2253 4666 
L 3047 4666 
L 3047 1625 
L 3713 1625 
L 3713 1100 
L 3047 1100 
L 3047 0 
L 2419 0 
L 2419 1100 
L 313 1100 
L 313 1709 
L 2253 4666 
z
" transform="scale(0.015625)"/>
       </defs>
       <use xlink:href="#DejaVuSans-34"/>
      </g>
     </g>
    </g>
    <g id="text_19">
     <!-- Frequency [MHz] -->
     <g transform="translate(304.843222 274.316562) scale(0.1 -0.1)">
      <defs>
       <path id="DejaVuSans-46" d="M 628 4666 
L 3309 4666 
L 3309 4134 
L 1259 4134 
L 1259 2759 
L 3109 2759 
L 3109 2228 
L 1259 2228 
L 1259 0 
L 628 0 
L 628 4666 
z
" transform="scale(0.015625)"/>
       <path id="DejaVuSans-72" d="M 2631 2963 
Q 2534 3019 2420 3045 
Q 2306 3072 2169 3072 
Q 1681 3072 1420 2755 
Q 1159 2438 1159 1844 
L 1159 0 
L 581 0 
L 581 3500 
L 1159 3500 
L 1159 2956 
Q 1341 3275 1631 3429 
Q 1922 3584 2338 3584 
Q 2397 3584 2469 3576 
Q 2541 3569 2628 3553 
L 2631 2963 
z
" transform="scale(0.015625)"/>
       <path id="DejaVuSans-71" d="M 947 1747 
Q 947 1113 1208 752 
Q 1469 391 1925 391 
Q 2381 391 2643 752 
Q 2906 1113 2906 1747 
Q 2906 2381 2643 2742 
Q 2381 3103 1925 3103 
Q 1469 3103 1208 2742 
Q 947 2381 947 1747 
z
M 2906 525 
Q 2725 213 2448 61 
Q 2172 -91 1784 -91 
Q 1150 -91 751 415 
Q 353 922 353 1747 
Q 353 2572 751 3078 
Q 1150 3584 1784 3584 
Q 2172 3584 2448 3432 
Q 2725 3281 2906 2969 
L 2906 3500 
L 3481 3500 
L 3481 -1331 
L 2906 -1331 
L 2906 525 
z
" transform="scale(0.015625)"/>
       <path id="DejaVuSans-75" d="M 544 1381 
L 544 3500 
L 1119 3500 
L 1119 1403 
Q 1119 906 1312 657 
Q 1506 409 1894 409 
Q 2359 409 2629 706 
Q 2900 1003 2900 1516 
L 2900 3500 
L 3475 3500 
L 3475 0 
L 2900 0 
L 2900 538 
Q 2691 219 2414 64 
Q 2138 -91 1772 -91 
Q 1169 -91 856 284 
Q 544 659 544 1381 
z
M 1991 3584 
L 1991 3584 
z
" transform="scale(0.015625)"/>
       <path id="DejaVuSans-63" d="M 3122 3366 
L 3122 2828 
Q 2878 2963 2633 3030 
Q 2388 3097 2138 3097 
Q 1578 3097 1268 2742 
Q 959 2388 959 1747 
Q 959 1106 1268 751 
Q 1578 397 2138 397 
Q 2388 397 2633 464 
Q 2878 531 3122 666 
L 3122 134 
Q 2881 22 2623 -34 
Q 2366 -91 2075 -91 
Q 1284 -91 818 406 
Q 353 903 353 1747 
Q 353 2603 823 3093 
Q 1294 3584 2113 3584 
Q 2378 3584 2631 3529 
Q 2884 3475 3122 3366 
z
" transform="scale(0.015625)"/>
       <path id="DejaVuSans-79" d="M 2059 -325 
Q 1816 -950 1584 -1140 
Q 1353 -1331 966 -1331 
L 506 -1331 
L 506 -850 
L 844 -850 
Q 1081 -850 1212 -737 
Q 1344 -625 1503 -206 
L 1606 56 
L 191 3500 
L 800 3500 
L 1894 763 
L 2988 3500 
L 3597 3500 
L 2059 -325 
z
" transform="scale(0.015625)"/>
       <path id="DejaVuSans-4d" d="M 628 4666 
L 1569 4666 
L 2759 1491 
L 3956 4666 
L 4897 4666 
L 4897 0 
L 4281 0 
L 4281 4097 
L 3078 897 
L 2444 897 
L 1241 4097 
L 1241 0 
L 628 0 
L 628 4666 
z
" transform="scale(0.015625)"/>
       <path id="DejaVuSans-48" d="M 628 4666 
L 1259 4666 
L 1259 2753 
L 3553 2753 
L 3553 4666 
L 4184 4666 
L 4184 0 
L 3553 0 
L 3553 2222 
L 1259 2222 
L 1259 0 
L 628 0 
L 628 4666 
z
" transform="scale(0.015625)"/>
       <path id="DejaVuSans-7a" d="M 353 3500 
L 3084 3500 
L 3084 2975 
L 922 459 
L 3084 459 
L 3084 0 
L 275 0 
L 275 525 
L 2438 3041 
L 353 3041 
L 353 3500 
z
" transform="scale(0.015625)"/>
      </defs>
      <use xlink:href="#DejaVuSans-46"/>
      <use xlink:href="#DejaVuSans-72" transform="translate(50.269531 0)"/>
      <use xlink:href="#DejaVuSans-65" transform="translate(89.132812 0)"/>
      <use xlink:href="#DejaVuSans-71" transform="translate(150.65625 0)"/>
      <use xlink:href="#DejaVuSans-75" transform="translate(214.132812 0)"/>
      <use xlink:href="#DejaVuSans-65" transform="translate(277.511719 0)"/>
      <use xlink:href="#DejaVuSans-6e" transform="translate(339.035156 0)"/>
      <use xlink:href="#DejaVuSans-63" transform="translate(402.414062 0)"/>
      <use xlink:href="#DejaVuSans-79" transform="translate(457.394531 0)"/>
      <use xlink:href="#DejaVuSans-20" transform="translate(516.574219 0)"/>
      <use xlink:href="#DejaVuSans-5b" transform="translate(548.361328 0)"/>
      <use xlink:href="#DejaVuSans-4d" transform="translate(587.375 0)"/>
      <use xlink:href="#DejaVuSans-48" transform="translate(673.654297 0)"/>
      <use xlink:href="#DejaVuSans-7a" transform="translate(748.849609 0)"/>
      <use xlink:href="#DejaVuSans-5d" transform="translate(801.339844 0)"/>
     </g>
    </g>
   </g>
   <g id="matplotlib.axis_4">
    <g id="ytick_10">
     <g id="line2d_17">
      <g>
       <use xlink:href="#mcb8575c05d" x="272.523943" y="236.078182" style="stroke: #000000; stroke-width: 0.8"/>
      </g>
     </g>
     <g id="text_20">
      <!-- 0.00 -->
      <g transform="translate(243.258318 239.877401) scale(0.1 -0.1)">
       <use xlink:href="#DejaVuSans-30"/>
       <use xlink:href="#DejaVuSans-2e" transform="translate(63.623047 0)"/>
       <use xlink:href="#DejaVuSans-30" transform="translate(95.410156 0)"/>
       <use xlink:href="#DejaVuSans-30" transform="translate(159.033203 0)"/>
      </g>
     </g>
    </g>
    <g id="ytick_11">
     <g id="line2d_18">
      <g>
       <use xlink:href="#mcb8575c05d" x="272.523943" y="204.782208" style="stroke: #000000; stroke-width: 0.8"/>
      </g>
     </g>
     <g id="text_21">
      <!-- 0.05 -->
      <g transform="translate(243.258318 208.581427) scale(0.1 -0.1)">
       <use xlink:href="#DejaVuSans-30"/>
       <use xlink:href="#DejaVuSans-2e" transform="translate(63.623047 0)"/>
       <use xlink:href="#DejaVuSans-30" transform="translate(95.410156 0)"/>
       <use xlink:href="#DejaVuSans-35" transform="translate(159.033203 0)"/>
      </g>
     </g>
    </g>
    <g id="ytick_12">
     <g id="line2d_19">
      <g>
       <use xlink:href="#mcb8575c05d" x="272.523943" y="173.486235" style="stroke: #000000; stroke-width: 0.8"/>
      </g>
     </g>
     <g id="text_22">
      <!-- 0.10 -->
      <g transform="translate(243.258318 177.285454) scale(0.1 -0.1)">
       <use xlink:href="#DejaVuSans-30"/>
       <use xlink:href="#DejaVuSans-2e" transform="translate(63.623047 0)"/>
       <use xlink:href="#DejaVuSans-31" transform="translate(95.410156 0)"/>
       <use xlink:href="#DejaVuSans-30" transform="translate(159.033203 0)"/>
      </g>
     </g>
    </g>
    <g id="ytick_13">
     <g id="line2d_20">
      <g>
       <use xlink:href="#mcb8575c05d" x="272.523943" y="142.190261" style="stroke: #000000; stroke-width: 0.8"/>
      </g>
     </g>
     <g id="text_23">
      <!-- 0.15 -->
      <g transform="translate(243.258318 145.98948) scale(0.1 -0.1)">
       <use xlink:href="#DejaVuSans-30"/>
       <use xlink:href="#DejaVuSans-2e" transform="translate(63.623047 0)"/>
       <use xlink:href="#DejaVuSans-31" transform="translate(95.410156 0)"/>
       <use xlink:href="#DejaVuSans-35" transform="translate(159.033203 0)"/>
      </g>
     </g>
    </g>
    <g id="ytick_14">
     <g id="line2d_21">
      <g>
       <use xlink:href="#mcb8575c05d" x="272.523943" y="110.894288" style="stroke: #000000; stroke-width: 0.8"/>
      </g>
     </g>
     <g id="text_24">
      <!-- 0.20 -->
      <g transform="translate(243.258318 114.693507) scale(0.1 -0.1)">
       <use xlink:href="#DejaVuSans-30"/>
       <use xlink:href="#DejaVuSans-2e" transform="translate(63.623047 0)"/>
       <use xlink:href="#DejaVuSans-32" transform="translate(95.410156 0)"/>
       <use xlink:href="#DejaVuSans-30" transform="translate(159.033203 0)"/>
      </g>
     </g>
    </g>
    <g id="ytick_15">
     <g id="line2d_22">
      <g>
       <use xlink:href="#mcb8575c05d" x="272.523943" y="79.598315" style="stroke: #000000; stroke-width: 0.8"/>
      </g>
     </g>
     <g id="text_25">
      <!-- 0.25 -->
      <g transform="translate(243.258318 83.397533) scale(0.1 -0.1)">
       <use xlink:href="#DejaVuSans-30"/>
       <use xlink:href="#DejaVuSans-2e" transform="translate(63.623047 0)"/>
       <use xlink:href="#DejaVuSans-32" transform="translate(95.410156 0)"/>
       <use xlink:href="#DejaVuSans-35" transform="translate(159.033203 0)"/>
      </g>
     </g>
    </g>
    <g id="ytick_16">
     <g id="line2d_23">
      <g>
       <use xlink:href="#mcb8575c05d" x="272.523943" y="48.302341" style="stroke: #000000; stroke-width: 0.8"/>
      </g>
     </g>
     <g id="text_26">
      <!-- 0.30 -->
      <g transform="translate(243.258318 52.10156) scale(0.1 -0.1)">
       <defs>
        <path id="DejaVuSans-33" d="M 2597 2516 
Q 3050 2419 3304 2112 
Q 3559 1806 3559 1356 
Q 3559 666 3084 287 
Q 2609 -91 1734 -91 
Q 1441 -91 1130 -33 
Q 819 25 488 141 
L 488 750 
Q 750 597 1062 519 
Q 1375 441 1716 441 
Q 2309 441 2620 675 
Q 2931 909 2931 1356 
Q 2931 1769 2642 2001 
Q 2353 2234 1838 2234 
L 1294 2234 
L 1294 2753 
L 1863 2753 
Q 2328 2753 2575 2939 
Q 2822 3125 2822 3475 
Q 2822 3834 2567 4026 
Q 2313 4219 1838 4219 
Q 1578 4219 1281 4162 
Q 984 4106 628 3988 
L 628 4550 
Q 988 4650 1302 4700 
Q 1616 4750 1894 4750 
Q 2613 4750 3031 4423 
Q 3450 4097 3450 3541 
Q 3450 3153 3228 2886 
Q 3006 2619 2597 2516 
z
" transform="scale(0.015625)"/>
       </defs>
       <use xlink:href="#DejaVuSans-30"/>
       <use xlink:href="#DejaVuSans-2e" transform="translate(63.623047 0)"/>
       <use xlink:href="#DejaVuSans-33" transform="translate(95.410156 0)"/>
       <use xlink:href="#DejaVuSans-30" transform="translate(159.033203 0)"/>
      </g>
     </g>
    </g>
    <g id="text_27">
     <!-- Magnitude (V) -->
     <g transform="translate(237.178631 171.860781) rotate(-90) scale(0.1 -0.1)">
      <defs>
       <path id="DejaVuSans-64" d="M 2906 2969 
L 2906 4863 
L 3481 4863 
L 3481 0 
L 2906 0 
L 2906 525 
Q 2725 213 2448 61 
Q 2172 -91 1784 -91 
Q 1150 -91 751 415 
Q 353 922 353 1747 
Q 353 2572 751 3078 
Q 1150 3584 1784 3584 
Q 2172 3584 2448 3432 
Q 2725 3281 2906 2969 
z
M 947 1747 
Q 947 1113 1208 752 
Q 1469 391 1925 391 
Q 2381 391 2643 752 
Q 2906 1113 2906 1747 
Q 2906 2381 2643 2742 
Q 2381 3103 1925 3103 
Q 1469 3103 1208 2742 
Q 947 2381 947 1747 
z
" transform="scale(0.015625)"/>
      </defs>
      <use xlink:href="#DejaVuSans-4d"/>
      <use xlink:href="#DejaVuSans-61" transform="translate(86.279297 0)"/>
      <use xlink:href="#DejaVuSans-67" transform="translate(147.558594 0)"/>
      <use xlink:href="#DejaVuSans-6e" transform="translate(211.035156 0)"/>
      <use xlink:href="#DejaVuSans-69" transform="translate(274.414062 0)"/>
      <use xlink:href="#DejaVuSans-74" transform="translate(302.197266 0)"/>
      <use xlink:href="#DejaVuSans-75" transform="translate(341.40625 0)"/>
      <use xlink:href="#DejaVuSans-64" transform="translate(404.785156 0)"/>
      <use xlink:href="#DejaVuSans-65" transform="translate(468.261719 0)"/>
      <use xlink:href="#DejaVuSans-20" transform="translate(529.785156 0)"/>
      <use xlink:href="#DejaVuSans-28" transform="translate(561.572266 0)"/>
      <use xlink:href="#DejaVuSans-56" transform="translate(600.585938 0)"/>
      <use xlink:href="#DejaVuSans-29" transform="translate(668.994141 0)"/>
     </g>
    </g>
   </g>
   <g id="line2d_24">
    <path d="M 272.523943 236.078182 
L 272.814326 236.078182 
L 273.104709 235.755276 
L 273.395092 236.078182 
L 273.685475 234.610827 
L 273.975858 236.078182 
L 274.266241 234.630978 
L 274.556624 236.078182 
L 274.847007 235.748405 
L 275.13739 236.078182 
L 275.427772 36.841818 
L 275.718155 236.078182 
L 276.008538 235.762114 
L 276.298921 236.078182 
L 276.589304 234.590304 
L 276.879687 236.078182 
L 277.17007 234.650771 
L 277.460453 236.078182 
L 277.750836 235.7415 
L 278.041219 236.078182 
L 278.331602 136.460031 
L 278.621985 236.078182 
L 278.912368 235.768921 
L 279.20275 236.078182 
L 279.493133 234.569402 
L 279.783516 236.078182 
L 280.073899 234.670217 
L 280.364282 236.078182 
L 280.654665 235.734561 
L 280.945048 236.078182 
L 281.235431 169.666061 
L 281.525814 236.078182 
L 281.816197 235.775699 
L 282.10658 236.078182 
L 282.396963 234.548105 
L 282.687346 236.078182 
L 282.977728 234.689323 
L 283.268111 236.078182 
L 283.558494 235.727587 
L 283.848877 236.078182 
L 284.13926 186.269094 
L 284.429643 236.078182 
L 284.720026 235.782445 
L 285.010409 236.078182 
L 285.300792 234.526404 
L 285.591175 236.078182 
L 285.881558 234.708102 
L 286.171941 236.078182 
L 286.462324 235.720578 
L 286.752706 236.078182 
L 287.043089 196.230909 
L 287.333472 236.078182 
L 287.623855 235.78916 
L 287.914238 236.078182 
L 288.204621 234.504287 
L 288.495004 236.078182 
L 288.785387 234.72656 
L 289.07577 236.078182 
L 289.366153 235.713532 
L 289.656536 236.078182 
L 289.946919 202.872121 
L 290.237302 236.078182 
L 290.527684 235.795848 
L 290.818067 236.078182 
L 291.10845 234.481736 
L 291.398833 236.078182 
L 291.689216 234.744708 
L 291.979599 236.078182 
L 292.269982 235.706448 
L 292.560365 236.078182 
L 292.850748 207.615846 
L 293.141131 236.078182 
L 293.431514 235.802508 
L 293.721897 236.078182 
L 294.01228 234.458742 
L 294.302662 236.078182 
L 294.593045 234.762555 
L 294.883428 236.078182 
L 295.173811 235.699326 
L 295.464194 236.078182 
L 295.754577 211.173641 
L 296.04496 236.078182 
L 296.335343 235.809141 
L 296.625726 236.078182 
L 296.916109 234.435288 
L 297.206492 236.078182 
L 297.496875 234.780107 
L 297.787258 236.078182 
L 298.07764 235.692165 
L 298.368023 236.078182 
L 298.658406 213.940812 
L 298.948789 236.078182 
L 299.239172 235.81575 
L 299.529555 236.078182 
L 299.819938 234.41136 
L 300.110321 236.078182 
L 300.400704 234.797376 
L 300.691087 236.078182 
L 300.98147 235.684964 
L 301.271853 236.078182 
L 301.562236 216.154545 
L 301.852619 236.078182 
L 302.143001 235.822331 
L 302.433384 236.078182 
L 302.723767 234.386942 
L 303.01415 236.078182 
L 303.304533 234.814367 
L 303.594916 236.078182 
L 303.885299 235.67772 
L 304.175682 236.078182 
L 304.466065 217.965787 
L 304.756448 236.078182 
L 305.046831 235.828887 
L 305.337214 236.078182 
L 305.627597 234.362017 
L 305.917979 236.078182 
L 306.208362 234.831089 
L 306.498745 236.078182 
L 306.789128 235.670435 
L 307.079511 236.078182 
L 307.369894 219.873627 
L 307.660277 236.078182 
L 307.95066 235.835419 
L 308.241043 236.078182 
L 308.531426 234.336568 
L 308.821809 236.078182 
L 309.112192 234.847547 
L 309.402575 236.078182 
L 309.692957 235.663106 
L 309.98334 236.078182 
L 310.273723 221.15158 
L 310.564106 236.078182 
L 310.854489 235.841929 
L 311.144872 236.078182 
L 311.435255 234.310579 
L 311.725638 236.078182 
L 312.016021 234.863748 
L 312.306404 236.078182 
L 312.596787 235.655734 
L 312.88717 236.078182 
L 313.177553 222.247089 
L 313.467935 236.078182 
L 313.758318 235.848414 
L 314.048701 236.078182 
L 314.339084 234.284029 
L 314.629467 236.078182 
L 314.91985 234.879703 
L 315.210233 236.078182 
L 315.500616 235.648316 
L 315.790999 236.078182 
L 316.081382 223.196634 
L 316.371765 236.078182 
L 316.662148 235.854877 
L 316.952531 236.078182 
L 317.242913 234.256901 
L 317.533296 236.078182 
L 317.823679 234.895414 
L 318.114062 236.078182 
L 318.404445 235.640851 
L 318.694828 236.078182 
L 318.985211 224.027598 
L 319.275594 236.078182 
L 319.565977 235.861321 
L 319.85636 236.078182 
L 320.146743 234.229171 
L 320.437126 236.078182 
L 320.727509 234.91089 
L 321.017891 236.078182 
L 321.308274 235.633342 
L 321.598657 236.078182 
L 321.88904 224.760894 
L 322.179423 236.078182 
L 322.469806 235.867744 
L 322.760189 236.078182 
L 323.050572 234.20082 
L 323.340955 236.078182 
L 323.631338 234.926135 
L 323.921721 236.078182 
L 324.212104 235.625782 
L 324.502487 236.078182 
L 324.792869 225.412808 
L 325.083252 236.078182 
L 325.373635 235.874144 
L 325.664018 236.078182 
L 325.954401 234.171825 
L 326.244784 236.078182 
L 326.535167 234.941156 
L 326.82555 236.078182 
L 327.115933 235.618174 
L 327.406316 236.078182 
L 327.696699 225.99619 
L 327.987082 236.078182 
L 328.277465 235.880526 
L 328.567847 236.078182 
L 328.85823 234.142164 
L 329.148613 236.078182 
L 329.438996 234.95596 
L 329.729379 236.078182 
L 330.019762 235.610514 
L 330.310145 236.078182 
L 330.600528 226.521318 
L 330.890911 236.078182 
L 331.181294 235.886891 
L 331.471677 236.078182 
L 331.76206 234.111811 
L 332.052443 236.078182 
L 332.342825 234.97055 
L 332.633208 236.078182 
L 332.923591 235.602803 
L 333.213974 236.078182 
L 333.504357 226.99651 
L 333.79474 236.078182 
L 334.085123 235.893235 
L 334.375506 236.078182 
L 334.665889 234.080739 
L 334.956272 236.078182 
L 335.246655 234.984933 
L 335.537038 236.078182 
L 335.827421 235.59504 
L 336.117803 236.078182 
L 336.408186 227.428588 
L 336.698569 236.078182 
L 336.988952 235.899562 
L 337.279335 236.078182 
L 337.569718 234.048923 
L 337.860101 236.078182 
L 338.150484 234.999114 
L 338.440867 236.078182 
L 338.73125 235.587223 
L 339.021633 236.078182 
L 339.312016 227.823168 
L 339.602399 236.078182 
L 339.892781 235.905874 
L 340.183164 236.078182 
L 340.473547 234.016332 
L 340.76393 236.078182 
L 341.054313 235.013097 
L 341.344696 236.078182 
L 341.635079 235.579351 
L 341.925462 236.078182 
L 342.215845 228.184937 
L 342.506228 236.078182 
L 342.796611 235.91217 
L 343.086994 236.078182 
L 343.377377 233.982938 
L 343.667759 236.078182 
L 343.958142 235.02689 
L 344.248525 236.078182 
L 344.538908 235.571421 
L 344.829291 236.078182 
L 345.119674 228.517838 
L 345.410057 236.078182 
L 345.70044 235.918447 
L 345.990823 236.078182 
L 346.281206 233.948711 
L 346.571589 236.078182 
L 346.861972 235.040493 
L 347.152355 236.078182 
L 347.442737 235.563435 
L 347.73312 236.078182 
L 348.023503 228.825196 
L 348.313886 236.078182 
L 348.604269 235.924713 
L 348.894652 236.078182 
L 349.185035 233.913616 
L 349.475418 236.078182 
L 349.765801 235.053913 
L 350.056184 236.078182 
L 350.346567 235.555392 
L 350.63695 236.078182 
L 350.927333 229.109852 
L 351.217715 236.078182 
L 351.508098 235.930962 
L 351.798481 236.078182 
L 352.088864 233.877615 
L 352.379247 236.078182 
L 352.66963 235.067155 
L 352.960013 236.078182 
L 353.250396 235.547288 
L 353.540779 236.078182 
L 353.831162 229.37424 
L 354.121545 236.078182 
L 354.411928 235.937198 
L 354.702311 236.078182 
L 354.992693 233.840676 
L 355.283076 236.078182 
L 355.573459 235.080225 
L 355.863842 236.078182 
L 356.154225 235.539123 
L 356.444608 236.078182 
L 356.734991 229.620458 
L 357.025374 236.078182 
L 357.315757 235.943421 
L 357.60614 236.078182 
L 357.896523 233.802758 
L 358.186906 236.078182 
L 358.477289 235.093122 
L 358.767671 236.078182 
L 359.058054 235.530894 
L 359.348437 236.078182 
L 359.63882 229.850324 
L 359.929203 236.078182 
L 360.219586 235.949631 
L 360.509969 236.078182 
L 360.800352 233.763821 
L 361.090735 236.078182 
L 361.381118 235.105853 
L 361.671501 236.078182 
L 361.961884 235.522601 
L 362.252267 236.078182 
L 362.542649 230.065416 
L 362.833032 236.078182 
L 363.123415 235.95583 
L 363.413798 236.078182 
L 363.704181 233.723819 
L 363.994564 236.078182 
L 364.284947 235.118424 
L 364.57533 236.078182 
L 364.865713 235.514245 
L 365.156096 236.078182 
L 365.446479 230.267124 
L 365.736862 236.078182 
L 366.027245 235.962016 
L 366.317627 236.078182 
L 366.60801 233.682709 
L 366.898393 236.078182 
L 367.188776 235.130835 
L 367.479159 236.078182 
L 367.769542 235.505821 
L 368.059925 236.078182 
L 368.350308 230.45666 
L 368.640691 236.078182 
L 368.931074 235.968195 
L 369.221457 236.078182 
L 369.51184 233.64044 
L 369.802223 236.078182 
L 370.092605 235.143093 
L 370.382988 236.078182 
L 370.673371 235.497327 
L 370.963754 236.078182 
L 371.254137 230.635101 
L 371.54452 236.078182 
L 371.834903 235.97436 
L 372.125286 236.078182 
L 372.415669 233.596964 
L 372.706052 236.078182 
L 372.996435 235.155197 
L 373.286818 236.078182 
L 373.577201 235.488766 
L 373.867583 236.078182 
L 374.157966 230.803401 
L 374.448349 236.078182 
L 374.738732 235.980517 
L 375.029115 236.078182 
L 375.319498 233.552227 
L 375.609881 236.078182 
L 375.900264 235.167157 
L 376.190647 236.078182 
L 376.48103 235.480133 
L 376.771413 236.078182 
L 377.061796 230.962402 
L 377.352179 236.078182 
L 377.642561 235.986665 
L 377.932944 236.078182 
L 378.223327 233.506169 
L 378.51371 236.078182 
L 378.804093 235.178972 
L 379.094476 236.078182 
L 379.384859 235.471427 
L 379.675242 236.078182 
L 379.965625 231.112859 
L 380.256008 236.078182 
L 380.546391 235.992803 
L 380.836774 236.078182 
L 381.127157 233.458727 
L 381.41754 236.078182 
L 381.707922 235.190647 
L 381.998305 236.078182 
L 382.288688 235.462646 
L 382.579071 236.078182 
L 382.869454 231.255449 
L 383.159837 236.078182 
L 383.45022 235.998936 
L 383.740603 236.078182 
L 384.030986 233.409837 
L 384.321369 236.078182 
L 384.611752 235.202184 
L 384.902135 236.078182 
L 385.192518 235.45379 
L 385.4829 236.078182 
L 385.773283 231.390775 
L 386.063666 236.078182 
L 386.354049 236.005057 
L 386.644432 236.078182 
L 386.934815 233.359434 
L 387.225198 236.078182 
L 387.515581 235.213585 
L 387.805964 236.078182 
L 388.096347 235.444857 
L 388.38673 236.078182 
L 388.677113 231.519383 
L 388.967496 236.078182 
L 389.257878 236.011174 
L 389.548261 236.078182 
L 389.838644 233.30744 
L 390.129027 236.078182 
L 390.41941 235.224856 
L 390.709793 236.078182 
L 391.000176 235.435844 
L 391.290559 236.078182 
L 391.580942 231.641765 
L 391.871325 236.078182 
L 392.161708 236.017287 
L 392.452091 236.078182 
L 392.742474 233.253777 
L 393.032856 236.078182 
L 393.323239 235.235999 
L 393.613622 236.078182 
L 393.904005 235.426752 
L 394.194388 236.078182 
L 394.484771 231.758365 
L 394.775154 236.078182 
L 395.35592 236.078182 
L 395.646303 233.198365 
L 395.936686 236.078182 
L 396.227069 235.247017 
L 396.517452 236.078182 
L 396.807834 235.417576 
L 397.098217 236.078182 
L 397.3886 231.869589 
L 397.678983 236.078182 
L 398.259749 236.078182 
L 398.550132 233.14111 
L 398.840515 236.078182 
L 399.130898 235.257911 
L 399.421281 236.078182 
L 399.711664 235.408315 
L 400.002047 236.078182 
L 400.29243 231.975802 
L 400.582812 236.078182 
L 401.163578 236.078182 
L 401.453961 233.081918 
L 401.744344 236.078182 
L 402.034727 235.268685 
L 402.32511 236.078182 
L 402.615493 235.398965 
L 402.905876 236.078182 
L 403.196259 232.077338 
L 403.486642 236.078182 
L 404.067408 236.078182 
L 404.35779 233.020689 
L 404.648173 236.078182 
L 404.938556 235.279343 
L 405.228939 236.078182 
L 405.519322 235.389533 
L 405.809705 236.078182 
L 406.100088 232.174502 
L 406.390471 236.078182 
L 406.971237 236.078182 
L 407.26162 232.957312 
L 407.552003 236.078182 
L 407.842386 235.289885 
L 408.132768 236.078182 
L 408.423151 235.380008 
L 408.713534 236.078182 
L 409.003917 232.267575 
L 409.2943 236.078182 
L 409.875066 236.078182 
L 410.165449 232.891668 
L 410.455832 236.078182 
L 410.746215 235.300315 
L 411.036598 236.078182 
L 411.326981 235.370389 
L 411.617364 236.078182 
L 411.907746 232.356813 
L 412.198129 236.078182 
L 412.778895 236.078182 
L 413.069278 232.823633 
L 413.359661 236.078182 
L 413.650044 235.310638 
L 413.940427 236.078182 
L 414.23081 235.360678 
L 414.521193 236.078182 
L 414.811576 232.442448 
L 415.101959 236.078182 
L 415.682724 236.078182 
L 415.973107 232.753072 
L 416.26349 236.078182 
L 416.553873 235.320852 
L 416.844256 236.078182 
L 417.134639 235.350871 
L 417.425022 236.078182 
L 417.715405 232.524702 
L 418.005788 236.078182 
L 418.586554 236.078182 
L 418.876937 232.679836 
L 419.16732 236.078182 
L 419.457702 235.33096 
L 419.748085 236.078182 
L 420.038468 235.340967 
L 420.328851 236.078182 
L 420.619234 232.60377 
L 420.909617 236.078182 
L 421.490383 236.078182 
L 421.490383 236.078182 
" clip-path="url(#pcff1df5827)" style="fill: none; stroke: #1f77b4; stroke-width: 1.5; stroke-linecap: square"/>
   </g>
   <g id="patch_8">
    <path d="M 272.523943 246.04 
L 272.523943 26.88 
" style="fill: none; stroke: #000000; stroke-width: 0.8; stroke-linejoin: miter; stroke-linecap: square"/>
   </g>
   <g id="patch_9">
    <path d="M 421.2 246.04 
L 421.2 26.88 
" style="fill: none; stroke: #000000; stroke-width: 0.8; stroke-linejoin: miter; stroke-linecap: square"/>
   </g>
   <g id="patch_10">
    <path d="M 272.523943 246.04 
L 421.2 246.04 
" style="fill: none; stroke: #000000; stroke-width: 0.8; stroke-linejoin: miter; stroke-linecap: square"/>
   </g>
   <g id="patch_11">
    <path d="M 272.523943 26.88 
L 421.2 26.88 
" style="fill: none; stroke: #000000; stroke-width: 0.8; stroke-linejoin: miter; stroke-linecap: square"/>
   </g>
   <g id="text_28">
    <!-- FFT of Signal -->
    <g transform="translate(308.371972 20.88) scale(0.12 -0.12)">
     <defs>
      <path id="DejaVuSans-66" d="M 2375 4863 
L 2375 4384 
L 1825 4384 
Q 1516 4384 1395 4259 
Q 1275 4134 1275 3809 
L 1275 3500 
L 2222 3500 
L 2222 3053 
L 1275 3053 
L 1275 0 
L 697 0 
L 697 3053 
L 147 3053 
L 147 3500 
L 697 3500 
L 697 3744 
Q 697 4328 969 4595 
Q 1241 4863 1831 4863 
L 2375 4863 
z
" transform="scale(0.015625)"/>
     </defs>
     <use xlink:href="#DejaVuSans-46"/>
     <use xlink:href="#DejaVuSans-46" transform="translate(57.519531 0)"/>
     <use xlink:href="#DejaVuSans-54" transform="translate(113.289062 0)"/>
     <use xlink:href="#DejaVuSans-20" transform="translate(174.373047 0)"/>
     <use xlink:href="#DejaVuSans-6f" transform="translate(206.160156 0)"/>
     <use xlink:href="#DejaVuSans-66" transform="translate(267.341797 0)"/>
     <use xlink:href="#DejaVuSans-20" transform="translate(302.546875 0)"/>
     <use xlink:href="#DejaVuSans-53" transform="translate(334.333984 0)"/>
     <use xlink:href="#DejaVuSans-69" transform="translate(397.810547 0)"/>
     <use xlink:href="#DejaVuSans-67" transform="translate(425.59375 0)"/>
     <use xlink:href="#DejaVuSans-6e" transform="translate(489.070312 0)"/>
     <use xlink:href="#DejaVuSans-61" transform="translate(552.449219 0)"/>
     <use xlink:href="#DejaVuSans-6c" transform="translate(613.728516 0)"/>
    </g>
   </g>
  </g>
 </g>
 <defs>
  <clipPath id="pef6d1ea536">
   <rect x="62.39" y="26.88" width="148.676057" height="219.16"/>
  </clipPath>
  <clipPath id="pcff1df5827">
   <rect x="272.523943" y="26.88" width="148.676057" height="219.16"/>
  </clipPath>
 </defs>
</svg>
