<?xml version="1.0" encoding="utf-8" standalone="no"?>
<!DOCTYPE svg PUBLIC "-//W3C//DTD SVG 1.1//EN"
  "http://www.w3.org/Graphics/SVG/1.1/DTD/svg11.dtd">
<svg xmlns:xlink="http://www.w3.org/1999/xlink" width="432pt" height="288pt" viewBox="0 0 432 288" xmlns="http://www.w3.org/2000/svg" version="1.1">
 <metadata>
  <rdf:RDF xmlns:dc="http://purl.org/dc/elements/1.1/" xmlns:cc="http://creativecommons.org/ns#" xmlns:rdf="http://www.w3.org/1999/02/22-rdf-syntax-ns#">
   <cc:Work>
    <dc:type rdf:resource="http://purl.org/dc/dcmitype/StillImage"/>
    <dc:date>2025-10-27T10:51:15.288955</dc:date>
    <dc:format>image/svg+xml</dc:format>
    <dc:creator>
     <cc:Agent>
      <dc:title>Matplotlib v3.10.6, https://matplotlib.org/</dc:title>
     </cc:Agent>
    </dc:creator>
   </cc:Work>
  </rdf:RDF>
 </metadata>
 <defs>
  <style type="text/css">*{stroke-linejoin: round; stroke-linecap: butt}</style>
 </defs>
 <g id="figure_1">
  <g id="patch_1">
   <path d="M 0 288 
L 432 288 
L 432 0 
L 0 0 
z
" style="fill: #ffffff"/>
  </g>
  <g id="axes_1">
   <g id="patch_2">
    <path d="M 56.09 246.04 
L 211.066057 246.04 
L 211.066057 26.88 
L 56.09 26.88 
z
" style="fill: #ffffff"/>
   </g>
   <g id="matplotlib.axis_1">
    <g id="xtick_1">
     <g id="line2d_1">
      <defs>
       <path id="mb8d9ecf0c1" d="M 0 0 
L 0 3.5 
" style="stroke: #000000; stroke-width: 0.8"/>
      </defs>
      <g>
       <use xlink:href="#mb8d9ecf0c1" x="63.134366" y="246.04" style="stroke: #000000; stroke-width: 0.8"/>
      </g>
     </g>
     <g id="text_1">
      <!-- 0.000 -->
      <g transform="translate(48.820304 260.638438) scale(0.1 -0.1)">
       <defs>
        <path id="DejaVuSans-30" d="M 2034 4250 
Q 1547 4250 1301 3770 
Q 1056 3291 1056 2328 
Q 1056 1369 1301 889 
Q 1547 409 2034 409 
Q 2525 409 2770 889 
Q 3016 1369 3016 2328 
Q 3016 3291 2770 3770 
Q 2525 4250 2034 4250 
z
M 2034 4750 
Q 2819 4750 3233 4129 
Q 3647 3509 3647 2328 
Q 3647 1150 3233 529 
Q 2819 -91 2034 -91 
Q 1250 -91 836 529 
Q 422 1150 422 2328 
Q 422 3509 836 4129 
Q 1250 4750 2034 4750 
z
" transform="scale(0.015625)"/>
        <path id="DejaVuSans-2e" d="M 684 794 
L 1344 794 
L 1344 0 
L 684 0 
L 684 794 
z
" transform="scale(0.015625)"/>
       </defs>
       <use xlink:href="#DejaVuSans-30"/>
       <use xlink:href="#DejaVuSans-2e" transform="translate(63.623047 0)"/>
       <use xlink:href="#DejaVuSans-30" transform="translate(95.410156 0)"/>
       <use xlink:href="#DejaVuSans-30" transform="translate(159.033203 0)"/>
       <use xlink:href="#DejaVuSans-30" transform="translate(222.65625 0)"/>
      </g>
     </g>
    </g>
    <g id="xtick_2">
     <g id="line2d_2">
      <g>
       <use xlink:href="#mb8d9ecf0c1" x="98.390629" y="246.04" style="stroke: #000000; stroke-width: 0.8"/>
      </g>
     </g>
     <g id="text_2">
      <!-- 0.025 -->
      <g transform="translate(84.076566 260.638438) scale(0.1 -0.1)">
       <defs>
        <path id="DejaVuSans-32" d="M 1228 531 
L 3431 531 
L 3431 0 
L 469 0 
L 469 531 
Q 828 903 1448 1529 
Q 2069 2156 2228 2338 
Q 2531 2678 2651 2914 
Q 2772 3150 2772 3378 
Q 2772 3750 2511 3984 
Q 2250 4219 1831 4219 
Q 1534 4219 1204 4116 
Q 875 4013 500 3803 
L 500 4441 
Q 881 4594 1212 4672 
Q 1544 4750 1819 4750 
Q 2544 4750 2975 4387 
Q 3406 4025 3406 3419 
Q 3406 3131 3298 2873 
Q 3191 2616 2906 2266 
Q 2828 2175 2409 1742 
Q 1991 1309 1228 531 
z
" transform="scale(0.015625)"/>
        <path id="DejaVuSans-35" d="M 691 4666 
L 3169 4666 
L 3169 4134 
L 1269 4134 
L 1269 2991 
Q 1406 3038 1543 3061 
Q 1681 3084 1819 3084 
Q 2600 3084 3056 2656 
Q 3513 2228 3513 1497 
Q 3513 744 3044 326 
Q 2575 -91 1722 -91 
Q 1428 -91 1123 -41 
Q 819 9 494 109 
L 494 744 
Q 775 591 1075 516 
Q 1375 441 1709 441 
Q 2250 441 2565 725 
Q 2881 1009 2881 1497 
Q 2881 1984 2565 2268 
Q 2250 2553 1709 2553 
Q 1456 2553 1204 2497 
Q 953 2441 691 2322 
L 691 4666 
z
" transform="scale(0.015625)"/>
       </defs>
       <use xlink:href="#DejaVuSans-30"/>
       <use xlink:href="#DejaVuSans-2e" transform="translate(63.623047 0)"/>
       <use xlink:href="#DejaVuSans-30" transform="translate(95.410156 0)"/>
       <use xlink:href="#DejaVuSans-32" transform="translate(159.033203 0)"/>
       <use xlink:href="#DejaVuSans-35" transform="translate(222.65625 0)"/>
      </g>
     </g>
    </g>
    <g id="xtick_3">
     <g id="line2d_3">
      <g>
       <use xlink:href="#mb8d9ecf0c1" x="133.646891" y="246.04" style="stroke: #000000; stroke-width: 0.8"/>
      </g>
     </g>
     <g id="text_3">
      <!-- 0.050 -->
      <g transform="translate(119.332828 260.638438) scale(0.1 -0.1)">
       <use xlink:href="#DejaVuSans-30"/>
       <use xlink:href="#DejaVuSans-2e" transform="translate(63.623047 0)"/>
       <use xlink:href="#DejaVuSans-30" transform="translate(95.410156 0)"/>
       <use xlink:href="#DejaVuSans-35" transform="translate(159.033203 0)"/>
       <use xlink:href="#DejaVuSans-30" transform="translate(222.65625 0)"/>
      </g>
     </g>
    </g>
    <g id="xtick_4">
     <g id="line2d_4">
      <g>
       <use xlink:href="#mb8d9ecf0c1" x="168.903153" y="246.04" style="stroke: #000000; stroke-width: 0.8"/>
      </g>
     </g>
     <g id="text_4">
      <!-- 0.075 -->
      <g transform="translate(154.589091 260.638438) scale(0.1 -0.1)">
       <defs>
        <path id="DejaVuSans-37" d="M 525 4666 
L 3525 4666 
L 3525 4397 
L 1831 0 
L 1172 0 
L 2766 4134 
L 525 4134 
L 525 4666 
z
" transform="scale(0.015625)"/>
       </defs>
       <use xlink:href="#DejaVuSans-30"/>
       <use xlink:href="#DejaVuSans-2e" transform="translate(63.623047 0)"/>
       <use xlink:href="#DejaVuSans-30" transform="translate(95.410156 0)"/>
       <use xlink:href="#DejaVuSans-37" transform="translate(159.033203 0)"/>
       <use xlink:href="#DejaVuSans-35" transform="translate(222.65625 0)"/>
      </g>
     </g>
    </g>
    <g id="xtick_5">
     <g id="line2d_5">
      <g>
       <use xlink:href="#mb8d9ecf0c1" x="204.159416" y="246.04" style="stroke: #000000; stroke-width: 0.8"/>
      </g>
     </g>
     <g id="text_5">
      <!-- 0.100 -->
      <g transform="translate(189.845353 260.638438) scale(0.1 -0.1)">
       <defs>
        <path id="DejaVuSans-31" d="M 794 531 
L 1825 531 
L 1825 4091 
L 703 3866 
L 703 4441 
L 1819 4666 
L 2450 4666 
L 2450 531 
L 3481 531 
L 3481 0 
L 794 0 
L 794 531 
z
" transform="scale(0.015625)"/>
       </defs>
       <use xlink:href="#DejaVuSans-30"/>
       <use xlink:href="#DejaVuSans-2e" transform="translate(63.623047 0)"/>
       <use xlink:href="#DejaVuSans-31" transform="translate(95.410156 0)"/>
       <use xlink:href="#DejaVuSans-30" transform="translate(159.033203 0)"/>
       <use xlink:href="#DejaVuSans-30" transform="translate(222.65625 0)"/>
      </g>
     </g>
    </g>
    <g id="text_6">
     <!-- Time (ms) -->
     <g transform="translate(108.37881 274.316562) scale(0.1 -0.1)">
      <defs>
       <path id="DejaVuSans-54" d="M -19 4666 
L 3928 4666 
L 3928 4134 
L 2272 4134 
L 2272 0 
L 1638 0 
L 1638 4134 
L -19 4134 
L -19 4666 
z
" transform="scale(0.015625)"/>
       <path id="DejaVuSans-69" d="M 603 3500 
L 1178 3500 
L 1178 0 
L 603 0 
L 603 3500 
z
M 603 4863 
L 1178 4863 
L 1178 4134 
L 603 4134 
L 603 4863 
z
" transform="scale(0.015625)"/>
       <path id="DejaVuSans-6d" d="M 3328 2828 
Q 3544 3216 3844 3400 
Q 4144 3584 4550 3584 
Q 5097 3584 5394 3201 
Q 5691 2819 5691 2113 
L 5691 0 
L 5113 0 
L 5113 2094 
Q 5113 2597 4934 2840 
Q 4756 3084 4391 3084 
Q 3944 3084 3684 2787 
Q 3425 2491 3425 1978 
L 3425 0 
L 2847 0 
L 2847 2094 
Q 2847 2600 2669 2842 
Q 2491 3084 2119 3084 
Q 1678 3084 1418 2786 
Q 1159 2488 1159 1978 
L 1159 0 
L 581 0 
L 581 3500 
L 1159 3500 
L 1159 2956 
Q 1356 3278 1631 3431 
Q 1906 3584 2284 3584 
Q 2666 3584 2933 3390 
Q 3200 3197 3328 2828 
z
" transform="scale(0.015625)"/>
       <path id="DejaVuSans-65" d="M 3597 1894 
L 3597 1613 
L 953 1613 
Q 991 1019 1311 708 
Q 1631 397 2203 397 
Q 2534 397 2845 478 
Q 3156 559 3463 722 
L 3463 178 
Q 3153 47 2828 -22 
Q 2503 -91 2169 -91 
Q 1331 -91 842 396 
Q 353 884 353 1716 
Q 353 2575 817 3079 
Q 1281 3584 2069 3584 
Q 2775 3584 3186 3129 
Q 3597 2675 3597 1894 
z
M 3022 2063 
Q 3016 2534 2758 2815 
Q 2500 3097 2075 3097 
Q 1594 3097 1305 2825 
Q 1016 2553 972 2059 
L 3022 2063 
z
" transform="scale(0.015625)"/>
       <path id="DejaVuSans-20" transform="scale(0.015625)"/>
       <path id="DejaVuSans-28" d="M 1984 4856 
Q 1566 4138 1362 3434 
Q 1159 2731 1159 2009 
Q 1159 1288 1364 580 
Q 1569 -128 1984 -844 
L 1484 -844 
Q 1016 -109 783 600 
Q 550 1309 550 2009 
Q 550 2706 781 3412 
Q 1013 4119 1484 4856 
L 1984 4856 
z
" transform="scale(0.015625)"/>
       <path id="DejaVuSans-73" d="M 2834 3397 
L 2834 2853 
Q 2591 2978 2328 3040 
Q 2066 3103 1784 3103 
Q 1356 3103 1142 2972 
Q 928 2841 928 2578 
Q 928 2378 1081 2264 
Q 1234 2150 1697 2047 
L 1894 2003 
Q 2506 1872 2764 1633 
Q 3022 1394 3022 966 
Q 3022 478 2636 193 
Q 2250 -91 1575 -91 
Q 1294 -91 989 -36 
Q 684 19 347 128 
L 347 722 
Q 666 556 975 473 
Q 1284 391 1588 391 
Q 1994 391 2212 530 
Q 2431 669 2431 922 
Q 2431 1156 2273 1281 
Q 2116 1406 1581 1522 
L 1381 1569 
Q 847 1681 609 1914 
Q 372 2147 372 2553 
Q 372 3047 722 3315 
Q 1072 3584 1716 3584 
Q 2034 3584 2315 3537 
Q 2597 3491 2834 3397 
z
" transform="scale(0.015625)"/>
       <path id="DejaVuSans-29" d="M 513 4856 
L 1013 4856 
Q 1481 4119 1714 3412 
Q 1947 2706 1947 2009 
Q 1947 1309 1714 600 
Q 1481 -109 1013 -844 
L 513 -844 
Q 928 -128 1133 580 
Q 1338 1288 1338 2009 
Q 1338 2731 1133 3434 
Q 928 4138 513 4856 
z
" transform="scale(0.015625)"/>
      </defs>
      <use xlink:href="#DejaVuSans-54"/>
      <use xlink:href="#DejaVuSans-69" transform="translate(57.958984 0)"/>
      <use xlink:href="#DejaVuSans-6d" transform="translate(85.742188 0)"/>
      <use xlink:href="#DejaVuSans-65" transform="translate(183.154297 0)"/>
      <use xlink:href="#DejaVuSans-20" transform="translate(244.677734 0)"/>
      <use xlink:href="#DejaVuSans-28" transform="translate(276.464844 0)"/>
      <use xlink:href="#DejaVuSans-6d" transform="translate(315.478516 0)"/>
      <use xlink:href="#DejaVuSans-73" transform="translate(412.890625 0)"/>
      <use xlink:href="#DejaVuSans-29" transform="translate(464.990234 0)"/>
     </g>
    </g>
   </g>
   <g id="matplotlib.axis_2">
    <g id="ytick_1">
     <g id="line2d_6">
      <defs>
       <path id="md70523b171" d="M 0 0 
L -3.5 0 
" style="stroke: #000000; stroke-width: 0.8"/>
      </defs>
      <g>
       <use xlink:href="#md70523b171" x="56.09" y="233.298999" style="stroke: #000000; stroke-width: 0.8"/>
      </g>
     </g>
     <g id="text_7">
      <!-- −1.0 -->
      <g transform="translate(24.807188 237.098218) scale(0.1 -0.1)">
       <defs>
        <path id="DejaVuSans-2212" d="M 678 2272 
L 4684 2272 
L 4684 1741 
L 678 1741 
L 678 2272 
z
" transform="scale(0.015625)"/>
       </defs>
       <use xlink:href="#DejaVuSans-2212"/>
       <use xlink:href="#DejaVuSans-31" transform="translate(83.789062 0)"/>
       <use xlink:href="#DejaVuSans-2e" transform="translate(147.412109 0)"/>
       <use xlink:href="#DejaVuSans-30" transform="translate(179.199219 0)"/>
      </g>
     </g>
    </g>
    <g id="ytick_2">
     <g id="line2d_7">
      <g>
       <use xlink:href="#md70523b171" x="56.09" y="184.8795" style="stroke: #000000; stroke-width: 0.8"/>
      </g>
     </g>
     <g id="text_8">
      <!-- −0.5 -->
      <g transform="translate(24.807188 188.678718) scale(0.1 -0.1)">
       <use xlink:href="#DejaVuSans-2212"/>
       <use xlink:href="#DejaVuSans-30" transform="translate(83.789062 0)"/>
       <use xlink:href="#DejaVuSans-2e" transform="translate(147.412109 0)"/>
       <use xlink:href="#DejaVuSans-35" transform="translate(179.199219 0)"/>
      </g>
     </g>
    </g>
    <g id="ytick_3">
     <g id="line2d_8">
      <g>
       <use xlink:href="#md70523b171" x="56.09" y="136.46" style="stroke: #000000; stroke-width: 0.8"/>
      </g>
     </g>
     <g id="text_9">
      <!-- 0.0 -->
      <g transform="translate(33.186875 140.259219) scale(0.1 -0.1)">
       <use xlink:href="#DejaVuSans-30"/>
       <use xlink:href="#DejaVuSans-2e" transform="translate(63.623047 0)"/>
       <use xlink:href="#DejaVuSans-30" transform="translate(95.410156 0)"/>
      </g>
     </g>
    </g>
    <g id="ytick_4">
     <g id="line2d_9">
      <g>
       <use xlink:href="#md70523b171" x="56.09" y="88.0405" style="stroke: #000000; stroke-width: 0.8"/>
      </g>
     </g>
     <g id="text_10">
      <!-- 0.5 -->
      <g transform="translate(33.186875 91.839719) scale(0.1 -0.1)">
       <use xlink:href="#DejaVuSans-30"/>
       <use xlink:href="#DejaVuSans-2e" transform="translate(63.623047 0)"/>
       <use xlink:href="#DejaVuSans-35" transform="translate(95.410156 0)"/>
      </g>
     </g>
    </g>
    <g id="ytick_5">
     <g id="line2d_10">
      <g>
       <use xlink:href="#md70523b171" x="56.09" y="39.621001" style="stroke: #000000; stroke-width: 0.8"/>
      </g>
     </g>
     <g id="text_11">
      <!-- 1.0 -->
      <g transform="translate(33.186875 43.420219) scale(0.1 -0.1)">
       <use xlink:href="#DejaVuSans-31"/>
       <use xlink:href="#DejaVuSans-2e" transform="translate(63.623047 0)"/>
       <use xlink:href="#DejaVuSans-30" transform="translate(95.410156 0)"/>
      </g>
     </g>
    </g>
    <g id="text_12">
     <!-- Voltage (V) -->
     <g transform="translate(18.7275 164.127187) rotate(-90) scale(0.1 -0.1)">
      <defs>
       <path id="DejaVuSans-56" d="M 1831 0 
L 50 4666 
L 709 4666 
L 2188 738 
L 3669 4666 
L 4325 4666 
L 2547 0 
L 1831 0 
z
" transform="scale(0.015625)"/>
       <path id="DejaVuSans-6f" d="M 1959 3097 
Q 1497 3097 1228 2736 
Q 959 2375 959 1747 
Q 959 1119 1226 758 
Q 1494 397 1959 397 
Q 2419 397 2687 759 
Q 2956 1122 2956 1747 
Q 2956 2369 2687 2733 
Q 2419 3097 1959 3097 
z
M 1959 3584 
Q 2709 3584 3137 3096 
Q 3566 2609 3566 1747 
Q 3566 888 3137 398 
Q 2709 -91 1959 -91 
Q 1206 -91 779 398 
Q 353 888 353 1747 
Q 353 2609 779 3096 
Q 1206 3584 1959 3584 
z
" transform="scale(0.015625)"/>
       <path id="DejaVuSans-6c" d="M 603 4863 
L 1178 4863 
L 1178 0 
L 603 0 
L 603 4863 
z
" transform="scale(0.015625)"/>
       <path id="DejaVuSans-74" d="M 1172 4494 
L 1172 3500 
L 2356 3500 
L 2356 3053 
L 1172 3053 
L 1172 1153 
Q 1172 725 1289 603 
Q 1406 481 1766 481 
L 2356 481 
L 2356 0 
L 1766 0 
Q 1100 0 847 248 
Q 594 497 594 1153 
L 594 3053 
L 172 3053 
L 172 3500 
L 594 3500 
L 594 4494 
L 1172 4494 
z
" transform="scale(0.015625)"/>
       <path id="DejaVuSans-61" d="M 2194 1759 
Q 1497 1759 1228 1600 
Q 959 1441 959 1056 
Q 959 750 1161 570 
Q 1363 391 1709 391 
Q 2188 391 2477 730 
Q 2766 1069 2766 1631 
L 2766 1759 
L 2194 1759 
z
M 3341 1997 
L 3341 0 
L 2766 0 
L 2766 531 
Q 2569 213 2275 61 
Q 1981 -91 1556 -91 
Q 1019 -91 701 211 
Q 384 513 384 1019 
Q 384 1609 779 1909 
Q 1175 2209 1959 2209 
L 2766 2209 
L 2766 2266 
Q 2766 2663 2505 2880 
Q 2244 3097 1772 3097 
Q 1472 3097 1187 3025 
Q 903 2953 641 2809 
L 641 3341 
Q 956 3463 1253 3523 
Q 1550 3584 1831 3584 
Q 2591 3584 2966 3190 
Q 3341 2797 3341 1997 
z
" transform="scale(0.015625)"/>
       <path id="DejaVuSans-67" d="M 2906 1791 
Q 2906 2416 2648 2759 
Q 2391 3103 1925 3103 
Q 1463 3103 1205 2759 
Q 947 2416 947 1791 
Q 947 1169 1205 825 
Q 1463 481 1925 481 
Q 2391 481 2648 825 
Q 2906 1169 2906 1791 
z
M 3481 434 
Q 3481 -459 3084 -895 
Q 2688 -1331 1869 -1331 
Q 1566 -1331 1297 -1286 
Q 1028 -1241 775 -1147 
L 775 -588 
Q 1028 -725 1275 -790 
Q 1522 -856 1778 -856 
Q 2344 -856 2625 -561 
Q 2906 -266 2906 331 
L 2906 616 
Q 2728 306 2450 153 
Q 2172 0 1784 0 
Q 1141 0 747 490 
Q 353 981 353 1791 
Q 353 2603 747 3093 
Q 1141 3584 1784 3584 
Q 2172 3584 2450 3431 
Q 2728 3278 2906 2969 
L 2906 3500 
L 3481 3500 
L 3481 434 
z
" transform="scale(0.015625)"/>
      </defs>
      <use xlink:href="#DejaVuSans-56"/>
      <use xlink:href="#DejaVuSans-6f" transform="translate(60.658203 0)"/>
      <use xlink:href="#DejaVuSans-6c" transform="translate(121.839844 0)"/>
      <use xlink:href="#DejaVuSans-74" transform="translate(149.623047 0)"/>
      <use xlink:href="#DejaVuSans-61" transform="translate(188.832031 0)"/>
      <use xlink:href="#DejaVuSans-67" transform="translate(250.111328 0)"/>
      <use xlink:href="#DejaVuSans-65" transform="translate(313.587891 0)"/>
      <use xlink:href="#DejaVuSans-20" transform="translate(375.111328 0)"/>
      <use xlink:href="#DejaVuSans-28" transform="translate(406.898438 0)"/>
      <use xlink:href="#DejaVuSans-56" transform="translate(445.912109 0)"/>
      <use xlink:href="#DejaVuSans-29" transform="translate(514.320312 0)"/>
     </g>
    </g>
   </g>
   <g id="line2d_11">
    <path d="M 63.134366 136.46 
L 63.272086 40.647455 
L 63.547526 39.123636 
L 63.685245 39.231417 
L 64.098405 39.866633 
L 64.649284 39.463734 
L 65.062442 39.754125 
L 65.337883 39.620904 
L 65.613323 39.508183 
L 66.164202 39.708543 
L 66.57736 39.518642 
L 67.26596 39.64185 
L 67.541399 39.509829 
L 68.229998 39.660162 
L 68.505438 39.470803 
L 68.780877 39.637793 
L 69.056317 39.825098 
L 69.331756 39.491624 
L 69.469475 39.300076 
L 69.607196 39.307726 
L 69.744915 39.616546 
L 70.020356 40.99563 
L 70.158075 44.362035 
L 70.295795 234.163675 
L 70.433514 234.19476 
L 70.846674 233.047354 
L 70.984393 233.005664 
L 71.535272 233.458977 
L 71.948432 233.153692 
L 72.63703 233.332506 
L 72.912471 233.189901 
L 73.601069 233.338316 
L 73.876509 233.197958 
L 74.151948 233.298961 
L 74.427388 233.405135 
L 74.978268 233.197803 
L 75.391426 233.438544 
L 75.666866 233.252972 
L 75.942305 233.132601 
L 76.493184 233.500521 
L 76.906344 232.6492 
L 77.044063 232.929491 
L 77.181784 235.374356 
L 77.319498 36.841818 
L 77.594948 39.691044 
L 77.732659 40.012811 
L 77.870384 39.973388 
L 78.283545 39.396722 
L 78.558981 39.621465 
L 78.834417 39.775226 
L 79.385303 39.516608 
L 79.798464 39.73346 
L 80.349336 39.52881 
L 80.762497 39.723747 
L 81.451095 39.589625 
L 81.726531 39.73346 
L 82.001981 39.609283 
L 82.277417 39.495013 
L 82.828289 39.752411 
L 83.24145 39.396722 
L 83.379175 39.497144 
L 83.792336 40.012811 
L 83.930047 39.691044 
L 84.067772 38.892675 
L 84.205497 36.841818 
L 84.343208 235.374356 
L 84.480933 232.929491 
L 84.618658 232.6492 
L 84.894094 233.226118 
L 85.16953 233.567534 
L 85.720416 233.139796 
L 86.133563 233.438544 
L 86.822175 233.255586 
L 87.097611 233.405135 
L 87.373047 233.298961 
L 87.648483 233.197958 
L 88.199369 233.385767 
L 88.61253 233.189901 
L 89.301127 233.324565 
L 89.576563 233.153692 
L 89.851999 233.331247 
L 90.127435 233.483865 
L 90.678321 233.047354 
L 90.953757 233.795396 
L 91.091482 234.19476 
L 91.229207 234.163675 
L 91.366918 44.362035 
L 91.642354 40.205056 
L 91.917804 39.307726 
L 92.055515 39.300076 
L 92.468676 39.825098 
L 92.744113 39.637793 
L 93.019563 39.470803 
L 93.570435 39.729044 
L 93.983596 39.509829 
L 94.672193 39.650924 
L 94.947629 39.518642 
L 95.636226 39.662825 
L 95.911676 39.508183 
L 96.187112 39.620904 
L 96.462548 39.754125 
L 97.013434 39.472353 
L 97.426595 39.866633 
L 97.564306 39.78063 
L 97.977467 39.123636 
L 98.115193 39.446206 
L 98.252903 40.647455 
L 98.528354 232.272545 
L 98.80379 233.796364 
L 98.941515 233.688583 
L 99.354662 233.053367 
L 99.905548 233.456266 
L 100.318709 233.165875 
L 100.594145 233.299096 
L 100.869581 233.411817 
L 101.420467 233.211457 
L 101.833628 233.401358 
L 102.522225 233.27815 
L 102.797661 233.410171 
L 103.486258 233.259838 
L 103.761694 233.449197 
L 104.037145 233.282207 
L 104.312581 233.094902 
L 104.588017 233.428376 
L 104.725742 233.619924 
L 104.863453 233.612274 
L 105.001178 233.303454 
L 105.276614 231.92437 
L 105.414339 228.557965 
L 105.552064 38.756325 
L 105.689775 38.72524 
L 106.102936 39.872646 
L 106.240661 39.914336 
L 106.791533 39.461023 
L 107.204694 39.766308 
L 107.893291 39.587494 
L 108.168727 39.730099 
L 108.857338 39.581684 
L 109.132775 39.722042 
L 109.408211 39.621039 
L 109.683647 39.514865 
L 110.234533 39.722197 
L 110.647694 39.481456 
L 110.92313 39.667028 
L 111.198566 39.787399 
L 111.749452 39.419479 
L 112.162599 40.2708 
L 112.300324 39.990509 
L 112.438049 37.545644 
L 112.57576 236.078182 
L 112.85121 233.228956 
L 112.988921 232.907189 
L 113.126646 232.946612 
L 113.539807 233.523278 
L 113.815243 233.298535 
L 114.090679 233.144774 
L 114.641566 233.403392 
L 115.054727 233.18654 
L 115.605599 233.39119 
L 116.01876 233.196253 
L 116.707357 233.330375 
L 116.982793 233.18654 
L 117.258243 233.310717 
L 117.533679 233.424987 
L 118.084551 233.167589 
L 118.497712 233.523278 
L 118.635437 233.422856 
L 119.048598 232.907189 
L 119.186309 233.228956 
L 119.324034 234.027325 
L 119.461759 236.078182 
L 119.59947 37.545644 
L 119.737195 39.990509 
L 119.87492 40.2708 
L 120.150357 39.693882 
L 120.425793 39.352466 
L 120.976679 39.780204 
L 121.389826 39.481456 
L 122.078437 39.664414 
L 122.353873 39.514865 
L 122.629309 39.621039 
L 122.904745 39.722042 
L 123.455631 39.534233 
L 123.868792 39.730099 
L 124.557389 39.595435 
L 124.832825 39.766308 
L 125.108261 39.588753 
L 125.383711 39.436135 
L 125.934584 39.872646 
L 126.21002 39.124604 
L 126.347745 38.72524 
L 126.485456 38.756325 
L 126.623181 228.557965 
L 126.898617 232.714944 
L 127.174067 233.612274 
L 127.311778 233.619924 
L 127.724939 233.094902 
L 128.000375 233.282207 
L 128.275825 233.449197 
L 128.826697 233.190956 
L 129.239858 233.410171 
L 129.928455 233.269076 
L 130.203891 233.401358 
L 130.892502 233.257175 
L 131.167938 233.411817 
L 131.443375 233.299096 
L 131.718811 233.165875 
L 132.269697 233.447647 
L 132.682858 233.053367 
L 132.820569 233.13937 
L 133.23373 233.796364 
L 133.371455 233.473794 
L 133.509166 232.272545 
L 133.784616 40.647455 
L 134.060052 39.123636 
L 134.197777 39.231417 
L 134.610924 39.866633 
L 135.16181 39.463734 
L 135.574971 39.754125 
L 135.850407 39.620904 
L 136.125843 39.508183 
L 136.676729 39.708543 
L 137.089891 39.518642 
L 137.778488 39.64185 
L 138.053924 39.509829 
L 138.742521 39.660162 
L 139.017957 39.470803 
L 139.293407 39.637793 
L 139.568843 39.825098 
L 139.844279 39.491624 
L 139.982004 39.300076 
L 140.119715 39.307726 
L 140.25744 39.616546 
L 140.532876 40.99563 
L 140.670601 44.362035 
L 140.808326 234.163675 
L 140.946037 234.19476 
L 141.359198 233.047354 
L 141.496923 233.005664 
L 142.047795 233.458977 
L 142.460956 233.153692 
L 143.149554 233.332506 
L 143.42499 233.189901 
L 144.113601 233.338316 
L 144.389037 233.197958 
L 144.664473 233.298961 
L 144.939909 233.405135 
L 145.490795 233.197803 
L 145.903956 233.438544 
L 146.179392 233.252972 
L 146.454828 233.132601 
L 147.005714 233.500521 
L 147.418875 232.6492 
L 147.556586 232.929491 
L 147.694311 235.374356 
L 147.832022 36.841818 
L 148.107473 39.691044 
L 148.245184 40.012811 
L 148.382909 39.973388 
L 148.79607 39.396722 
L 149.071506 39.621465 
L 149.346942 39.775226 
L 149.897828 39.516608 
L 150.310989 39.73346 
L 150.861861 39.52881 
L 151.275022 39.723747 
L 151.963619 39.589625 
L 152.239055 39.73346 
L 152.514505 39.609283 
L 152.789941 39.495013 
L 153.340813 39.752411 
L 153.753975 39.396722 
L 153.8917 39.497144 
L 154.304861 40.012811 
L 154.442572 39.691044 
L 154.580297 38.892675 
L 154.718022 36.841818 
L 154.855733 235.374356 
L 154.993458 232.929491 
L 155.131169 232.6492 
L 155.406619 233.226118 
L 155.682055 233.567534 
L 156.232941 233.139796 
L 156.646088 233.438544 
L 157.334699 233.255586 
L 157.610135 233.405135 
L 157.885571 233.298961 
L 158.161007 233.197958 
L 158.711893 233.385767 
L 159.125055 233.189901 
L 159.813652 233.324565 
L 160.089088 233.153692 
L 160.364524 233.331247 
L 160.639974 233.483865 
L 161.190846 233.047354 
L 161.466282 233.795396 
L 161.604007 234.19476 
L 161.741718 234.163675 
L 161.879443 44.362035 
L 162.154879 40.205056 
L 162.430329 39.307726 
L 162.56804 39.300076 
L 162.981201 39.825098 
L 163.256637 39.637793 
L 163.532087 39.470803 
L 164.082959 39.729044 
L 164.49612 39.509829 
L 165.184718 39.650924 
L 165.460154 39.518642 
L 166.148765 39.662825 
L 166.424201 39.508183 
L 166.699637 39.620904 
L 166.975073 39.754125 
L 167.525959 39.472353 
L 167.93912 39.866633 
L 168.076831 39.78063 
L 168.489992 39.123636 
L 168.627717 39.446206 
L 168.765428 40.647455 
L 169.040878 232.272545 
L 169.316314 233.796364 
L 169.454039 233.688583 
L 169.867186 233.053367 
L 170.418073 233.456266 
L 170.831234 233.165875 
L 171.10667 233.299096 
L 171.382106 233.411817 
L 171.932992 233.211457 
L 172.346153 233.401358 
L 173.03475 233.27815 
L 173.310186 233.410171 
L 173.998783 233.259838 
L 174.274219 233.449197 
L 174.549669 233.282207 
L 174.825105 233.094902 
L 175.100541 233.428376 
L 175.238266 233.619924 
L 175.375977 233.612274 
L 175.513702 233.303454 
L 175.789138 231.92437 
L 175.926864 228.557965 
L 176.064589 38.756325 
L 176.2023 38.72524 
L 176.615461 39.872646 
L 176.753186 39.914336 
L 177.304058 39.461023 
L 177.717219 39.766308 
L 178.405816 39.587494 
L 178.681252 39.730099 
L 179.369863 39.581684 
L 179.645299 39.722042 
L 179.920735 39.621039 
L 180.196171 39.514865 
L 180.747057 39.722197 
L 181.160219 39.481456 
L 181.435655 39.667028 
L 181.711091 39.787399 
L 182.261977 39.419479 
L 182.675138 40.2708 
L 182.812849 39.990509 
L 182.950574 37.545644 
L 183.088285 236.078182 
L 183.363735 233.228956 
L 183.501446 232.907189 
L 183.639171 232.946612 
L 184.052332 233.523278 
L 184.327768 233.298535 
L 184.603204 233.144774 
L 185.15409 233.403392 
L 185.567251 233.18654 
L 186.118123 233.39119 
L 186.531284 233.196253 
L 187.219882 233.330375 
L 187.495318 233.18654 
L 187.770768 233.310717 
L 188.046204 233.424987 
L 188.597076 233.167589 
L 189.010237 233.523278 
L 189.147962 233.422856 
L 189.561123 232.907189 
L 189.698834 233.228956 
L 189.836559 234.027325 
L 189.974284 236.078182 
L 190.111995 37.545644 
L 190.24972 39.990509 
L 190.387445 40.2708 
L 190.662881 39.693882 
L 190.938317 39.352466 
L 191.489203 39.780204 
L 191.90235 39.481456 
L 192.590962 39.664414 
L 192.866398 39.514865 
L 193.141834 39.621039 
L 193.41727 39.722042 
L 193.968156 39.534233 
L 194.381317 39.730099 
L 195.069914 39.595435 
L 195.34535 39.766308 
L 195.620786 39.588753 
L 195.896222 39.436135 
L 196.447108 39.872646 
L 196.722544 39.124604 
L 196.860269 38.72524 
L 196.997994 38.756325 
L 197.135705 228.557965 
L 197.411141 232.714944 
L 197.686591 233.612274 
L 197.824302 233.619924 
L 198.237464 233.094902 
L 198.5129 233.282207 
L 198.78835 233.449197 
L 199.339222 233.190956 
L 199.752383 233.410171 
L 200.44098 233.269076 
L 200.716416 233.401358 
L 201.405027 233.257175 
L 201.680463 233.411817 
L 201.955899 233.299096 
L 202.231335 233.165875 
L 202.782221 233.447647 
L 203.195382 233.053367 
L 203.333093 233.13937 
L 203.746255 233.796364 
L 203.88398 233.473794 
L 204.021691 232.272545 
L 204.021691 232.272545 
" clip-path="url(#p08438234dc)" style="fill: none; stroke: #1f77b4; stroke-width: 1.5; stroke-linecap: square"/>
   </g>
   <g id="patch_3">
    <path d="M 56.09 246.04 
L 56.09 26.88 
" style="fill: none; stroke: #000000; stroke-width: 0.8; stroke-linejoin: miter; stroke-linecap: square"/>
   </g>
   <g id="patch_4">
    <path d="M 211.066057 246.04 
L 211.066057 26.88 
" style="fill: none; stroke: #000000; stroke-width: 0.8; stroke-linejoin: miter; stroke-linecap: square"/>
   </g>
   <g id="patch_5">
    <path d="M 56.09 246.04 
L 211.066057 246.04 
" style="fill: none; stroke: #000000; stroke-width: 0.8; stroke-linejoin: miter; stroke-linecap: square"/>
   </g>
   <g id="patch_6">
    <path d="M 56.09 26.88 
L 211.066057 26.88 
" style="fill: none; stroke: #000000; stroke-width: 0.8; stroke-linejoin: miter; stroke-linecap: square"/>
   </g>
   <g id="text_13">
    <!-- Raw Signal -->
    <g transform="translate(100.622091 20.88) scale(0.12 -0.12)">
     <defs>
      <path id="DejaVuSans-52" d="M 2841 2188 
Q 3044 2119 3236 1894 
Q 3428 1669 3622 1275 
L 4263 0 
L 3584 0 
L 2988 1197 
Q 2756 1666 2539 1819 
Q 2322 1972 1947 1972 
L 1259 1972 
L 1259 0 
L 628 0 
L 628 4666 
L 2053 4666 
Q 2853 4666 3247 4331 
Q 3641 3997 3641 3322 
Q 3641 2881 3436 2590 
Q 3231 2300 2841 2188 
z
M 1259 4147 
L 1259 2491 
L 2053 2491 
Q 2509 2491 2742 2702 
Q 2975 2913 2975 3322 
Q 2975 3731 2742 3939 
Q 2509 4147 2053 4147 
L 1259 4147 
z
" transform="scale(0.015625)"/>
      <path id="DejaVuSans-77" d="M 269 3500 
L 844 3500 
L 1563 769 
L 2278 3500 
L 2956 3500 
L 3675 769 
L 4391 3500 
L 4966 3500 
L 4050 0 
L 3372 0 
L 2619 2869 
L 1863 0 
L 1184 0 
L 269 3500 
z
" transform="scale(0.015625)"/>
      <path id="DejaVuSans-53" d="M 3425 4513 
L 3425 3897 
Q 3066 4069 2747 4153 
Q 2428 4238 2131 4238 
Q 1616 4238 1336 4038 
Q 1056 3838 1056 3469 
Q 1056 3159 1242 3001 
Q 1428 2844 1947 2747 
L 2328 2669 
Q 3034 2534 3370 2195 
Q 3706 1856 3706 1288 
Q 3706 609 3251 259 
Q 2797 -91 1919 -91 
Q 1588 -91 1214 -16 
Q 841 59 441 206 
L 441 856 
Q 825 641 1194 531 
Q 1563 422 1919 422 
Q 2459 422 2753 634 
Q 3047 847 3047 1241 
Q 3047 1584 2836 1778 
Q 2625 1972 2144 2069 
L 1759 2144 
Q 1053 2284 737 2584 
Q 422 2884 422 3419 
Q 422 4038 858 4394 
Q 1294 4750 2059 4750 
Q 2388 4750 2728 4690 
Q 3069 4631 3425 4513 
z
" transform="scale(0.015625)"/>
      <path id="DejaVuSans-6e" d="M 3513 2113 
L 3513 0 
L 2938 0 
L 2938 2094 
Q 2938 2591 2744 2837 
Q 2550 3084 2163 3084 
Q 1697 3084 1428 2787 
Q 1159 2491 1159 1978 
L 1159 0 
L 581 0 
L 581 3500 
L 1159 3500 
L 1159 2956 
Q 1366 3272 1645 3428 
Q 1925 3584 2291 3584 
Q 2894 3584 3203 3211 
Q 3513 2838 3513 2113 
z
" transform="scale(0.015625)"/>
     </defs>
     <use xlink:href="#DejaVuSans-52"/>
     <use xlink:href="#DejaVuSans-61" transform="translate(67.232422 0)"/>
     <use xlink:href="#DejaVuSans-77" transform="translate(128.511719 0)"/>
     <use xlink:href="#DejaVuSans-20" transform="translate(210.298828 0)"/>
     <use xlink:href="#DejaVuSans-53" transform="translate(242.085938 0)"/>
     <use xlink:href="#DejaVuSans-69" transform="translate(305.5625 0)"/>
     <use xlink:href="#DejaVuSans-67" transform="translate(333.345703 0)"/>
     <use xlink:href="#DejaVuSans-6e" transform="translate(396.822266 0)"/>
     <use xlink:href="#DejaVuSans-61" transform="translate(460.201172 0)"/>
     <use xlink:href="#DejaVuSans-6c" transform="translate(521.480469 0)"/>
    </g>
   </g>
  </g>
  <g id="axes_2">
   <g id="patch_7">
    <path d="M 266.223943 246.04 
L 421.2 246.04 
L 421.2 26.88 
L 266.223943 26.88 
z
" style="fill: #ffffff"/>
   </g>
   <g id="matplotlib.axis_3">
    <g id="xtick_6">
     <g id="line2d_12">
      <g>
       <use xlink:href="#mb8d9ecf0c1" x="266.223943" y="246.04" style="stroke: #000000; stroke-width: 0.8"/>
      </g>
     </g>
     <g id="text_14">
      <!-- 0 -->
      <g transform="translate(263.042693 260.638438) scale(0.1 -0.1)">
       <use xlink:href="#DejaVuSans-30"/>
      </g>
     </g>
    </g>
    <g id="xtick_7">
     <g id="line2d_13">
      <g>
       <use xlink:href="#mb8d9ecf0c1" x="326.761465" y="246.04" style="stroke: #000000; stroke-width: 0.8"/>
      </g>
     </g>
     <g id="text_15">
      <!-- 2 -->
      <g transform="translate(323.580215 260.638438) scale(0.1 -0.1)">
       <use xlink:href="#DejaVuSans-32"/>
      </g>
     </g>
    </g>
    <g id="xtick_8">
     <g id="line2d_14">
      <g>
       <use xlink:href="#mb8d9ecf0c1" x="387.298988" y="246.04" style="stroke: #000000; stroke-width: 0.8"/>
      </g>
     </g>
     <g id="text_16">
      <!-- 4 -->
      <g transform="translate(384.117738 260.638438) scale(0.1 -0.1)">
       <defs>
        <path id="DejaVuSans-34" d="M 2419 4116 
L 825 1625 
L 2419 1625 
L 2419 4116 
z
M 2253 4666 
L 3047 4666 
L 3047 1625 
L 3713 1625 
L 3713 1100 
L 3047 1100 
L 3047 0 
L 2419 0 
L 2419 1100 
L 313 1100 
L 313 1709 
L 2253 4666 
z
" transform="scale(0.015625)"/>
       </defs>
       <use xlink:href="#DejaVuSans-34"/>
      </g>
     </g>
    </g>
    <g id="text_17">
     <!-- Frequency (MHz) -->
     <g transform="translate(301.693222 274.316562) scale(0.1 -0.1)">
      <defs>
       <path id="DejaVuSans-46" d="M 628 4666 
L 3309 4666 
L 3309 4134 
L 1259 4134 
L 1259 2759 
L 3109 2759 
L 3109 2228 
L 1259 2228 
L 1259 0 
L 628 0 
L 628 4666 
z
" transform="scale(0.015625)"/>
       <path id="DejaVuSans-72" d="M 2631 2963 
Q 2534 3019 2420 3045 
Q 2306 3072 2169 3072 
Q 1681 3072 1420 2755 
Q 1159 2438 1159 1844 
L 1159 0 
L 581 0 
L 581 3500 
L 1159 3500 
L 1159 2956 
Q 1341 3275 1631 3429 
Q 1922 3584 2338 3584 
Q 2397 3584 2469 3576 
Q 2541 3569 2628 3553 
L 2631 2963 
z
" transform="scale(0.015625)"/>
       <path id="DejaVuSans-71" d="M 947 1747 
Q 947 1113 1208 752 
Q 1469 391 1925 391 
Q 2381 391 2643 752 
Q 2906 1113 2906 1747 
Q 2906 2381 2643 2742 
Q 2381 3103 1925 3103 
Q 1469 3103 1208 2742 
Q 947 2381 947 1747 
z
M 2906 525 
Q 2725 213 2448 61 
Q 2172 -91 1784 -91 
Q 1150 -91 751 415 
Q 353 922 353 1747 
Q 353 2572 751 3078 
Q 1150 3584 1784 3584 
Q 2172 3584 2448 3432 
Q 2725 3281 2906 2969 
L 2906 3500 
L 3481 3500 
L 3481 -1331 
L 2906 -1331 
L 2906 525 
z
" transform="scale(0.015625)"/>
       <path id="DejaVuSans-75" d="M 544 1381 
L 544 3500 
L 1119 3500 
L 1119 1403 
Q 1119 906 1312 657 
Q 1506 409 1894 409 
Q 2359 409 2629 706 
Q 2900 1003 2900 1516 
L 2900 3500 
L 3475 3500 
L 3475 0 
L 2900 0 
L 2900 538 
Q 2691 219 2414 64 
Q 2138 -91 1772 -91 
Q 1169 -91 856 284 
Q 544 659 544 1381 
z
M 1991 3584 
L 1991 3584 
z
" transform="scale(0.015625)"/>
       <path id="DejaVuSans-63" d="M 3122 3366 
L 3122 2828 
Q 2878 2963 2633 3030 
Q 2388 3097 2138 3097 
Q 1578 3097 1268 2742 
Q 959 2388 959 1747 
Q 959 1106 1268 751 
Q 1578 397 2138 397 
Q 2388 397 2633 464 
Q 2878 531 3122 666 
L 3122 134 
Q 2881 22 2623 -34 
Q 2366 -91 2075 -91 
Q 1284 -91 818 406 
Q 353 903 353 1747 
Q 353 2603 823 3093 
Q 1294 3584 2113 3584 
Q 2378 3584 2631 3529 
Q 2884 3475 3122 3366 
z
" transform="scale(0.015625)"/>
       <path id="DejaVuSans-79" d="M 2059 -325 
Q 1816 -950 1584 -1140 
Q 1353 -1331 966 -1331 
L 506 -1331 
L 506 -850 
L 844 -850 
Q 1081 -850 1212 -737 
Q 1344 -625 1503 -206 
L 1606 56 
L 191 3500 
L 800 3500 
L 1894 763 
L 2988 3500 
L 3597 3500 
L 2059 -325 
z
" transform="scale(0.015625)"/>
       <path id="DejaVuSans-4d" d="M 628 4666 
L 1569 4666 
L 2759 1491 
L 3956 4666 
L 4897 4666 
L 4897 0 
L 4281 0 
L 4281 4097 
L 3078 897 
L 2444 897 
L 1241 4097 
L 1241 0 
L 628 0 
L 628 4666 
z
" transform="scale(0.015625)"/>
       <path id="DejaVuSans-48" d="M 628 4666 
L 1259 4666 
L 1259 2753 
L 3553 2753 
L 3553 4666 
L 4184 4666 
L 4184 0 
L 3553 0 
L 3553 2222 
L 1259 2222 
L 1259 0 
L 628 0 
L 628 4666 
z
" transform="scale(0.015625)"/>
       <path id="DejaVuSans-7a" d="M 353 3500 
L 3084 3500 
L 3084 2975 
L 922 459 
L 3084 459 
L 3084 0 
L 275 0 
L 275 525 
L 2438 3041 
L 353 3041 
L 353 3500 
z
" transform="scale(0.015625)"/>
      </defs>
      <use xlink:href="#DejaVuSans-46"/>
      <use xlink:href="#DejaVuSans-72" transform="translate(50.269531 0)"/>
      <use xlink:href="#DejaVuSans-65" transform="translate(89.132812 0)"/>
      <use xlink:href="#DejaVuSans-71" transform="translate(150.65625 0)"/>
      <use xlink:href="#DejaVuSans-75" transform="translate(214.132812 0)"/>
      <use xlink:href="#DejaVuSans-65" transform="translate(277.511719 0)"/>
      <use xlink:href="#DejaVuSans-6e" transform="translate(339.035156 0)"/>
      <use xlink:href="#DejaVuSans-63" transform="translate(402.414062 0)"/>
      <use xlink:href="#DejaVuSans-79" transform="translate(457.394531 0)"/>
      <use xlink:href="#DejaVuSans-20" transform="translate(516.574219 0)"/>
      <use xlink:href="#DejaVuSans-28" transform="translate(548.361328 0)"/>
      <use xlink:href="#DejaVuSans-4d" transform="translate(587.375 0)"/>
      <use xlink:href="#DejaVuSans-48" transform="translate(673.654297 0)"/>
      <use xlink:href="#DejaVuSans-7a" transform="translate(748.849609 0)"/>
      <use xlink:href="#DejaVuSans-29" transform="translate(801.339844 0)"/>
     </g>
    </g>
   </g>
   <g id="matplotlib.axis_4">
    <g id="ytick_6">
     <g id="line2d_15">
      <g>
       <use xlink:href="#md70523b171" x="266.223943" y="236.078182" style="stroke: #000000; stroke-width: 0.8"/>
      </g>
     </g>
     <g id="text_18">
      <!-- 0.0 -->
      <g transform="translate(243.320818 239.877401) scale(0.1 -0.1)">
       <use xlink:href="#DejaVuSans-30"/>
       <use xlink:href="#DejaVuSans-2e" transform="translate(63.623047 0)"/>
       <use xlink:href="#DejaVuSans-30" transform="translate(95.410156 0)"/>
      </g>
     </g>
    </g>
    <g id="ytick_7">
     <g id="line2d_16">
      <g>
       <use xlink:href="#md70523b171" x="266.223943" y="204.781967" style="stroke: #000000; stroke-width: 0.8"/>
      </g>
     </g>
     <g id="text_19">
      <!-- 0.1 -->
      <g transform="translate(243.320818 208.581186) scale(0.1 -0.1)">
       <use xlink:href="#DejaVuSans-30"/>
       <use xlink:href="#DejaVuSans-2e" transform="translate(63.623047 0)"/>
       <use xlink:href="#DejaVuSans-31" transform="translate(95.410156 0)"/>
      </g>
     </g>
    </g>
    <g id="ytick_8">
     <g id="line2d_17">
      <g>
       <use xlink:href="#md70523b171" x="266.223943" y="173.485753" style="stroke: #000000; stroke-width: 0.8"/>
      </g>
     </g>
     <g id="text_20">
      <!-- 0.2 -->
      <g transform="translate(243.320818 177.284972) scale(0.1 -0.1)">
       <use xlink:href="#DejaVuSans-30"/>
       <use xlink:href="#DejaVuSans-2e" transform="translate(63.623047 0)"/>
       <use xlink:href="#DejaVuSans-32" transform="translate(95.410156 0)"/>
      </g>
     </g>
    </g>
    <g id="ytick_9">
     <g id="line2d_18">
      <g>
       <use xlink:href="#md70523b171" x="266.223943" y="142.189539" style="stroke: #000000; stroke-width: 0.8"/>
      </g>
     </g>
     <g id="text_21">
      <!-- 0.3 -->
      <g transform="translate(243.320818 145.988758) scale(0.1 -0.1)">
       <defs>
        <path id="DejaVuSans-33" d="M 2597 2516 
Q 3050 2419 3304 2112 
Q 3559 1806 3559 1356 
Q 3559 666 3084 287 
Q 2609 -91 1734 -91 
Q 1441 -91 1130 -33 
Q 819 25 488 141 
L 488 750 
Q 750 597 1062 519 
Q 1375 441 1716 441 
Q 2309 441 2620 675 
Q 2931 909 2931 1356 
Q 2931 1769 2642 2001 
Q 2353 2234 1838 2234 
L 1294 2234 
L 1294 2753 
L 1863 2753 
Q 2328 2753 2575 2939 
Q 2822 3125 2822 3475 
Q 2822 3834 2567 4026 
Q 2313 4219 1838 4219 
Q 1578 4219 1281 4162 
Q 984 4106 628 3988 
L 628 4550 
Q 988 4650 1302 4700 
Q 1616 4750 1894 4750 
Q 2613 4750 3031 4423 
Q 3450 4097 3450 3541 
Q 3450 3153 3228 2886 
Q 3006 2619 2597 2516 
z
" transform="scale(0.015625)"/>
       </defs>
       <use xlink:href="#DejaVuSans-30"/>
       <use xlink:href="#DejaVuSans-2e" transform="translate(63.623047 0)"/>
       <use xlink:href="#DejaVuSans-33" transform="translate(95.410156 0)"/>
      </g>
     </g>
    </g>
    <g id="ytick_10">
     <g id="line2d_19">
      <g>
       <use xlink:href="#md70523b171" x="266.223943" y="110.893324" style="stroke: #000000; stroke-width: 0.8"/>
      </g>
     </g>
     <g id="text_22">
      <!-- 0.4 -->
      <g transform="translate(243.320818 114.692543) scale(0.1 -0.1)">
       <use xlink:href="#DejaVuSans-30"/>
       <use xlink:href="#DejaVuSans-2e" transform="translate(63.623047 0)"/>
       <use xlink:href="#DejaVuSans-34" transform="translate(95.410156 0)"/>
      </g>
     </g>
    </g>
    <g id="ytick_11">
     <g id="line2d_20">
      <g>
       <use xlink:href="#md70523b171" x="266.223943" y="79.59711" style="stroke: #000000; stroke-width: 0.8"/>
      </g>
     </g>
     <g id="text_23">
      <!-- 0.5 -->
      <g transform="translate(243.320818 83.396329) scale(0.1 -0.1)">
       <use xlink:href="#DejaVuSans-30"/>
       <use xlink:href="#DejaVuSans-2e" transform="translate(63.623047 0)"/>
       <use xlink:href="#DejaVuSans-35" transform="translate(95.410156 0)"/>
      </g>
     </g>
    </g>
    <g id="ytick_12">
     <g id="line2d_21">
      <g>
       <use xlink:href="#md70523b171" x="266.223943" y="48.300896" style="stroke: #000000; stroke-width: 0.8"/>
      </g>
     </g>
     <g id="text_24">
      <!-- 0.6 -->
      <g transform="translate(243.320818 52.100115) scale(0.1 -0.1)">
       <defs>
        <path id="DejaVuSans-36" d="M 2113 2584 
Q 1688 2584 1439 2293 
Q 1191 2003 1191 1497 
Q 1191 994 1439 701 
Q 1688 409 2113 409 
Q 2538 409 2786 701 
Q 3034 994 3034 1497 
Q 3034 2003 2786 2293 
Q 2538 2584 2113 2584 
z
M 3366 4563 
L 3366 3988 
Q 3128 4100 2886 4159 
Q 2644 4219 2406 4219 
Q 1781 4219 1451 3797 
Q 1122 3375 1075 2522 
Q 1259 2794 1537 2939 
Q 1816 3084 2150 3084 
Q 2853 3084 3261 2657 
Q 3669 2231 3669 1497 
Q 3669 778 3244 343 
Q 2819 -91 2113 -91 
Q 1303 -91 875 529 
Q 447 1150 447 2328 
Q 447 3434 972 4092 
Q 1497 4750 2381 4750 
Q 2619 4750 2861 4703 
Q 3103 4656 3366 4563 
z
" transform="scale(0.015625)"/>
       </defs>
       <use xlink:href="#DejaVuSans-30"/>
       <use xlink:href="#DejaVuSans-2e" transform="translate(63.623047 0)"/>
       <use xlink:href="#DejaVuSans-36" transform="translate(95.410156 0)"/>
      </g>
     </g>
    </g>
    <g id="text_25">
     <!-- Magnitude (V) -->
     <g transform="translate(237.241131 171.860781) rotate(-90) scale(0.1 -0.1)">
      <defs>
       <path id="DejaVuSans-64" d="M 2906 2969 
L 2906 4863 
L 3481 4863 
L 3481 0 
L 2906 0 
L 2906 525 
Q 2725 213 2448 61 
Q 2172 -91 1784 -91 
Q 1150 -91 751 415 
Q 353 922 353 1747 
Q 353 2572 751 3078 
Q 1150 3584 1784 3584 
Q 2172 3584 2448 3432 
Q 2725 3281 2906 2969 
z
M 947 1747 
Q 947 1113 1208 752 
Q 1469 391 1925 391 
Q 2381 391 2643 752 
Q 2906 1113 2906 1747 
Q 2906 2381 2643 2742 
Q 2381 3103 1925 3103 
Q 1469 3103 1208 2742 
Q 947 2381 947 1747 
z
" transform="scale(0.015625)"/>
      </defs>
      <use xlink:href="#DejaVuSans-4d"/>
      <use xlink:href="#DejaVuSans-61" transform="translate(86.279297 0)"/>
      <use xlink:href="#DejaVuSans-67" transform="translate(147.558594 0)"/>
      <use xlink:href="#DejaVuSans-6e" transform="translate(211.035156 0)"/>
      <use xlink:href="#DejaVuSans-69" transform="translate(274.414062 0)"/>
      <use xlink:href="#DejaVuSans-74" transform="translate(302.197266 0)"/>
      <use xlink:href="#DejaVuSans-75" transform="translate(341.40625 0)"/>
      <use xlink:href="#DejaVuSans-64" transform="translate(404.785156 0)"/>
      <use xlink:href="#DejaVuSans-65" transform="translate(468.261719 0)"/>
      <use xlink:href="#DejaVuSans-20" transform="translate(529.785156 0)"/>
      <use xlink:href="#DejaVuSans-28" transform="translate(561.572266 0)"/>
      <use xlink:href="#DejaVuSans-56" transform="translate(600.585938 0)"/>
      <use xlink:href="#DejaVuSans-29" transform="translate(668.994141 0)"/>
     </g>
    </g>
   </g>
   <g id="line2d_22">
    <path d="M 266.223943 236.078182 
L 266.526631 236.078182 
L 266.829318 235.755268 
L 267.132006 236.078182 
L 267.737381 236.078182 
L 268.040069 234.630968 
L 268.342757 236.078182 
L 268.948132 236.078182 
L 269.250819 36.841818 
L 269.553507 236.078182 
L 270.158882 236.078182 
L 270.46157 234.590293 
L 270.764257 236.078182 
L 271.369633 236.078182 
L 271.67232 235.7415 
L 271.975008 236.078182 
L 272.580383 236.078182 
L 272.883071 235.768919 
L 273.185758 236.078182 
L 273.791134 236.078182 
L 274.093821 234.670201 
L 274.396509 236.078182 
L 275.001884 236.078182 
L 275.304572 169.670119 
L 275.607259 236.078182 
L 276.212634 236.078182 
L 276.515322 234.548095 
L 276.81801 236.078182 
L 277.423385 236.078182 
L 277.726072 235.727586 
L 278.02876 236.078182 
L 278.634135 236.078182 
L 278.936823 235.782442 
L 279.239511 236.078182 
L 279.844886 236.078182 
L 280.147573 234.708086 
L 280.450261 236.078182 
L 281.055636 236.078182 
L 281.358324 196.238195 
L 281.661011 236.078182 
L 282.266387 236.078182 
L 282.569074 234.504272 
L 282.871762 236.078182 
L 283.477137 236.078182 
L 283.779825 235.713525 
L 284.082512 236.078182 
L 284.687888 236.078182 
L 284.990575 235.795845 
L 285.293263 236.078182 
L 285.898638 236.078182 
L 286.201326 234.744698 
L 286.504013 236.078182 
L 287.109388 236.078182 
L 287.412076 207.626274 
L 287.714764 236.078182 
L 288.320139 236.078182 
L 288.622826 234.458718 
L 288.925514 236.078182 
L 289.530889 236.078182 
L 289.833577 235.699321 
L 290.136265 236.078182 
L 290.74164 236.078182 
L 291.044327 235.809143 
L 291.347015 236.078182 
L 291.95239 236.078182 
L 292.255078 234.780097 
L 292.557765 236.078182 
L 293.163141 236.078182 
L 293.465828 213.954325 
L 293.768516 236.078182 
L 294.373891 236.078182 
L 294.676579 234.411356 
L 294.979266 236.078182 
L 295.584641 236.078182 
L 295.887329 235.68496 
L 296.190017 236.078182 
L 296.795392 236.078182 
L 297.09808 235.822333 
L 297.400767 236.078182 
L 298.006142 236.078182 
L 298.30883 234.814359 
L 298.611518 236.078182 
L 299.216893 236.078182 
L 299.51958 217.982373 
L 299.822268 236.078182 
L 300.427643 236.078182 
L 300.730331 234.362002 
L 301.033018 236.078182 
L 301.638394 236.078182 
L 301.941081 235.670434 
L 302.243769 236.078182 
L 302.849144 236.078182 
L 303.151832 235.835421 
L 303.454519 236.078182 
L 304.059895 236.078182 
L 304.362582 234.84753 
L 304.66527 236.078182 
L 305.270645 236.078182 
L 305.573333 220.771961 
L 305.87602 236.078182 
L 306.481395 236.078182 
L 306.784083 234.310568 
L 307.086771 236.078182 
L 307.692146 236.078182 
L 307.994834 235.65573 
L 308.297521 236.078182 
L 308.902896 236.078182 
L 309.205584 235.848413 
L 309.508272 236.078182 
L 310.113647 236.078182 
L 310.416334 234.879699 
L 310.719022 236.078182 
L 311.324397 236.078182 
L 311.627085 222.818477 
L 311.929772 236.078182 
L 312.535148 236.078182 
L 312.837835 233.92427 
L 313.140523 236.078182 
L 313.745898 236.078182 
L 314.048586 235.640851 
L 314.351273 236.078182 
L 314.956649 236.078182 
L 315.259336 235.86132 
L 315.562024 236.078182 
L 316.167399 236.078182 
L 316.470087 234.910884 
L 316.772774 236.078182 
L 317.378149 236.078182 
L 317.680837 224.384179 
L 317.983525 236.078182 
L 318.5889 236.078182 
L 318.891588 233.867076 
L 319.194275 236.078182 
L 319.79965 236.078182 
L 320.102338 235.625781 
L 320.405026 236.078182 
L 321.010401 236.078182 
L 321.313088 235.874149 
L 321.615776 236.078182 
L 322.221151 236.078182 
L 322.523839 234.941147 
L 322.826526 236.078182 
L 323.431902 236.078182 
L 323.734589 225.620896 
L 324.037277 236.078182 
L 324.642652 236.078182 
L 324.94534 233.807287 
L 325.248027 236.078182 
L 325.853403 236.078182 
L 326.15609 235.610512 
L 326.458778 236.078182 
L 327.064153 236.078182 
L 327.366841 235.886885 
L 327.669528 236.078182 
L 328.274903 236.078182 
L 328.577591 234.970546 
L 328.880279 236.078182 
L 329.485654 236.078182 
L 329.788342 226.622644 
L 330.091029 236.078182 
L 330.696404 236.078182 
L 330.999092 233.744738 
L 331.30178 236.078182 
L 331.907155 236.078182 
L 332.209842 235.595043 
L 332.51253 236.078182 
L 333.117905 236.078182 
L 333.420593 235.899562 
L 333.72328 236.078182 
L 334.328656 236.078182 
L 334.631343 234.999104 
L 334.934031 236.078182 
L 335.539406 236.078182 
L 335.842094 227.450701 
L 336.144781 236.078182 
L 336.750157 236.078182 
L 337.052844 233.679196 
L 337.355532 236.078182 
L 337.960907 236.078182 
L 338.263595 235.579341 
L 338.566282 236.078182 
L 339.171657 236.078182 
L 339.474345 235.912163 
L 339.777033 236.078182 
L 340.382408 236.078182 
L 340.685096 235.026872 
L 340.987783 236.078182 
L 341.593158 236.078182 
L 341.895846 228.146757 
L 342.198534 236.078182 
L 342.803909 236.078182 
L 343.106596 233.610428 
L 343.409284 236.078182 
L 344.014659 236.078182 
L 344.317347 235.563437 
L 344.620034 236.078182 
L 345.22541 236.078182 
L 345.528097 235.924713 
L 345.830785 236.078182 
L 346.43616 236.078182 
L 346.738848 235.053904 
L 347.041535 236.078182 
L 347.646911 236.078182 
L 347.949598 228.740165 
L 348.252286 236.078182 
L 348.857661 236.078182 
L 349.160349 233.538178 
L 349.463036 236.078182 
L 350.068411 236.078182 
L 350.371099 235.547277 
L 350.673787 236.078182 
L 351.279162 236.078182 
L 351.58185 235.937199 
L 351.884537 236.078182 
L 352.489912 236.078182 
L 352.7926 235.080208 
L 353.095288 236.078182 
L 353.700663 236.078182 
L 354.00335 229.252136 
L 354.306038 236.078182 
L 354.911413 236.078182 
L 355.214101 233.462159 
L 355.516788 236.078182 
L 356.122164 236.078182 
L 356.424851 235.530891 
L 356.727539 236.078182 
L 357.332914 236.078182 
L 357.635602 235.949633 
L 357.938289 236.078182 
L 358.543665 236.078182 
L 358.846352 235.105845 
L 359.14904 236.078182 
L 359.754415 236.078182 
L 360.057103 229.698445 
L 360.35979 236.078182 
L 360.965165 236.078182 
L 361.267853 233.382059 
L 361.570541 236.078182 
L 362.175916 236.078182 
L 362.478603 235.514237 
L 362.781291 236.078182 
L 363.386666 236.078182 
L 363.689354 235.962018 
L 364.294729 236.078182 
L 364.597417 236.078182 
L 364.900104 235.130822 
L 365.202792 236.078182 
L 365.808167 236.078182 
L 366.110855 230.091044 
L 366.413542 236.078182 
L 367.018918 236.078182 
L 367.321605 233.297493 
L 367.624293 236.078182 
L 368.229668 236.078182 
L 368.532356 235.49733 
L 368.835043 236.078182 
L 370.651169 236.078182 
L 370.953857 235.155192 
L 371.256544 236.078182 
L 371.861919 236.078182 
L 372.164607 230.43912 
L 372.467295 236.078182 
L 373.07267 236.078182 
L 373.375357 233.208103 
L 373.678045 236.078182 
L 374.28342 236.078182 
L 374.586108 235.480132 
L 374.888796 236.078182 
L 376.704921 236.078182 
L 377.007609 235.178964 
L 377.310296 236.078182 
L 377.915672 236.078182 
L 378.218359 230.749911 
L 378.521047 236.078182 
L 379.126422 236.078182 
L 379.42911 233.113404 
L 379.731797 236.078182 
L 380.337173 236.078182 
L 380.63986 235.462646 
L 380.942548 236.078182 
L 382.758673 236.078182 
L 383.061361 235.202178 
L 383.364049 236.078182 
L 383.969424 236.078182 
L 384.272111 231.029154 
L 384.574799 236.078182 
L 385.180174 236.078182 
L 385.482862 233.01291 
L 385.78555 236.078182 
L 386.390925 236.078182 
L 386.693612 235.444851 
L 386.9963 236.078182 
L 388.812426 236.078182 
L 389.115113 235.224846 
L 389.417801 236.078182 
L 390.023176 236.078182 
L 390.325864 231.281445 
L 390.628551 236.078182 
L 391.233927 236.078182 
L 391.536614 232.906051 
L 391.839302 236.078182 
L 392.444677 236.078182 
L 392.747365 235.426746 
L 393.050052 236.078182 
L 394.866178 236.078182 
L 395.168865 235.247007 
L 395.471553 236.078182 
L 396.076928 236.078182 
L 396.379616 231.510578 
L 396.682304 236.078182 
L 397.287679 236.078182 
L 397.590366 232.792164 
L 397.893054 236.078182 
L 398.498429 236.078182 
L 398.801117 235.40831 
L 399.103804 236.078182 
L 400.91993 236.078182 
L 401.222618 235.268677 
L 401.525305 236.078182 
L 402.130681 236.078182 
L 402.433368 231.719614 
L 402.736056 236.078182 
L 403.341431 236.078182 
L 403.644119 232.670512 
L 403.946806 236.078182 
L 404.552181 236.078182 
L 404.854869 235.389526 
L 405.157557 236.078182 
L 406.973682 236.078182 
L 407.27637 235.289879 
L 407.579058 236.078182 
L 408.184433 236.078182 
L 408.48712 231.911132 
L 408.789808 236.078182 
L 409.395183 236.078182 
L 409.697871 232.540257 
L 410.000558 236.078182 
L 410.605934 236.078182 
L 410.908621 235.370389 
L 411.211309 236.078182 
L 413.027435 236.078182 
L 413.330122 235.310632 
L 413.63281 236.078182 
L 414.238185 236.078182 
L 414.540873 232.087279 
L 414.84356 236.078182 
L 415.448935 236.078182 
L 415.751623 232.400413 
L 416.054311 236.078182 
L 416.659686 236.078182 
L 416.962373 235.350868 
L 417.265061 236.078182 
L 419.081187 236.078182 
L 419.383874 235.33096 
L 419.686562 236.078182 
L 420.291937 236.078182 
L 420.594625 232.249854 
L 420.897312 236.078182 
L 421.502688 236.078182 
L 421.502688 236.078182 
" clip-path="url(#pb79ba2b74d)" style="fill: none; stroke: #1f77b4; stroke-width: 1.5; stroke-linecap: square"/>
   </g>
   <g id="patch_8">
    <path d="M 266.223943 246.04 
L 266.223943 26.88 
" style="fill: none; stroke: #000000; stroke-width: 0.8; stroke-linejoin: miter; stroke-linecap: square"/>
   </g>
   <g id="patch_9">
    <path d="M 421.2 246.04 
L 421.2 26.88 
" style="fill: none; stroke: #000000; stroke-width: 0.8; stroke-linejoin: miter; stroke-linecap: square"/>
   </g>
   <g id="patch_10">
    <path d="M 266.223943 246.04 
L 421.2 246.04 
" style="fill: none; stroke: #000000; stroke-width: 0.8; stroke-linejoin: miter; stroke-linecap: square"/>
   </g>
   <g id="patch_11">
    <path d="M 266.223943 26.88 
L 421.2 26.88 
" style="fill: none; stroke: #000000; stroke-width: 0.8; stroke-linejoin: miter; stroke-linecap: square"/>
   </g>
   <g id="text_26">
    <!-- FFT of Signal -->
    <g transform="translate(305.221972 20.88) scale(0.12 -0.12)">
     <defs>
      <path id="DejaVuSans-66" d="M 2375 4863 
L 2375 4384 
L 1825 4384 
Q 1516 4384 1395 4259 
Q 1275 4134 1275 3809 
L 1275 3500 
L 2222 3500 
L 2222 3053 
L 1275 3053 
L 1275 0 
L 697 0 
L 697 3053 
L 147 3053 
L 147 3500 
L 697 3500 
L 697 3744 
Q 697 4328 969 4595 
Q 1241 4863 1831 4863 
L 2375 4863 
z
" transform="scale(0.015625)"/>
     </defs>
     <use xlink:href="#DejaVuSans-46"/>
     <use xlink:href="#DejaVuSans-46" transform="translate(57.519531 0)"/>
     <use xlink:href="#DejaVuSans-54" transform="translate(113.289062 0)"/>
     <use xlink:href="#DejaVuSans-20" transform="translate(174.373047 0)"/>
     <use xlink:href="#DejaVuSans-6f" transform="translate(206.160156 0)"/>
     <use xlink:href="#DejaVuSans-66" transform="translate(267.341797 0)"/>
     <use xlink:href="#DejaVuSans-20" transform="translate(302.546875 0)"/>
     <use xlink:href="#DejaVuSans-53" transform="translate(334.333984 0)"/>
     <use xlink:href="#DejaVuSans-69" transform="translate(397.810547 0)"/>
     <use xlink:href="#DejaVuSans-67" transform="translate(425.59375 0)"/>
     <use xlink:href="#DejaVuSans-6e" transform="translate(489.070312 0)"/>
     <use xlink:href="#DejaVuSans-61" transform="translate(552.449219 0)"/>
     <use xlink:href="#DejaVuSans-6c" transform="translate(613.728516 0)"/>
    </g>
   </g>
  </g>
 </g>
 <defs>
  <clipPath id="p08438234dc">
   <rect x="56.09" y="26.88" width="154.976057" height="219.16"/>
  </clipPath>
  <clipPath id="pb79ba2b74d">
   <rect x="266.223943" y="26.88" width="154.976057" height="219.16"/>
  </clipPath>
 </defs>
</svg>
