<?xml version="1.0" encoding="utf-8" standalone="no"?>
<!DOCTYPE svg PUBLIC "-//W3C//DTD SVG 1.1//EN"
  "http://www.w3.org/Graphics/SVG/1.1/DTD/svg11.dtd">
<svg xmlns:xlink="http://www.w3.org/1999/xlink" width="432pt" height="288pt" viewBox="0 0 432 288" xmlns="http://www.w3.org/2000/svg" version="1.1">
 <metadata>
  <rdf:RDF xmlns:dc="http://purl.org/dc/elements/1.1/" xmlns:cc="http://creativecommons.org/ns#" xmlns:rdf="http://www.w3.org/1999/02/22-rdf-syntax-ns#">
   <cc:Work>
    <dc:type rdf:resource="http://purl.org/dc/dcmitype/StillImage"/>
    <dc:date>2025-10-27T10:46:14.328179</dc:date>
    <dc:format>image/svg+xml</dc:format>
    <dc:creator>
     <cc:Agent>
      <dc:title>Matplotlib v3.10.6, https://matplotlib.org/</dc:title>
     </cc:Agent>
    </dc:creator>
   </cc:Work>
  </rdf:RDF>
 </metadata>
 <defs>
  <style type="text/css">*{stroke-linejoin: round; stroke-linecap: butt}</style>
 </defs>
 <g id="figure_1">
  <g id="patch_1">
   <path d="M 0 288 
L 432 288 
L 432 0 
L 0 0 
z
" style="fill: #ffffff"/>
  </g>
  <g id="axes_1">
   <g id="patch_2">
    <path d="M 56.09 246.04 
L 201.616057 246.04 
L 201.616057 26.88 
L 56.09 26.88 
z
" style="fill: #ffffff"/>
   </g>
   <g id="matplotlib.axis_1">
    <g id="xtick_1">
     <g id="line2d_1">
      <defs>
       <path id="m7e0e22e34b" d="M 0 0 
L 0 3.5 
" style="stroke: #000000; stroke-width: 0.8"/>
      </defs>
      <g>
       <use xlink:href="#m7e0e22e34b" x="62.704821" y="246.04" style="stroke: #000000; stroke-width: 0.8"/>
      </g>
     </g>
     <g id="text_1">
      <!-- 0.00 -->
      <g transform="translate(51.572008 260.638438) scale(0.1 -0.1)">
       <defs>
        <path id="DejaVuSans-30" d="M 2034 4250 
Q 1547 4250 1301 3770 
Q 1056 3291 1056 2328 
Q 1056 1369 1301 889 
Q 1547 409 2034 409 
Q 2525 409 2770 889 
Q 3016 1369 3016 2328 
Q 3016 3291 2770 3770 
Q 2525 4250 2034 4250 
z
M 2034 4750 
Q 2819 4750 3233 4129 
Q 3647 3509 3647 2328 
Q 3647 1150 3233 529 
Q 2819 -91 2034 -91 
Q 1250 -91 836 529 
Q 422 1150 422 2328 
Q 422 3509 836 4129 
Q 1250 4750 2034 4750 
z
" transform="scale(0.015625)"/>
        <path id="DejaVuSans-2e" d="M 684 794 
L 1344 794 
L 1344 0 
L 684 0 
L 684 794 
z
" transform="scale(0.015625)"/>
       </defs>
       <use xlink:href="#DejaVuSans-30"/>
       <use xlink:href="#DejaVuSans-2e" transform="translate(63.623047 0)"/>
       <use xlink:href="#DejaVuSans-30" transform="translate(95.410156 0)"/>
       <use xlink:href="#DejaVuSans-30" transform="translate(159.033203 0)"/>
      </g>
     </g>
    </g>
    <g id="xtick_2">
     <g id="line2d_2">
      <g>
       <use xlink:href="#m7e0e22e34b" x="128.917692" y="246.04" style="stroke: #000000; stroke-width: 0.8"/>
      </g>
     </g>
     <g id="text_2">
      <!-- 0.05 -->
      <g transform="translate(117.784879 260.638438) scale(0.1 -0.1)">
       <defs>
        <path id="DejaVuSans-35" d="M 691 4666 
L 3169 4666 
L 3169 4134 
L 1269 4134 
L 1269 2991 
Q 1406 3038 1543 3061 
Q 1681 3084 1819 3084 
Q 2600 3084 3056 2656 
Q 3513 2228 3513 1497 
Q 3513 744 3044 326 
Q 2575 -91 1722 -91 
Q 1428 -91 1123 -41 
Q 819 9 494 109 
L 494 744 
Q 775 591 1075 516 
Q 1375 441 1709 441 
Q 2250 441 2565 725 
Q 2881 1009 2881 1497 
Q 2881 1984 2565 2268 
Q 2250 2553 1709 2553 
Q 1456 2553 1204 2497 
Q 953 2441 691 2322 
L 691 4666 
z
" transform="scale(0.015625)"/>
       </defs>
       <use xlink:href="#DejaVuSans-30"/>
       <use xlink:href="#DejaVuSans-2e" transform="translate(63.623047 0)"/>
       <use xlink:href="#DejaVuSans-30" transform="translate(95.410156 0)"/>
       <use xlink:href="#DejaVuSans-35" transform="translate(159.033203 0)"/>
      </g>
     </g>
    </g>
    <g id="xtick_3">
     <g id="line2d_3">
      <g>
       <use xlink:href="#m7e0e22e34b" x="195.130563" y="246.04" style="stroke: #000000; stroke-width: 0.8"/>
      </g>
     </g>
     <g id="text_3">
      <!-- 0.10 -->
      <g transform="translate(183.99775 260.638438) scale(0.1 -0.1)">
       <defs>
        <path id="DejaVuSans-31" d="M 794 531 
L 1825 531 
L 1825 4091 
L 703 3866 
L 703 4441 
L 1819 4666 
L 2450 4666 
L 2450 531 
L 3481 531 
L 3481 0 
L 794 0 
L 794 531 
z
" transform="scale(0.015625)"/>
       </defs>
       <use xlink:href="#DejaVuSans-30"/>
       <use xlink:href="#DejaVuSans-2e" transform="translate(63.623047 0)"/>
       <use xlink:href="#DejaVuSans-31" transform="translate(95.410156 0)"/>
       <use xlink:href="#DejaVuSans-30" transform="translate(159.033203 0)"/>
      </g>
     </g>
    </g>
    <g id="text_4">
     <!-- Time (ms) -->
     <g transform="translate(103.65381 274.316562) scale(0.1 -0.1)">
      <defs>
       <path id="DejaVuSans-54" d="M -19 4666 
L 3928 4666 
L 3928 4134 
L 2272 4134 
L 2272 0 
L 1638 0 
L 1638 4134 
L -19 4134 
L -19 4666 
z
" transform="scale(0.015625)"/>
       <path id="DejaVuSans-69" d="M 603 3500 
L 1178 3500 
L 1178 0 
L 603 0 
L 603 3500 
z
M 603 4863 
L 1178 4863 
L 1178 4134 
L 603 4134 
L 603 4863 
z
" transform="scale(0.015625)"/>
       <path id="DejaVuSans-6d" d="M 3328 2828 
Q 3544 3216 3844 3400 
Q 4144 3584 4550 3584 
Q 5097 3584 5394 3201 
Q 5691 2819 5691 2113 
L 5691 0 
L 5113 0 
L 5113 2094 
Q 5113 2597 4934 2840 
Q 4756 3084 4391 3084 
Q 3944 3084 3684 2787 
Q 3425 2491 3425 1978 
L 3425 0 
L 2847 0 
L 2847 2094 
Q 2847 2600 2669 2842 
Q 2491 3084 2119 3084 
Q 1678 3084 1418 2786 
Q 1159 2488 1159 1978 
L 1159 0 
L 581 0 
L 581 3500 
L 1159 3500 
L 1159 2956 
Q 1356 3278 1631 3431 
Q 1906 3584 2284 3584 
Q 2666 3584 2933 3390 
Q 3200 3197 3328 2828 
z
" transform="scale(0.015625)"/>
       <path id="DejaVuSans-65" d="M 3597 1894 
L 3597 1613 
L 953 1613 
Q 991 1019 1311 708 
Q 1631 397 2203 397 
Q 2534 397 2845 478 
Q 3156 559 3463 722 
L 3463 178 
Q 3153 47 2828 -22 
Q 2503 -91 2169 -91 
Q 1331 -91 842 396 
Q 353 884 353 1716 
Q 353 2575 817 3079 
Q 1281 3584 2069 3584 
Q 2775 3584 3186 3129 
Q 3597 2675 3597 1894 
z
M 3022 2063 
Q 3016 2534 2758 2815 
Q 2500 3097 2075 3097 
Q 1594 3097 1305 2825 
Q 1016 2553 972 2059 
L 3022 2063 
z
" transform="scale(0.015625)"/>
       <path id="DejaVuSans-20" transform="scale(0.015625)"/>
       <path id="DejaVuSans-28" d="M 1984 4856 
Q 1566 4138 1362 3434 
Q 1159 2731 1159 2009 
Q 1159 1288 1364 580 
Q 1569 -128 1984 -844 
L 1484 -844 
Q 1016 -109 783 600 
Q 550 1309 550 2009 
Q 550 2706 781 3412 
Q 1013 4119 1484 4856 
L 1984 4856 
z
" transform="scale(0.015625)"/>
       <path id="DejaVuSans-73" d="M 2834 3397 
L 2834 2853 
Q 2591 2978 2328 3040 
Q 2066 3103 1784 3103 
Q 1356 3103 1142 2972 
Q 928 2841 928 2578 
Q 928 2378 1081 2264 
Q 1234 2150 1697 2047 
L 1894 2003 
Q 2506 1872 2764 1633 
Q 3022 1394 3022 966 
Q 3022 478 2636 193 
Q 2250 -91 1575 -91 
Q 1294 -91 989 -36 
Q 684 19 347 128 
L 347 722 
Q 666 556 975 473 
Q 1284 391 1588 391 
Q 1994 391 2212 530 
Q 2431 669 2431 922 
Q 2431 1156 2273 1281 
Q 2116 1406 1581 1522 
L 1381 1569 
Q 847 1681 609 1914 
Q 372 2147 372 2553 
Q 372 3047 722 3315 
Q 1072 3584 1716 3584 
Q 2034 3584 2315 3537 
Q 2597 3491 2834 3397 
z
" transform="scale(0.015625)"/>
       <path id="DejaVuSans-29" d="M 513 4856 
L 1013 4856 
Q 1481 4119 1714 3412 
Q 1947 2706 1947 2009 
Q 1947 1309 1714 600 
Q 1481 -109 1013 -844 
L 513 -844 
Q 928 -128 1133 580 
Q 1338 1288 1338 2009 
Q 1338 2731 1133 3434 
Q 928 4138 513 4856 
z
" transform="scale(0.015625)"/>
      </defs>
      <use xlink:href="#DejaVuSans-54"/>
      <use xlink:href="#DejaVuSans-69" transform="translate(57.958984 0)"/>
      <use xlink:href="#DejaVuSans-6d" transform="translate(85.742188 0)"/>
      <use xlink:href="#DejaVuSans-65" transform="translate(183.154297 0)"/>
      <use xlink:href="#DejaVuSans-20" transform="translate(244.677734 0)"/>
      <use xlink:href="#DejaVuSans-28" transform="translate(276.464844 0)"/>
      <use xlink:href="#DejaVuSans-6d" transform="translate(315.478516 0)"/>
      <use xlink:href="#DejaVuSans-73" transform="translate(412.890625 0)"/>
      <use xlink:href="#DejaVuSans-29" transform="translate(464.990234 0)"/>
     </g>
    </g>
   </g>
   <g id="matplotlib.axis_2">
    <g id="ytick_1">
     <g id="line2d_4">
      <defs>
       <path id="m1a0e11900f" d="M 0 0 
L -3.5 0 
" style="stroke: #000000; stroke-width: 0.8"/>
      </defs>
      <g>
       <use xlink:href="#m1a0e11900f" x="56.09" y="233.298999" style="stroke: #000000; stroke-width: 0.8"/>
      </g>
     </g>
     <g id="text_5">
      <!-- −1.0 -->
      <g transform="translate(24.807188 237.098218) scale(0.1 -0.1)">
       <defs>
        <path id="DejaVuSans-2212" d="M 678 2272 
L 4684 2272 
L 4684 1741 
L 678 1741 
L 678 2272 
z
" transform="scale(0.015625)"/>
       </defs>
       <use xlink:href="#DejaVuSans-2212"/>
       <use xlink:href="#DejaVuSans-31" transform="translate(83.789062 0)"/>
       <use xlink:href="#DejaVuSans-2e" transform="translate(147.412109 0)"/>
       <use xlink:href="#DejaVuSans-30" transform="translate(179.199219 0)"/>
      </g>
     </g>
    </g>
    <g id="ytick_2">
     <g id="line2d_5">
      <g>
       <use xlink:href="#m1a0e11900f" x="56.09" y="184.8795" style="stroke: #000000; stroke-width: 0.8"/>
      </g>
     </g>
     <g id="text_6">
      <!-- −0.5 -->
      <g transform="translate(24.807188 188.678718) scale(0.1 -0.1)">
       <use xlink:href="#DejaVuSans-2212"/>
       <use xlink:href="#DejaVuSans-30" transform="translate(83.789062 0)"/>
       <use xlink:href="#DejaVuSans-2e" transform="translate(147.412109 0)"/>
       <use xlink:href="#DejaVuSans-35" transform="translate(179.199219 0)"/>
      </g>
     </g>
    </g>
    <g id="ytick_3">
     <g id="line2d_6">
      <g>
       <use xlink:href="#m1a0e11900f" x="56.09" y="136.46" style="stroke: #000000; stroke-width: 0.8"/>
      </g>
     </g>
     <g id="text_7">
      <!-- 0.0 -->
      <g transform="translate(33.186875 140.259219) scale(0.1 -0.1)">
       <use xlink:href="#DejaVuSans-30"/>
       <use xlink:href="#DejaVuSans-2e" transform="translate(63.623047 0)"/>
       <use xlink:href="#DejaVuSans-30" transform="translate(95.410156 0)"/>
      </g>
     </g>
    </g>
    <g id="ytick_4">
     <g id="line2d_7">
      <g>
       <use xlink:href="#m1a0e11900f" x="56.09" y="88.0405" style="stroke: #000000; stroke-width: 0.8"/>
      </g>
     </g>
     <g id="text_8">
      <!-- 0.5 -->
      <g transform="translate(33.186875 91.839719) scale(0.1 -0.1)">
       <use xlink:href="#DejaVuSans-30"/>
       <use xlink:href="#DejaVuSans-2e" transform="translate(63.623047 0)"/>
       <use xlink:href="#DejaVuSans-35" transform="translate(95.410156 0)"/>
      </g>
     </g>
    </g>
    <g id="ytick_5">
     <g id="line2d_8">
      <g>
       <use xlink:href="#m1a0e11900f" x="56.09" y="39.621001" style="stroke: #000000; stroke-width: 0.8"/>
      </g>
     </g>
     <g id="text_9">
      <!-- 1.0 -->
      <g transform="translate(33.186875 43.420219) scale(0.1 -0.1)">
       <use xlink:href="#DejaVuSans-31"/>
       <use xlink:href="#DejaVuSans-2e" transform="translate(63.623047 0)"/>
       <use xlink:href="#DejaVuSans-30" transform="translate(95.410156 0)"/>
      </g>
     </g>
    </g>
    <g id="text_10">
     <!-- Voltage (V) -->
     <g transform="translate(18.7275 164.127187) rotate(-90) scale(0.1 -0.1)">
      <defs>
       <path id="DejaVuSans-56" d="M 1831 0 
L 50 4666 
L 709 4666 
L 2188 738 
L 3669 4666 
L 4325 4666 
L 2547 0 
L 1831 0 
z
" transform="scale(0.015625)"/>
       <path id="DejaVuSans-6f" d="M 1959 3097 
Q 1497 3097 1228 2736 
Q 959 2375 959 1747 
Q 959 1119 1226 758 
Q 1494 397 1959 397 
Q 2419 397 2687 759 
Q 2956 1122 2956 1747 
Q 2956 2369 2687 2733 
Q 2419 3097 1959 3097 
z
M 1959 3584 
Q 2709 3584 3137 3096 
Q 3566 2609 3566 1747 
Q 3566 888 3137 398 
Q 2709 -91 1959 -91 
Q 1206 -91 779 398 
Q 353 888 353 1747 
Q 353 2609 779 3096 
Q 1206 3584 1959 3584 
z
" transform="scale(0.015625)"/>
       <path id="DejaVuSans-6c" d="M 603 4863 
L 1178 4863 
L 1178 0 
L 603 0 
L 603 4863 
z
" transform="scale(0.015625)"/>
       <path id="DejaVuSans-74" d="M 1172 4494 
L 1172 3500 
L 2356 3500 
L 2356 3053 
L 1172 3053 
L 1172 1153 
Q 1172 725 1289 603 
Q 1406 481 1766 481 
L 2356 481 
L 2356 0 
L 1766 0 
Q 1100 0 847 248 
Q 594 497 594 1153 
L 594 3053 
L 172 3053 
L 172 3500 
L 594 3500 
L 594 4494 
L 1172 4494 
z
" transform="scale(0.015625)"/>
       <path id="DejaVuSans-61" d="M 2194 1759 
Q 1497 1759 1228 1600 
Q 959 1441 959 1056 
Q 959 750 1161 570 
Q 1363 391 1709 391 
Q 2188 391 2477 730 
Q 2766 1069 2766 1631 
L 2766 1759 
L 2194 1759 
z
M 3341 1997 
L 3341 0 
L 2766 0 
L 2766 531 
Q 2569 213 2275 61 
Q 1981 -91 1556 -91 
Q 1019 -91 701 211 
Q 384 513 384 1019 
Q 384 1609 779 1909 
Q 1175 2209 1959 2209 
L 2766 2209 
L 2766 2266 
Q 2766 2663 2505 2880 
Q 2244 3097 1772 3097 
Q 1472 3097 1187 3025 
Q 903 2953 641 2809 
L 641 3341 
Q 956 3463 1253 3523 
Q 1550 3584 1831 3584 
Q 2591 3584 2966 3190 
Q 3341 2797 3341 1997 
z
" transform="scale(0.015625)"/>
       <path id="DejaVuSans-67" d="M 2906 1791 
Q 2906 2416 2648 2759 
Q 2391 3103 1925 3103 
Q 1463 3103 1205 2759 
Q 947 2416 947 1791 
Q 947 1169 1205 825 
Q 1463 481 1925 481 
Q 2391 481 2648 825 
Q 2906 1169 2906 1791 
z
M 3481 434 
Q 3481 -459 3084 -895 
Q 2688 -1331 1869 -1331 
Q 1566 -1331 1297 -1286 
Q 1028 -1241 775 -1147 
L 775 -588 
Q 1028 -725 1275 -790 
Q 1522 -856 1778 -856 
Q 2344 -856 2625 -561 
Q 2906 -266 2906 331 
L 2906 616 
Q 2728 306 2450 153 
Q 2172 0 1784 0 
Q 1141 0 747 490 
Q 353 981 353 1791 
Q 353 2603 747 3093 
Q 1141 3584 1784 3584 
Q 2172 3584 2450 3431 
Q 2728 3278 2906 2969 
L 2906 3500 
L 3481 3500 
L 3481 434 
z
" transform="scale(0.015625)"/>
      </defs>
      <use xlink:href="#DejaVuSans-56"/>
      <use xlink:href="#DejaVuSans-6f" transform="translate(60.658203 0)"/>
      <use xlink:href="#DejaVuSans-6c" transform="translate(121.839844 0)"/>
      <use xlink:href="#DejaVuSans-74" transform="translate(149.623047 0)"/>
      <use xlink:href="#DejaVuSans-61" transform="translate(188.832031 0)"/>
      <use xlink:href="#DejaVuSans-67" transform="translate(250.111328 0)"/>
      <use xlink:href="#DejaVuSans-65" transform="translate(313.587891 0)"/>
      <use xlink:href="#DejaVuSans-20" transform="translate(375.111328 0)"/>
      <use xlink:href="#DejaVuSans-28" transform="translate(406.898438 0)"/>
      <use xlink:href="#DejaVuSans-56" transform="translate(445.912109 0)"/>
      <use xlink:href="#DejaVuSans-29" transform="translate(514.320312 0)"/>
     </g>
    </g>
   </g>
   <g id="line2d_9">
    <path d="M 62.704821 136.46 
L 62.834143 40.647455 
L 63.092787 39.123636 
L 63.222109 39.231417 
L 63.610075 39.866633 
L 64.127363 39.463734 
L 64.644651 39.720696 
L 65.032618 39.508183 
L 65.549906 39.708543 
L 65.937871 39.518642 
L 66.584482 39.64185 
L 66.843125 39.509829 
L 67.489735 39.660162 
L 67.74838 39.470803 
L 68.007023 39.637793 
L 68.265668 39.825098 
L 68.524311 39.491624 
L 68.653633 39.300076 
L 68.782956 39.307726 
L 69.041599 40.205056 
L 69.170922 40.99563 
L 69.300244 44.362035 
L 69.429565 234.163675 
L 69.558887 234.19476 
L 69.946854 233.047354 
L 70.076175 233.005664 
L 70.593463 233.458977 
L 70.98143 233.153692 
L 71.628039 233.332506 
L 71.886684 233.189901 
L 72.533294 233.338316 
L 72.791939 233.197958 
L 73.050582 233.298961 
L 73.309227 233.405135 
L 73.826515 233.197803 
L 74.21448 233.438544 
L 74.473124 233.252972 
L 74.731768 233.132601 
L 75.249056 233.500521 
L 75.637022 232.6492 
L 75.766344 232.929491 
L 75.895667 235.374356 
L 76.024983 36.841818 
L 76.283637 39.691044 
L 76.412951 40.012811 
L 76.542278 39.973388 
L 76.930246 39.396722 
L 77.188886 39.621465 
L 77.447527 39.775226 
L 77.964822 39.516608 
L 78.352789 39.73346 
L 78.870071 39.52881 
L 79.258039 39.723747 
L 79.904647 39.589625 
L 80.163288 39.73346 
L 80.421942 39.609283 
L 80.680582 39.495013 
L 81.197864 39.752411 
L 81.585831 39.396722 
L 81.844485 39.736404 
L 82.103126 40.012811 
L 82.23244 39.691044 
L 82.361767 38.892675 
L 82.491094 36.841818 
L 82.620408 235.374356 
L 82.749735 232.929491 
L 82.879062 232.6492 
L 83.396343 233.567534 
L 83.913638 233.139796 
L 84.301592 233.438544 
L 84.948214 233.255586 
L 85.206854 233.405135 
L 85.465495 233.298961 
L 85.724136 233.197958 
L 86.241431 233.385767 
L 86.629398 233.189901 
L 87.276007 233.324565 
L 87.534647 233.153692 
L 87.793288 233.331247 
L 88.051929 233.483865 
L 88.569224 233.047354 
L 89.086518 234.163675 
L 89.215832 44.362035 
L 89.474473 40.205056 
L 89.733127 39.307726 
L 89.86244 39.300076 
L 90.250408 39.825098 
L 90.509049 39.637793 
L 90.767703 39.470803 
L 91.284984 39.729044 
L 91.672952 39.509829 
L 92.31956 39.650924 
L 92.578201 39.518642 
L 93.224809 39.662825 
L 93.483463 39.508183 
L 93.742104 39.620904 
L 94.000745 39.754125 
L 94.518039 39.472353 
L 94.906007 39.866633 
L 95.035321 39.78063 
L 95.423289 39.123636 
L 95.552616 39.446206 
L 95.681929 40.647455 
L 95.940583 232.272545 
L 96.199224 233.796364 
L 96.328551 233.688583 
L 96.716505 233.053367 
L 97.2338 233.456266 
L 97.751082 233.199304 
L 98.139049 233.411817 
L 98.656344 233.211457 
L 99.044312 233.401358 
L 99.69092 233.27815 
L 99.949561 233.410171 
L 100.596169 233.259838 
L 100.85481 233.449197 
L 101.113464 233.282207 
L 101.372105 233.094902 
L 101.630745 233.428376 
L 101.760072 233.619924 
L 101.889386 233.612274 
L 102.14804 232.714944 
L 102.277354 231.92437 
L 102.406681 228.557965 
L 102.536008 38.756325 
L 102.665321 38.72524 
L 103.053289 39.872646 
L 103.182616 39.914336 
L 103.699898 39.461023 
L 104.087865 39.766308 
L 104.734474 39.587494 
L 104.993114 39.730099 
L 105.639736 39.581684 
L 105.898377 39.722042 
L 106.157017 39.621039 
L 106.415658 39.514865 
L 106.932953 39.722197 
L 107.320921 39.481456 
L 107.579561 39.667028 
L 107.838202 39.787399 
L 108.355497 39.419479 
L 108.743451 40.2708 
L 108.872778 39.990509 
L 109.002105 37.545644 
L 109.131419 236.078182 
L 109.390073 233.228956 
L 109.519386 232.907189 
L 109.648713 232.946612 
L 110.036681 233.523278 
L 110.295322 233.298535 
L 110.553963 233.144774 
L 111.071257 233.403392 
L 111.459225 233.18654 
L 111.976506 233.39119 
L 112.364474 233.196253 
L 113.011083 233.330375 
L 113.269723 233.18654 
L 113.528377 233.310717 
L 113.787018 233.424987 
L 114.304299 233.167589 
L 114.692267 233.523278 
L 114.950921 233.183596 
L 115.209562 232.907189 
L 115.338875 233.228956 
L 115.468202 234.027325 
L 115.597529 236.078182 
L 115.726843 37.545644 
L 115.85617 39.990509 
L 115.985497 40.2708 
L 116.502779 39.352466 
L 117.020073 39.780204 
L 117.408028 39.481456 
L 118.054649 39.664414 
L 118.31329 39.514865 
L 118.571931 39.621039 
L 118.830571 39.722042 
L 119.347866 39.534233 
L 119.735834 39.730099 
L 120.382442 39.595435 
L 120.641083 39.766308 
L 120.899724 39.588753 
L 121.158378 39.436135 
L 121.675659 39.872646 
L 122.192941 38.756325 
L 122.322268 228.557965 
L 122.580908 232.714944 
L 122.839562 233.612274 
L 122.968876 233.619924 
L 123.356844 233.094902 
L 123.615484 233.282207 
L 123.874138 233.449197 
L 124.39142 233.190956 
L 124.779387 233.410171 
L 125.425996 233.269076 
L 125.684637 233.401358 
L 126.331258 233.257175 
L 126.589899 233.411817 
L 126.84854 233.299096 
L 127.10718 233.165875 
L 127.624475 233.447647 
L 128.012443 233.053367 
L 128.141756 233.13937 
L 128.529724 233.796364 
L 128.659051 233.473794 
L 128.788365 232.272545 
L 129.047019 40.647455 
L 129.30566 39.123636 
L 129.434987 39.231417 
L 129.822941 39.866633 
L 130.340236 39.463734 
L 130.857517 39.720696 
L 131.245485 39.508183 
L 131.762779 39.708543 
L 132.150747 39.518642 
L 132.797356 39.64185 
L 133.055996 39.509829 
L 133.702605 39.660162 
L 133.961245 39.470803 
L 134.219899 39.637793 
L 134.47854 39.825098 
L 134.737181 39.491624 
L 134.866508 39.300076 
L 134.995822 39.307726 
L 135.254476 40.205056 
L 135.383789 40.99563 
L 135.513116 44.362035 
L 135.642443 234.163675 
L 135.771757 234.19476 
L 136.159725 233.047354 
L 136.289052 233.005664 
L 136.806333 233.458977 
L 137.194301 233.153692 
L 137.840909 233.332506 
L 138.09955 233.189901 
L 138.746172 233.338316 
L 139.004812 233.197958 
L 139.263453 233.298961 
L 139.522094 233.405135 
L 140.039388 233.197803 
L 140.427356 233.438544 
L 140.685997 233.252972 
L 140.944638 233.132601 
L 141.461932 233.500521 
L 141.8499 232.6492 
L 141.979214 232.929491 
L 142.108541 235.374356 
L 142.237854 36.841818 
L 142.496508 39.691044 
L 142.625822 40.012811 
L 142.755149 39.973388 
L 143.143117 39.396722 
L 143.401757 39.621465 
L 143.660398 39.775226 
L 144.177693 39.516608 
L 144.565661 39.73346 
L 145.082942 39.52881 
L 145.47091 39.723747 
L 146.117518 39.589625 
L 146.376159 39.73346 
L 146.634813 39.609283 
L 146.893453 39.495013 
L 147.410735 39.752411 
L 147.798703 39.396722 
L 148.057357 39.736404 
L 148.315997 40.012811 
L 148.445311 39.691044 
L 148.574638 38.892675 
L 148.703965 36.841818 
L 148.833279 235.374356 
L 148.962606 232.929491 
L 149.091919 232.6492 
L 149.609214 233.567534 
L 150.126509 233.139796 
L 150.514463 233.438544 
L 151.161085 233.255586 
L 151.419726 233.405135 
L 151.678366 233.298961 
L 151.937007 233.197958 
L 152.454302 233.385767 
L 152.842269 233.189901 
L 153.488878 233.324565 
L 153.747519 233.153692 
L 154.006159 233.331247 
L 154.264813 233.483865 
L 154.782095 233.047354 
L 155.299376 234.163675 
L 155.428703 44.362035 
L 155.687344 40.205056 
L 155.945998 39.307726 
L 156.075311 39.300076 
L 156.463279 39.825098 
L 156.72192 39.637793 
L 156.980574 39.470803 
L 157.497855 39.729044 
L 157.885823 39.509829 
L 158.532431 39.650924 
L 158.791072 39.518642 
L 159.437694 39.662825 
L 159.696334 39.508183 
L 159.954975 39.620904 
L 160.213616 39.754125 
L 160.730911 39.472353 
L 161.118878 39.866633 
L 161.248192 39.78063 
L 161.63616 39.123636 
L 161.765487 39.446206 
L 161.8948 40.647455 
L 162.153454 232.272545 
L 162.412095 233.796364 
L 162.541422 233.688583 
L 162.929377 233.053367 
L 163.446671 233.456266 
L 163.963953 233.199304 
L 164.35192 233.411817 
L 164.869215 233.211457 
L 165.257183 233.401358 
L 165.903791 233.27815 
L 166.162432 233.410171 
L 166.80904 233.259838 
L 167.067681 233.449197 
L 167.326335 233.282207 
L 167.584976 233.094902 
L 167.843616 233.428376 
L 167.972943 233.619924 
L 168.102257 233.612274 
L 168.360911 232.714944 
L 168.490225 231.92437 
L 168.619552 228.557965 
L 168.748879 38.756325 
L 168.878193 38.72524 
L 169.26616 39.872646 
L 169.395487 39.914336 
L 169.912769 39.461023 
L 170.300736 39.766308 
L 170.947345 39.587494 
L 171.205985 39.730099 
L 171.852607 39.581684 
L 172.111248 39.722042 
L 172.369889 39.621039 
L 172.628529 39.514865 
L 173.145824 39.722197 
L 173.533792 39.481456 
L 173.792432 39.667028 
L 174.051073 39.787399 
L 174.568368 39.419479 
L 174.956335 40.2708 
L 175.085649 39.990509 
L 175.214976 37.545644 
L 175.34429 236.078182 
L 175.602944 233.228956 
L 175.732258 232.907189 
L 175.861585 232.946612 
L 176.249552 233.523278 
L 176.508193 233.298535 
L 176.766834 233.144774 
L 177.284128 233.403392 
L 177.672096 233.18654 
L 178.189377 233.39119 
L 178.577345 233.196253 
L 179.223954 233.330375 
L 179.482594 233.18654 
L 179.741248 233.310717 
L 179.999889 233.424987 
L 180.51717 233.167589 
L 180.905138 233.523278 
L 181.163792 233.183596 
L 181.422433 232.907189 
L 181.551747 233.228956 
L 181.681074 234.027325 
L 181.810401 236.078182 
L 181.939714 37.545644 
L 182.069041 39.990509 
L 182.198368 40.2708 
L 182.71565 39.352466 
L 183.232944 39.780204 
L 183.620899 39.481456 
L 184.26752 39.664414 
L 184.526161 39.514865 
L 184.784802 39.621039 
L 185.043443 39.722042 
L 185.560737 39.534233 
L 185.948705 39.730099 
L 186.595313 39.595435 
L 186.853954 39.766308 
L 187.112595 39.588753 
L 187.371236 39.436135 
L 187.88853 39.872646 
L 188.405825 38.756325 
L 188.535139 228.557965 
L 188.793779 232.714944 
L 189.052433 233.612274 
L 189.181747 233.619924 
L 189.569715 233.094902 
L 189.828355 233.282207 
L 190.087009 233.449197 
L 190.604291 233.190956 
L 190.992259 233.410171 
L 191.638867 233.269076 
L 191.897508 233.401358 
L 192.544129 233.257175 
L 192.80277 233.411817 
L 193.061411 233.299096 
L 193.320051 233.165875 
L 193.837346 233.447647 
L 194.225314 233.053367 
L 194.354628 233.13937 
L 194.742595 233.796364 
L 194.871922 233.473794 
L 195.001236 232.272545 
L 195.001236 232.272545 
" clip-path="url(#pe2a2b31d66)" style="fill: none; stroke: #1f77b4; stroke-width: 1.5; stroke-linecap: square"/>
   </g>
   <g id="patch_3">
    <path d="M 56.09 246.04 
L 56.09 26.88 
" style="fill: none; stroke: #000000; stroke-width: 0.8; stroke-linejoin: miter; stroke-linecap: square"/>
   </g>
   <g id="patch_4">
    <path d="M 201.616057 246.04 
L 201.616057 26.88 
" style="fill: none; stroke: #000000; stroke-width: 0.8; stroke-linejoin: miter; stroke-linecap: square"/>
   </g>
   <g id="patch_5">
    <path d="M 56.09 246.04 
L 201.616057 246.04 
" style="fill: none; stroke: #000000; stroke-width: 0.8; stroke-linejoin: miter; stroke-linecap: square"/>
   </g>
   <g id="patch_6">
    <path d="M 56.09 26.88 
L 201.616057 26.88 
" style="fill: none; stroke: #000000; stroke-width: 0.8; stroke-linejoin: miter; stroke-linecap: square"/>
   </g>
   <g id="text_11">
    <!-- Raw Signal -->
    <g transform="translate(95.897091 20.88) scale(0.12 -0.12)">
     <defs>
      <path id="DejaVuSans-52" d="M 2841 2188 
Q 3044 2119 3236 1894 
Q 3428 1669 3622 1275 
L 4263 0 
L 3584 0 
L 2988 1197 
Q 2756 1666 2539 1819 
Q 2322 1972 1947 1972 
L 1259 1972 
L 1259 0 
L 628 0 
L 628 4666 
L 2053 4666 
Q 2853 4666 3247 4331 
Q 3641 3997 3641 3322 
Q 3641 2881 3436 2590 
Q 3231 2300 2841 2188 
z
M 1259 4147 
L 1259 2491 
L 2053 2491 
Q 2509 2491 2742 2702 
Q 2975 2913 2975 3322 
Q 2975 3731 2742 3939 
Q 2509 4147 2053 4147 
L 1259 4147 
z
" transform="scale(0.015625)"/>
      <path id="DejaVuSans-77" d="M 269 3500 
L 844 3500 
L 1563 769 
L 2278 3500 
L 2956 3500 
L 3675 769 
L 4391 3500 
L 4966 3500 
L 4050 0 
L 3372 0 
L 2619 2869 
L 1863 0 
L 1184 0 
L 269 3500 
z
" transform="scale(0.015625)"/>
      <path id="DejaVuSans-53" d="M 3425 4513 
L 3425 3897 
Q 3066 4069 2747 4153 
Q 2428 4238 2131 4238 
Q 1616 4238 1336 4038 
Q 1056 3838 1056 3469 
Q 1056 3159 1242 3001 
Q 1428 2844 1947 2747 
L 2328 2669 
Q 3034 2534 3370 2195 
Q 3706 1856 3706 1288 
Q 3706 609 3251 259 
Q 2797 -91 1919 -91 
Q 1588 -91 1214 -16 
Q 841 59 441 206 
L 441 856 
Q 825 641 1194 531 
Q 1563 422 1919 422 
Q 2459 422 2753 634 
Q 3047 847 3047 1241 
Q 3047 1584 2836 1778 
Q 2625 1972 2144 2069 
L 1759 2144 
Q 1053 2284 737 2584 
Q 422 2884 422 3419 
Q 422 4038 858 4394 
Q 1294 4750 2059 4750 
Q 2388 4750 2728 4690 
Q 3069 4631 3425 4513 
z
" transform="scale(0.015625)"/>
      <path id="DejaVuSans-6e" d="M 3513 2113 
L 3513 0 
L 2938 0 
L 2938 2094 
Q 2938 2591 2744 2837 
Q 2550 3084 2163 3084 
Q 1697 3084 1428 2787 
Q 1159 2491 1159 1978 
L 1159 0 
L 581 0 
L 581 3500 
L 1159 3500 
L 1159 2956 
Q 1366 3272 1645 3428 
Q 1925 3584 2291 3584 
Q 2894 3584 3203 3211 
Q 3513 2838 3513 2113 
z
" transform="scale(0.015625)"/>
     </defs>
     <use xlink:href="#DejaVuSans-52"/>
     <use xlink:href="#DejaVuSans-61" transform="translate(67.232422 0)"/>
     <use xlink:href="#DejaVuSans-77" transform="translate(128.511719 0)"/>
     <use xlink:href="#DejaVuSans-20" transform="translate(210.298828 0)"/>
     <use xlink:href="#DejaVuSans-53" transform="translate(242.085938 0)"/>
     <use xlink:href="#DejaVuSans-69" transform="translate(305.5625 0)"/>
     <use xlink:href="#DejaVuSans-67" transform="translate(333.345703 0)"/>
     <use xlink:href="#DejaVuSans-6e" transform="translate(396.822266 0)"/>
     <use xlink:href="#DejaVuSans-61" transform="translate(460.201172 0)"/>
     <use xlink:href="#DejaVuSans-6c" transform="translate(521.480469 0)"/>
    </g>
   </g>
  </g>
  <g id="axes_2">
   <g id="patch_7">
    <path d="M 275.673943 246.04 
L 421.2 246.04 
L 421.2 26.88 
L 275.673943 26.88 
z
" style="fill: #ffffff"/>
   </g>
   <g id="matplotlib.axis_3">
    <g id="xtick_4">
     <g id="line2d_10">
      <g>
       <use xlink:href="#m7e0e22e34b" x="275.673943" y="246.04" style="stroke: #000000; stroke-width: 0.8"/>
      </g>
     </g>
     <g id="text_12">
      <!-- 0 -->
      <g transform="translate(272.492693 260.638438) scale(0.1 -0.1)">
       <use xlink:href="#DejaVuSans-30"/>
      </g>
     </g>
    </g>
    <g id="xtick_5">
     <g id="line2d_11">
      <g>
       <use xlink:href="#m7e0e22e34b" x="332.520059" y="246.04" style="stroke: #000000; stroke-width: 0.8"/>
      </g>
     </g>
     <g id="text_13">
      <!-- 2 -->
      <g transform="translate(329.338809 260.638438) scale(0.1 -0.1)">
       <defs>
        <path id="DejaVuSans-32" d="M 1228 531 
L 3431 531 
L 3431 0 
L 469 0 
L 469 531 
Q 828 903 1448 1529 
Q 2069 2156 2228 2338 
Q 2531 2678 2651 2914 
Q 2772 3150 2772 3378 
Q 2772 3750 2511 3984 
Q 2250 4219 1831 4219 
Q 1534 4219 1204 4116 
Q 875 4013 500 3803 
L 500 4441 
Q 881 4594 1212 4672 
Q 1544 4750 1819 4750 
Q 2544 4750 2975 4387 
Q 3406 4025 3406 3419 
Q 3406 3131 3298 2873 
Q 3191 2616 2906 2266 
Q 2828 2175 2409 1742 
Q 1991 1309 1228 531 
z
" transform="scale(0.015625)"/>
       </defs>
       <use xlink:href="#DejaVuSans-32"/>
      </g>
     </g>
    </g>
    <g id="xtick_6">
     <g id="line2d_12">
      <g>
       <use xlink:href="#m7e0e22e34b" x="389.366175" y="246.04" style="stroke: #000000; stroke-width: 0.8"/>
      </g>
     </g>
     <g id="text_14">
      <!-- 4 -->
      <g transform="translate(386.184925 260.638438) scale(0.1 -0.1)">
       <defs>
        <path id="DejaVuSans-34" d="M 2419 4116 
L 825 1625 
L 2419 1625 
L 2419 4116 
z
M 2253 4666 
L 3047 4666 
L 3047 1625 
L 3713 1625 
L 3713 1100 
L 3047 1100 
L 3047 0 
L 2419 0 
L 2419 1100 
L 313 1100 
L 313 1709 
L 2253 4666 
z
" transform="scale(0.015625)"/>
       </defs>
       <use xlink:href="#DejaVuSans-34"/>
      </g>
     </g>
    </g>
    <g id="text_15">
     <!-- Frequency (kHz) -->
     <g transform="translate(307.836972 274.316562) scale(0.1 -0.1)">
      <defs>
       <path id="DejaVuSans-46" d="M 628 4666 
L 3309 4666 
L 3309 4134 
L 1259 4134 
L 1259 2759 
L 3109 2759 
L 3109 2228 
L 1259 2228 
L 1259 0 
L 628 0 
L 628 4666 
z
" transform="scale(0.015625)"/>
       <path id="DejaVuSans-72" d="M 2631 2963 
Q 2534 3019 2420 3045 
Q 2306 3072 2169 3072 
Q 1681 3072 1420 2755 
Q 1159 2438 1159 1844 
L 1159 0 
L 581 0 
L 581 3500 
L 1159 3500 
L 1159 2956 
Q 1341 3275 1631 3429 
Q 1922 3584 2338 3584 
Q 2397 3584 2469 3576 
Q 2541 3569 2628 3553 
L 2631 2963 
z
" transform="scale(0.015625)"/>
       <path id="DejaVuSans-71" d="M 947 1747 
Q 947 1113 1208 752 
Q 1469 391 1925 391 
Q 2381 391 2643 752 
Q 2906 1113 2906 1747 
Q 2906 2381 2643 2742 
Q 2381 3103 1925 3103 
Q 1469 3103 1208 2742 
Q 947 2381 947 1747 
z
M 2906 525 
Q 2725 213 2448 61 
Q 2172 -91 1784 -91 
Q 1150 -91 751 415 
Q 353 922 353 1747 
Q 353 2572 751 3078 
Q 1150 3584 1784 3584 
Q 2172 3584 2448 3432 
Q 2725 3281 2906 2969 
L 2906 3500 
L 3481 3500 
L 3481 -1331 
L 2906 -1331 
L 2906 525 
z
" transform="scale(0.015625)"/>
       <path id="DejaVuSans-75" d="M 544 1381 
L 544 3500 
L 1119 3500 
L 1119 1403 
Q 1119 906 1312 657 
Q 1506 409 1894 409 
Q 2359 409 2629 706 
Q 2900 1003 2900 1516 
L 2900 3500 
L 3475 3500 
L 3475 0 
L 2900 0 
L 2900 538 
Q 2691 219 2414 64 
Q 2138 -91 1772 -91 
Q 1169 -91 856 284 
Q 544 659 544 1381 
z
M 1991 3584 
L 1991 3584 
z
" transform="scale(0.015625)"/>
       <path id="DejaVuSans-63" d="M 3122 3366 
L 3122 2828 
Q 2878 2963 2633 3030 
Q 2388 3097 2138 3097 
Q 1578 3097 1268 2742 
Q 959 2388 959 1747 
Q 959 1106 1268 751 
Q 1578 397 2138 397 
Q 2388 397 2633 464 
Q 2878 531 3122 666 
L 3122 134 
Q 2881 22 2623 -34 
Q 2366 -91 2075 -91 
Q 1284 -91 818 406 
Q 353 903 353 1747 
Q 353 2603 823 3093 
Q 1294 3584 2113 3584 
Q 2378 3584 2631 3529 
Q 2884 3475 3122 3366 
z
" transform="scale(0.015625)"/>
       <path id="DejaVuSans-79" d="M 2059 -325 
Q 1816 -950 1584 -1140 
Q 1353 -1331 966 -1331 
L 506 -1331 
L 506 -850 
L 844 -850 
Q 1081 -850 1212 -737 
Q 1344 -625 1503 -206 
L 1606 56 
L 191 3500 
L 800 3500 
L 1894 763 
L 2988 3500 
L 3597 3500 
L 2059 -325 
z
" transform="scale(0.015625)"/>
       <path id="DejaVuSans-6b" d="M 581 4863 
L 1159 4863 
L 1159 1991 
L 2875 3500 
L 3609 3500 
L 1753 1863 
L 3688 0 
L 2938 0 
L 1159 1709 
L 1159 0 
L 581 0 
L 581 4863 
z
" transform="scale(0.015625)"/>
       <path id="DejaVuSans-48" d="M 628 4666 
L 1259 4666 
L 1259 2753 
L 3553 2753 
L 3553 4666 
L 4184 4666 
L 4184 0 
L 3553 0 
L 3553 2222 
L 1259 2222 
L 1259 0 
L 628 0 
L 628 4666 
z
" transform="scale(0.015625)"/>
       <path id="DejaVuSans-7a" d="M 353 3500 
L 3084 3500 
L 3084 2975 
L 922 459 
L 3084 459 
L 3084 0 
L 275 0 
L 275 525 
L 2438 3041 
L 353 3041 
L 353 3500 
z
" transform="scale(0.015625)"/>
      </defs>
      <use xlink:href="#DejaVuSans-46"/>
      <use xlink:href="#DejaVuSans-72" transform="translate(50.269531 0)"/>
      <use xlink:href="#DejaVuSans-65" transform="translate(89.132812 0)"/>
      <use xlink:href="#DejaVuSans-71" transform="translate(150.65625 0)"/>
      <use xlink:href="#DejaVuSans-75" transform="translate(214.132812 0)"/>
      <use xlink:href="#DejaVuSans-65" transform="translate(277.511719 0)"/>
      <use xlink:href="#DejaVuSans-6e" transform="translate(339.035156 0)"/>
      <use xlink:href="#DejaVuSans-63" transform="translate(402.414062 0)"/>
      <use xlink:href="#DejaVuSans-79" transform="translate(457.394531 0)"/>
      <use xlink:href="#DejaVuSans-20" transform="translate(516.574219 0)"/>
      <use xlink:href="#DejaVuSans-28" transform="translate(548.361328 0)"/>
      <use xlink:href="#DejaVuSans-6b" transform="translate(587.375 0)"/>
      <use xlink:href="#DejaVuSans-48" transform="translate(645.285156 0)"/>
      <use xlink:href="#DejaVuSans-7a" transform="translate(720.480469 0)"/>
      <use xlink:href="#DejaVuSans-29" transform="translate(772.970703 0)"/>
     </g>
    </g>
    <g id="text_16">
     <!-- 1e6 -->
     <g transform="translate(402.321875 273.316562) scale(0.1 -0.1)">
      <defs>
       <path id="DejaVuSans-36" d="M 2113 2584 
Q 1688 2584 1439 2293 
Q 1191 2003 1191 1497 
Q 1191 994 1439 701 
Q 1688 409 2113 409 
Q 2538 409 2786 701 
Q 3034 994 3034 1497 
Q 3034 2003 2786 2293 
Q 2538 2584 2113 2584 
z
M 3366 4563 
L 3366 3988 
Q 3128 4100 2886 4159 
Q 2644 4219 2406 4219 
Q 1781 4219 1451 3797 
Q 1122 3375 1075 2522 
Q 1259 2794 1537 2939 
Q 1816 3084 2150 3084 
Q 2853 3084 3261 2657 
Q 3669 2231 3669 1497 
Q 3669 778 3244 343 
Q 2819 -91 2113 -91 
Q 1303 -91 875 529 
Q 447 1150 447 2328 
Q 447 3434 972 4092 
Q 1497 4750 2381 4750 
Q 2619 4750 2861 4703 
Q 3103 4656 3366 4563 
z
" transform="scale(0.015625)"/>
      </defs>
      <use xlink:href="#DejaVuSans-31"/>
      <use xlink:href="#DejaVuSans-65" transform="translate(63.623047 0)"/>
      <use xlink:href="#DejaVuSans-36" transform="translate(125.146484 0)"/>
     </g>
    </g>
   </g>
   <g id="matplotlib.axis_4">
    <g id="ytick_6">
     <g id="line2d_13">
      <g>
       <use xlink:href="#m1a0e11900f" x="275.673943" y="236.078182" style="stroke: #000000; stroke-width: 0.8"/>
      </g>
     </g>
     <g id="text_17">
      <!-- 0.0000 -->
      <g transform="translate(233.683318 239.877401) scale(0.1 -0.1)">
       <use xlink:href="#DejaVuSans-30"/>
       <use xlink:href="#DejaVuSans-2e" transform="translate(63.623047 0)"/>
       <use xlink:href="#DejaVuSans-30" transform="translate(95.410156 0)"/>
       <use xlink:href="#DejaVuSans-30" transform="translate(159.033203 0)"/>
       <use xlink:href="#DejaVuSans-30" transform="translate(222.65625 0)"/>
       <use xlink:href="#DejaVuSans-30" transform="translate(286.279297 0)"/>
      </g>
     </g>
    </g>
    <g id="ytick_7">
     <g id="line2d_14">
      <g>
       <use xlink:href="#m1a0e11900f" x="275.673943" y="204.781967" style="stroke: #000000; stroke-width: 0.8"/>
      </g>
     </g>
     <g id="text_18">
      <!-- 0.0001 -->
      <g transform="translate(233.683318 208.581186) scale(0.1 -0.1)">
       <use xlink:href="#DejaVuSans-30"/>
       <use xlink:href="#DejaVuSans-2e" transform="translate(63.623047 0)"/>
       <use xlink:href="#DejaVuSans-30" transform="translate(95.410156 0)"/>
       <use xlink:href="#DejaVuSans-30" transform="translate(159.033203 0)"/>
       <use xlink:href="#DejaVuSans-30" transform="translate(222.65625 0)"/>
       <use xlink:href="#DejaVuSans-31" transform="translate(286.279297 0)"/>
      </g>
     </g>
    </g>
    <g id="ytick_8">
     <g id="line2d_15">
      <g>
       <use xlink:href="#m1a0e11900f" x="275.673943" y="173.485753" style="stroke: #000000; stroke-width: 0.8"/>
      </g>
     </g>
     <g id="text_19">
      <!-- 0.0002 -->
      <g transform="translate(233.683318 177.284972) scale(0.1 -0.1)">
       <use xlink:href="#DejaVuSans-30"/>
       <use xlink:href="#DejaVuSans-2e" transform="translate(63.623047 0)"/>
       <use xlink:href="#DejaVuSans-30" transform="translate(95.410156 0)"/>
       <use xlink:href="#DejaVuSans-30" transform="translate(159.033203 0)"/>
       <use xlink:href="#DejaVuSans-30" transform="translate(222.65625 0)"/>
       <use xlink:href="#DejaVuSans-32" transform="translate(286.279297 0)"/>
      </g>
     </g>
    </g>
    <g id="ytick_9">
     <g id="line2d_16">
      <g>
       <use xlink:href="#m1a0e11900f" x="275.673943" y="142.189539" style="stroke: #000000; stroke-width: 0.8"/>
      </g>
     </g>
     <g id="text_20">
      <!-- 0.0003 -->
      <g transform="translate(233.683318 145.988758) scale(0.1 -0.1)">
       <defs>
        <path id="DejaVuSans-33" d="M 2597 2516 
Q 3050 2419 3304 2112 
Q 3559 1806 3559 1356 
Q 3559 666 3084 287 
Q 2609 -91 1734 -91 
Q 1441 -91 1130 -33 
Q 819 25 488 141 
L 488 750 
Q 750 597 1062 519 
Q 1375 441 1716 441 
Q 2309 441 2620 675 
Q 2931 909 2931 1356 
Q 2931 1769 2642 2001 
Q 2353 2234 1838 2234 
L 1294 2234 
L 1294 2753 
L 1863 2753 
Q 2328 2753 2575 2939 
Q 2822 3125 2822 3475 
Q 2822 3834 2567 4026 
Q 2313 4219 1838 4219 
Q 1578 4219 1281 4162 
Q 984 4106 628 3988 
L 628 4550 
Q 988 4650 1302 4700 
Q 1616 4750 1894 4750 
Q 2613 4750 3031 4423 
Q 3450 4097 3450 3541 
Q 3450 3153 3228 2886 
Q 3006 2619 2597 2516 
z
" transform="scale(0.015625)"/>
       </defs>
       <use xlink:href="#DejaVuSans-30"/>
       <use xlink:href="#DejaVuSans-2e" transform="translate(63.623047 0)"/>
       <use xlink:href="#DejaVuSans-30" transform="translate(95.410156 0)"/>
       <use xlink:href="#DejaVuSans-30" transform="translate(159.033203 0)"/>
       <use xlink:href="#DejaVuSans-30" transform="translate(222.65625 0)"/>
       <use xlink:href="#DejaVuSans-33" transform="translate(286.279297 0)"/>
      </g>
     </g>
    </g>
    <g id="ytick_10">
     <g id="line2d_17">
      <g>
       <use xlink:href="#m1a0e11900f" x="275.673943" y="110.893324" style="stroke: #000000; stroke-width: 0.8"/>
      </g>
     </g>
     <g id="text_21">
      <!-- 0.0004 -->
      <g transform="translate(233.683318 114.692543) scale(0.1 -0.1)">
       <use xlink:href="#DejaVuSans-30"/>
       <use xlink:href="#DejaVuSans-2e" transform="translate(63.623047 0)"/>
       <use xlink:href="#DejaVuSans-30" transform="translate(95.410156 0)"/>
       <use xlink:href="#DejaVuSans-30" transform="translate(159.033203 0)"/>
       <use xlink:href="#DejaVuSans-30" transform="translate(222.65625 0)"/>
       <use xlink:href="#DejaVuSans-34" transform="translate(286.279297 0)"/>
      </g>
     </g>
    </g>
    <g id="ytick_11">
     <g id="line2d_18">
      <g>
       <use xlink:href="#m1a0e11900f" x="275.673943" y="79.59711" style="stroke: #000000; stroke-width: 0.8"/>
      </g>
     </g>
     <g id="text_22">
      <!-- 0.0005 -->
      <g transform="translate(233.683318 83.396329) scale(0.1 -0.1)">
       <use xlink:href="#DejaVuSans-30"/>
       <use xlink:href="#DejaVuSans-2e" transform="translate(63.623047 0)"/>
       <use xlink:href="#DejaVuSans-30" transform="translate(95.410156 0)"/>
       <use xlink:href="#DejaVuSans-30" transform="translate(159.033203 0)"/>
       <use xlink:href="#DejaVuSans-30" transform="translate(222.65625 0)"/>
       <use xlink:href="#DejaVuSans-35" transform="translate(286.279297 0)"/>
      </g>
     </g>
    </g>
    <g id="ytick_12">
     <g id="line2d_19">
      <g>
       <use xlink:href="#m1a0e11900f" x="275.673943" y="48.300896" style="stroke: #000000; stroke-width: 0.8"/>
      </g>
     </g>
     <g id="text_23">
      <!-- 0.0006 -->
      <g transform="translate(233.683318 52.100115) scale(0.1 -0.1)">
       <use xlink:href="#DejaVuSans-30"/>
       <use xlink:href="#DejaVuSans-2e" transform="translate(63.623047 0)"/>
       <use xlink:href="#DejaVuSans-30" transform="translate(95.410156 0)"/>
       <use xlink:href="#DejaVuSans-30" transform="translate(159.033203 0)"/>
       <use xlink:href="#DejaVuSans-30" transform="translate(222.65625 0)"/>
       <use xlink:href="#DejaVuSans-36" transform="translate(286.279297 0)"/>
      </g>
     </g>
    </g>
    <g id="text_24">
     <!-- Magnitude (V) -->
     <g transform="translate(227.603631 171.860781) rotate(-90) scale(0.1 -0.1)">
      <defs>
       <path id="DejaVuSans-4d" d="M 628 4666 
L 1569 4666 
L 2759 1491 
L 3956 4666 
L 4897 4666 
L 4897 0 
L 4281 0 
L 4281 4097 
L 3078 897 
L 2444 897 
L 1241 4097 
L 1241 0 
L 628 0 
L 628 4666 
z
" transform="scale(0.015625)"/>
       <path id="DejaVuSans-64" d="M 2906 2969 
L 2906 4863 
L 3481 4863 
L 3481 0 
L 2906 0 
L 2906 525 
Q 2725 213 2448 61 
Q 2172 -91 1784 -91 
Q 1150 -91 751 415 
Q 353 922 353 1747 
Q 353 2572 751 3078 
Q 1150 3584 1784 3584 
Q 2172 3584 2448 3432 
Q 2725 3281 2906 2969 
z
M 947 1747 
Q 947 1113 1208 752 
Q 1469 391 1925 391 
Q 2381 391 2643 752 
Q 2906 1113 2906 1747 
Q 2906 2381 2643 2742 
Q 2381 3103 1925 3103 
Q 1469 3103 1208 2742 
Q 947 2381 947 1747 
z
" transform="scale(0.015625)"/>
      </defs>
      <use xlink:href="#DejaVuSans-4d"/>
      <use xlink:href="#DejaVuSans-61" transform="translate(86.279297 0)"/>
      <use xlink:href="#DejaVuSans-67" transform="translate(147.558594 0)"/>
      <use xlink:href="#DejaVuSans-6e" transform="translate(211.035156 0)"/>
      <use xlink:href="#DejaVuSans-69" transform="translate(274.414062 0)"/>
      <use xlink:href="#DejaVuSans-74" transform="translate(302.197266 0)"/>
      <use xlink:href="#DejaVuSans-75" transform="translate(341.40625 0)"/>
      <use xlink:href="#DejaVuSans-64" transform="translate(404.785156 0)"/>
      <use xlink:href="#DejaVuSans-65" transform="translate(468.261719 0)"/>
      <use xlink:href="#DejaVuSans-20" transform="translate(529.785156 0)"/>
      <use xlink:href="#DejaVuSans-28" transform="translate(561.572266 0)"/>
      <use xlink:href="#DejaVuSans-56" transform="translate(600.585938 0)"/>
      <use xlink:href="#DejaVuSans-29" transform="translate(668.994141 0)"/>
     </g>
    </g>
   </g>
   <g id="line2d_20">
    <path d="M 275.673943 236.078182 
L 275.958174 236.078182 
L 276.242404 235.755268 
L 276.526635 236.078182 
L 277.095096 236.078182 
L 277.379327 234.630968 
L 277.663557 236.078182 
L 278.232018 236.078182 
L 278.516249 36.841818 
L 278.80048 236.078182 
L 279.368941 236.078182 
L 279.653171 234.590293 
L 279.937402 236.078182 
L 280.505863 236.078182 
L 280.790094 235.7415 
L 281.074324 236.078182 
L 281.642785 236.078182 
L 281.927016 235.768919 
L 282.211247 236.078182 
L 282.779708 236.078182 
L 283.063938 234.670201 
L 283.348169 236.078182 
L 283.91663 236.078182 
L 284.200861 169.670119 
L 284.485091 236.078182 
L 285.053552 236.078182 
L 285.337783 234.548095 
L 285.622014 236.078182 
L 286.190475 236.078182 
L 286.474705 235.727586 
L 286.758936 236.078182 
L 287.327397 236.078182 
L 287.611628 235.782442 
L 287.895858 236.078182 
L 288.464319 236.078182 
L 288.74855 234.708086 
L 289.03278 236.078182 
L 289.601242 236.078182 
L 289.885472 196.238195 
L 290.169703 236.078182 
L 290.738164 236.078182 
L 291.022395 234.504272 
L 291.306625 236.078182 
L 291.875086 236.078182 
L 292.159317 235.713525 
L 292.443547 236.078182 
L 293.012009 236.078182 
L 293.296239 235.795845 
L 293.58047 236.078182 
L 294.148931 236.078182 
L 294.433161 234.744698 
L 294.717392 236.078182 
L 295.285853 236.078182 
L 295.570084 207.626274 
L 295.854314 236.078182 
L 296.422776 236.078182 
L 296.707006 234.458718 
L 296.991237 236.078182 
L 297.559698 236.078182 
L 297.843928 235.699321 
L 298.128159 236.078182 
L 298.69662 236.078182 
L 298.980851 235.809143 
L 299.265081 236.078182 
L 299.833543 236.078182 
L 300.117773 234.780097 
L 300.402004 236.078182 
L 300.970465 236.078182 
L 301.254695 213.954325 
L 301.538926 236.078182 
L 302.107387 236.078182 
L 302.391618 234.411356 
L 302.675848 236.078182 
L 303.244309 236.078182 
L 303.52854 235.68496 
L 303.812771 236.078182 
L 304.381232 236.078182 
L 304.665462 235.822333 
L 304.949693 236.078182 
L 305.518154 236.078182 
L 305.802385 234.814359 
L 306.086615 236.078182 
L 306.655076 236.078182 
L 306.939307 217.982373 
L 307.223538 236.078182 
L 307.791999 236.078182 
L 308.076229 234.362002 
L 308.36046 236.078182 
L 308.928921 236.078182 
L 309.213152 235.670434 
L 309.497382 236.078182 
L 310.065843 236.078182 
L 310.350074 235.835421 
L 310.634305 236.078182 
L 311.202766 236.078182 
L 311.486996 234.84753 
L 311.771227 236.078182 
L 312.339688 236.078182 
L 312.623919 220.771961 
L 312.908149 236.078182 
L 313.47661 236.078182 
L 313.760841 234.310568 
L 314.045071 236.078182 
L 314.613533 236.078182 
L 314.897763 235.65573 
L 315.181994 236.078182 
L 315.750455 236.078182 
L 316.034686 235.848413 
L 316.318916 236.078182 
L 316.887377 236.078182 
L 317.171608 234.879699 
L 317.455838 236.078182 
L 318.0243 236.078182 
L 318.30853 222.818477 
L 318.592761 236.078182 
L 319.161222 236.078182 
L 319.445453 233.92427 
L 319.729683 236.078182 
L 320.298144 236.078182 
L 320.582375 235.640851 
L 320.866605 236.078182 
L 321.435067 236.078182 
L 321.719297 235.86132 
L 322.003528 236.078182 
L 322.571989 236.078182 
L 322.856219 234.910884 
L 323.14045 236.078182 
L 323.708911 236.078182 
L 323.993142 224.384179 
L 324.277372 236.078182 
L 324.845834 236.078182 
L 325.130064 233.867076 
L 325.414295 236.078182 
L 325.982756 236.078182 
L 326.266986 235.625781 
L 326.551217 236.078182 
L 327.119678 236.078182 
L 327.403909 235.874149 
L 327.688139 236.078182 
L 328.2566 236.078182 
L 328.540831 234.941147 
L 328.825062 236.078182 
L 329.393523 236.078182 
L 329.677753 225.620896 
L 329.961984 236.078182 
L 330.530445 236.078182 
L 330.814676 233.807287 
L 331.098906 236.078182 
L 331.667367 236.078182 
L 331.951598 235.610512 
L 332.235829 236.078182 
L 332.80429 236.078182 
L 333.08852 235.886885 
L 333.372751 236.078182 
L 333.941212 236.078182 
L 334.225443 234.970546 
L 334.509673 236.078182 
L 335.078134 236.078182 
L 335.362365 226.622644 
L 335.646596 236.078182 
L 336.215057 236.078182 
L 336.499287 233.744738 
L 336.783518 236.078182 
L 337.351979 236.078182 
L 337.63621 235.595043 
L 337.92044 236.078182 
L 338.488901 236.078182 
L 338.773132 235.899562 
L 339.057362 236.078182 
L 339.625824 236.078182 
L 339.910054 234.999104 
L 340.194285 236.078182 
L 340.762746 236.078182 
L 341.046977 227.450701 
L 341.331207 236.078182 
L 341.899668 236.078182 
L 342.183899 233.679196 
L 342.468129 236.078182 
L 343.036591 236.078182 
L 343.320821 235.579341 
L 343.605052 236.078182 
L 344.173513 236.078182 
L 344.457744 235.912163 
L 344.741974 236.078182 
L 345.310435 236.078182 
L 345.594666 235.026872 
L 345.878896 236.078182 
L 346.447358 236.078182 
L 346.731588 228.146757 
L 347.015819 236.078182 
L 347.58428 236.078182 
L 347.86851 233.610428 
L 348.152741 236.078182 
L 348.721202 236.078182 
L 349.005433 235.563437 
L 349.289663 236.078182 
L 349.858125 236.078182 
L 350.142355 235.924713 
L 350.426586 236.078182 
L 350.995047 236.078182 
L 351.279277 235.053904 
L 351.563508 236.078182 
L 352.131969 236.078182 
L 352.4162 228.740165 
L 352.70043 236.078182 
L 353.268891 236.078182 
L 353.553122 233.538178 
L 353.837353 236.078182 
L 354.405814 236.078182 
L 354.690044 235.547277 
L 354.974275 236.078182 
L 355.542736 236.078182 
L 355.826967 235.937199 
L 356.111197 236.078182 
L 356.679658 236.078182 
L 356.963889 235.080208 
L 357.24812 236.078182 
L 357.816581 236.078182 
L 358.100811 229.252136 
L 358.385042 236.078182 
L 358.953503 236.078182 
L 359.237734 233.462159 
L 359.521964 236.078182 
L 360.090425 236.078182 
L 360.374656 235.530891 
L 360.658887 236.078182 
L 361.227348 236.078182 
L 361.511578 235.949633 
L 361.795809 236.078182 
L 362.36427 236.078182 
L 362.648501 235.105845 
L 362.932731 236.078182 
L 363.501192 236.078182 
L 363.785423 229.698445 
L 364.069654 236.078182 
L 364.638115 236.078182 
L 364.922345 233.382059 
L 365.206576 236.078182 
L 365.775037 236.078182 
L 366.059268 235.514237 
L 366.343498 236.078182 
L 366.911959 236.078182 
L 367.19619 235.962018 
L 367.764651 236.078182 
L 368.048882 236.078182 
L 368.333112 235.130822 
L 368.617343 236.078182 
L 369.185804 236.078182 
L 369.470035 230.091044 
L 369.754265 236.078182 
L 370.322726 236.078182 
L 370.606957 233.297493 
L 370.891187 236.078182 
L 371.459649 236.078182 
L 371.743879 235.49733 
L 372.02811 236.078182 
L 373.733493 236.078182 
L 374.017724 235.155192 
L 374.301954 236.078182 
L 374.870416 236.078182 
L 375.154646 230.43912 
L 375.438877 236.078182 
L 376.007338 236.078182 
L 376.291568 233.208103 
L 376.575799 236.078182 
L 377.14426 236.078182 
L 377.428491 235.480132 
L 377.712721 236.078182 
L 379.418105 236.078182 
L 379.702335 235.178964 
L 379.986566 236.078182 
L 380.555027 236.078182 
L 380.839258 230.749911 
L 381.123488 236.078182 
L 381.691949 236.078182 
L 381.97618 233.113404 
L 382.260411 236.078182 
L 382.828872 236.078182 
L 383.113102 235.462646 
L 383.397333 236.078182 
L 385.102716 236.078182 
L 385.386947 235.202178 
L 385.671178 236.078182 
L 386.239639 236.078182 
L 386.523869 231.029154 
L 386.8081 236.078182 
L 387.376561 236.078182 
L 387.660792 233.01291 
L 387.945022 236.078182 
L 388.513483 236.078182 
L 388.797714 235.444851 
L 389.081945 236.078182 
L 390.787328 236.078182 
L 391.071559 235.224846 
L 391.355789 236.078182 
L 391.92425 236.078182 
L 392.208481 231.281445 
L 392.492711 236.078182 
L 393.061173 236.078182 
L 393.345403 232.906051 
L 393.629634 236.078182 
L 394.198095 236.078182 
L 394.482326 235.426746 
L 394.766556 236.078182 
L 396.47194 236.078182 
L 396.75617 235.247007 
L 397.040401 236.078182 
L 397.608862 236.078182 
L 397.893092 231.510578 
L 398.177323 236.078182 
L 398.745784 236.078182 
L 399.030015 232.792164 
L 399.314245 236.078182 
L 399.882707 236.078182 
L 400.166937 235.40831 
L 400.451168 236.078182 
L 402.156551 236.078182 
L 402.440782 235.268677 
L 402.725012 236.078182 
L 403.293473 236.078182 
L 403.577704 231.719614 
L 403.861935 236.078182 
L 404.430396 236.078182 
L 404.714626 232.670512 
L 404.998857 236.078182 
L 405.567318 236.078182 
L 405.851549 235.389526 
L 406.135779 236.078182 
L 407.841163 236.078182 
L 408.125393 235.289879 
L 408.409624 236.078182 
L 408.978085 236.078182 
L 409.262316 231.911132 
L 409.546546 236.078182 
L 410.115007 236.078182 
L 410.399238 232.540257 
L 410.683469 236.078182 
L 411.25193 236.078182 
L 411.53616 235.370389 
L 411.820391 236.078182 
L 413.525774 236.078182 
L 413.810005 235.310632 
L 414.094236 236.078182 
L 414.662697 236.078182 
L 414.946927 232.087279 
L 415.231158 236.078182 
L 415.799619 236.078182 
L 416.08385 232.400413 
L 416.36808 236.078182 
L 416.936541 236.078182 
L 417.220772 235.350868 
L 417.505002 236.078182 
L 419.210386 236.078182 
L 419.494617 235.33096 
L 419.778847 236.078182 
L 420.347308 236.078182 
L 420.631539 232.249854 
L 420.915769 236.078182 
L 421.484231 236.078182 
L 421.484231 236.078182 
" clip-path="url(#pf2d206a843)" style="fill: none; stroke: #1f77b4; stroke-width: 1.5; stroke-linecap: square"/>
   </g>
   <g id="patch_8">
    <path d="M 275.673943 246.04 
L 275.673943 26.88 
" style="fill: none; stroke: #000000; stroke-width: 0.8; stroke-linejoin: miter; stroke-linecap: square"/>
   </g>
   <g id="patch_9">
    <path d="M 421.2 246.04 
L 421.2 26.88 
" style="fill: none; stroke: #000000; stroke-width: 0.8; stroke-linejoin: miter; stroke-linecap: square"/>
   </g>
   <g id="patch_10">
    <path d="M 275.673943 246.04 
L 421.2 246.04 
" style="fill: none; stroke: #000000; stroke-width: 0.8; stroke-linejoin: miter; stroke-linecap: square"/>
   </g>
   <g id="patch_11">
    <path d="M 275.673943 26.88 
L 421.2 26.88 
" style="fill: none; stroke: #000000; stroke-width: 0.8; stroke-linejoin: miter; stroke-linecap: square"/>
   </g>
   <g id="text_25">
    <!-- FFT of Signal -->
    <g transform="translate(309.946972 20.88) scale(0.12 -0.12)">
     <defs>
      <path id="DejaVuSans-66" d="M 2375 4863 
L 2375 4384 
L 1825 4384 
Q 1516 4384 1395 4259 
Q 1275 4134 1275 3809 
L 1275 3500 
L 2222 3500 
L 2222 3053 
L 1275 3053 
L 1275 0 
L 697 0 
L 697 3053 
L 147 3053 
L 147 3500 
L 697 3500 
L 697 3744 
Q 697 4328 969 4595 
Q 1241 4863 1831 4863 
L 2375 4863 
z
" transform="scale(0.015625)"/>
     </defs>
     <use xlink:href="#DejaVuSans-46"/>
     <use xlink:href="#DejaVuSans-46" transform="translate(57.519531 0)"/>
     <use xlink:href="#DejaVuSans-54" transform="translate(113.289062 0)"/>
     <use xlink:href="#DejaVuSans-20" transform="translate(174.373047 0)"/>
     <use xlink:href="#DejaVuSans-6f" transform="translate(206.160156 0)"/>
     <use xlink:href="#DejaVuSans-66" transform="translate(267.341797 0)"/>
     <use xlink:href="#DejaVuSans-20" transform="translate(302.546875 0)"/>
     <use xlink:href="#DejaVuSans-53" transform="translate(334.333984 0)"/>
     <use xlink:href="#DejaVuSans-69" transform="translate(397.810547 0)"/>
     <use xlink:href="#DejaVuSans-67" transform="translate(425.59375 0)"/>
     <use xlink:href="#DejaVuSans-6e" transform="translate(489.070312 0)"/>
     <use xlink:href="#DejaVuSans-61" transform="translate(552.449219 0)"/>
     <use xlink:href="#DejaVuSans-6c" transform="translate(613.728516 0)"/>
    </g>
   </g>
  </g>
 </g>
 <defs>
  <clipPath id="pe2a2b31d66">
   <rect x="56.09" y="26.88" width="145.526057" height="219.16"/>
  </clipPath>
  <clipPath id="pf2d206a843">
   <rect x="275.673943" y="26.88" width="145.526057" height="219.16"/>
  </clipPath>
 </defs>
</svg>
